<svg width="117" height="35" viewBox="0 0 117 35" fill="none" xmlns="http://www.w3.org/2000/svg">
<g clip-path="url(#clip0_581_590)">
<path d="M44.3305 12.54C43.3705 12.54 42.5505 12.76 41.8705 13.2C41.1905 13.64 40.6705 14.2533 40.3105 15.04C39.9505 15.8133 39.7705 16.7333 39.7705 17.8C39.7705 18.88 39.9639 19.8 40.3505 20.56C40.7372 21.3067 41.2705 21.8733 41.9505 22.26C42.6439 22.6467 43.4372 22.84 44.3305 22.84C44.9839 22.84 45.5572 22.76 46.0505 22.6C46.5572 22.4267 46.9839 22.18 47.3305 21.86C47.6772 21.5267 47.9439 21.1267 48.1305 20.66C48.3305 20.1933 48.4305 19.6733 48.4305 19.1V17.82L49.6305 19.04H44.0105V16.78H50.8105V25H48.6505L48.4305 22.64L48.7305 22.94C48.5172 23.38 48.1772 23.7733 47.7105 24.12C47.2572 24.4667 46.7172 24.74 46.0905 24.94C45.4639 25.1267 44.7839 25.22 44.0505 25.22C42.6905 25.22 41.4839 24.9133 40.4305 24.3C39.3905 23.6733 38.5705 22.8 37.9705 21.68C37.3839 20.56 37.0905 19.2467 37.0905 17.74C37.0905 16.26 37.3905 14.9533 37.9905 13.82C38.6039 12.6733 39.4572 11.7733 40.5505 11.12C41.6572 10.4667 42.9372 10.14 44.3905 10.14C45.5105 10.14 46.5239 10.3467 47.4305 10.76C48.3372 11.16 49.0772 11.7267 49.6505 12.46C50.2372 13.1933 50.5972 14.06 50.7305 15.06H48.0305C47.8039 14.1933 47.3505 13.56 46.6705 13.16C45.9905 12.7467 45.2105 12.54 44.3305 12.54ZM53.3955 25V15.12H55.8355V25H53.3955ZM54.5955 13.14C54.1822 13.14 53.8289 13 53.5355 12.72C53.2555 12.4267 53.1155 12.0733 53.1155 11.66C53.1155 11.2467 53.2555 10.9 53.5355 10.62C53.8289 10.34 54.1822 10.2 54.5955 10.2C55.0089 10.2 55.3555 10.34 55.6355 10.62C55.9289 10.9 56.0755 11.2467 56.0755 11.66C56.0755 12.0733 55.9289 12.4267 55.6355 12.72C55.3555 13 55.0089 13.14 54.5955 13.14ZM64.7565 15.08V17.34H63.8565C62.9632 17.34 62.2632 17.58 61.7565 18.06C61.2498 18.5267 60.9965 19.24 60.9965 20.2V25H58.5565V15.14H60.8565L61.0565 17.18H60.8165C60.9498 16.5267 61.2632 15.9933 61.7565 15.58C62.2498 15.1667 62.8898 14.96 63.6765 14.96C63.8498 14.96 64.0232 14.9667 64.1965 14.98C64.3698 14.9933 64.5565 15.0267 64.7565 15.08ZM78.1187 11.6V25H75.5587V11.6H78.1187ZM71.2787 12.74V10.38H82.3987V12.74H71.2787ZM86.9359 25.26C85.9625 25.26 85.0959 25.04 84.3359 24.6C83.5892 24.1467 83.0025 23.5333 82.5759 22.76C82.1492 21.9733 81.9359 21.0733 81.9359 20.06C81.9359 19.0333 82.1425 18.1267 82.5559 17.34C82.9692 16.5533 83.5492 15.94 84.2959 15.5C85.0425 15.0467 85.8959 14.82 86.8559 14.82C87.8559 14.82 88.7159 15.0333 89.4359 15.46C90.1559 15.8733 90.7092 16.4533 91.0959 17.2C91.4959 17.9467 91.6959 18.84 91.6959 19.88V20.62L83.2159 20.64L83.2559 19.08H89.2759C89.2759 18.4 89.0559 17.8533 88.6159 17.44C88.1892 17.0267 87.6092 16.82 86.8759 16.82C86.3025 16.82 85.8159 16.94 85.4159 17.18C85.0292 17.42 84.7359 17.78 84.5359 18.26C84.3359 18.74 84.2359 19.3267 84.2359 20.02C84.2359 21.0867 84.4625 21.8933 84.9159 22.44C85.3825 22.9867 86.0692 23.26 86.9759 23.26C87.6425 23.26 88.1892 23.1333 88.6159 22.88C89.0559 22.6267 89.3425 22.2667 89.4759 21.8H91.7359C91.5225 22.88 90.9892 23.7267 90.1359 24.34C89.2959 24.9533 88.2292 25.26 86.9359 25.26ZM93.2687 20.04C93.2687 19.0267 93.4753 18.1267 93.8887 17.34C94.3153 16.5533 94.8953 15.94 95.6287 15.5C96.3753 15.0467 97.2353 14.82 98.2087 14.82C99.5553 14.82 100.655 15.1733 101.509 15.88C102.375 16.5733 102.875 17.5133 103.009 18.7H100.569C100.422 18.14 100.149 17.72 99.7487 17.44C99.362 17.1467 98.8753 17 98.2887 17C97.782 17 97.3287 17.1267 96.9287 17.38C96.542 17.62 96.242 17.9667 96.0287 18.42C95.8153 18.8733 95.7087 19.4133 95.7087 20.04C95.7087 20.6667 95.8087 21.2067 96.0087 21.66C96.2087 22.1133 96.4953 22.4667 96.8687 22.72C97.2553 22.96 97.7087 23.08 98.2287 23.08C98.842 23.08 99.3487 22.9333 99.7487 22.64C100.162 22.3467 100.435 21.9267 100.569 21.38H103.029C102.922 22.1533 102.649 22.8333 102.209 23.42C101.782 23.9933 101.229 24.4467 100.549 24.78C99.8687 25.1 99.0953 25.26 98.2287 25.26C97.2287 25.26 96.3553 25.0467 95.6087 24.62C94.862 24.18 94.282 23.5733 93.8687 22.8C93.4687 22.0133 93.2687 21.0933 93.2687 20.04ZM107.485 25H105.045V10.12H107.505V16.4C107.811 15.92 108.238 15.54 108.785 15.26C109.345 14.9667 109.985 14.82 110.705 14.82C111.918 14.82 112.838 15.1867 113.465 15.92C114.105 16.6533 114.425 17.6533 114.425 18.92V25H111.985V19.5C111.985 18.94 111.898 18.48 111.725 18.12C111.551 17.76 111.311 17.4933 111.005 17.32C110.698 17.1333 110.338 17.04 109.925 17.04C109.418 17.04 108.978 17.1533 108.605 17.38C108.245 17.5933 107.965 17.8933 107.765 18.28C107.578 18.6667 107.485 19.1067 107.485 19.6V25Z" fill="#3563E9"/>
</g>
<path fill-rule="evenodd" clip-rule="evenodd" d="M14.2425 0C14.2425 1.14379 14.2425 2.28759 14.2425 3.43138C14.2944 4.33995 14.2372 5.22642 14.0709 6.0907C11.3672 7.73561 8.45049 8.82216 5.3209 9.35051C5.30658 11.9813 5.3209 14.6121 5.36379 17.2427C5.75557 20.7288 7.28536 23.6026 9.95326 25.864C11.3034 26.9721 12.7332 27.9586 14.2425 28.8236C14.2425 29.6814 14.2425 30.5393 14.2425 31.3971C11.4692 30.0768 8.99582 28.2753 6.82213 25.9927C5.13672 24.0519 3.99296 21.8215 3.39075 19.3015C2.33681 18.482 1.2359 17.7385 0.0880537 17.0711C0.0199323 16.1005 -0.00866821 15.1283 0.0022693 14.1544C0.0308612 14.1544 0.0594618 14.1544 0.0880537 14.1544C1.03168 14.7835 1.97531 15.4126 2.91894 16.0417C2.92409 16.0883 2.95265 16.1168 3.00472 16.1275C3.09051 13.1828 3.11907 10.2375 3.09051 7.29168C6.09228 6.92486 8.95173 6.08135 11.6689 4.76104C11.783 3.62314 11.783 2.49365 11.6689 1.37255C12.4962 0.872934 13.354 0.41542 14.2425 0Z" fill="#FCFCFE"/>
<path fill-rule="evenodd" clip-rule="evenodd" d="M14.2422 0C15.1811 0.555626 16.1247 1.11322 17.0731 1.6728C20.5654 3.52626 24.2827 4.55568 28.225 4.76104C28.3393 6.98551 28.3393 9.20158 28.225 11.4093C27.2117 12.1023 26.2108 12.8172 25.2226 13.5539C25.1369 12.6693 25.1083 11.7829 25.1368 10.8946C25.2165 9.69613 25.2451 8.49515 25.2226 7.29168C21.2787 6.78735 17.6186 5.50058 14.2422 3.43138C14.2422 2.28759 14.2422 1.14379 14.2422 0Z" fill="#455CE8"/>
<path fill-rule="evenodd" clip-rule="evenodd" d="M11.6688 1.37207C11.7829 2.49317 11.7829 3.62266 11.6688 4.76056C8.95156 6.08086 6.09211 6.92438 3.09034 7.2912C3.03313 10.2079 2.97599 13.1245 2.91878 16.0412C1.97515 15.4122 1.03152 14.783 0.0878906 14.154C0.0878906 11.0371 0.0878906 7.92026 0.0878906 4.80345C0.363524 4.83004 0.620878 4.80148 0.85995 4.71766C4.72865 4.4231 8.3316 3.3079 11.6688 1.37207Z" fill="#455CE8"/>
<path fill-rule="evenodd" clip-rule="evenodd" d="M0.859797 4.71777C0.620725 4.80158 0.363371 4.83015 0.0877375 4.80356C0.0877375 7.92036 0.0877375 11.0373 0.0877375 14.1541C0.0591456 14.1541 0.0305451 14.1541 0.00195312 14.1541C0.00195312 11.0086 0.00195312 7.86323 0.00195312 4.71777C0.287898 4.71777 0.573852 4.71777 0.859797 4.71777Z" fill="#4659D1"/>
<path fill-rule="evenodd" clip-rule="evenodd" d="M14.0708 6.09082C14.128 6.09082 14.1852 6.09082 14.2424 6.09082C14.2704 9.24246 14.2418 12.3879 14.1566 15.5271C13.4142 15.9844 12.6994 16.4848 12.012 17.0283C11.9307 17.0698 11.8449 17.084 11.7546 17.0712C11.7832 14.7258 11.7546 12.381 11.6688 10.0369C10.4592 10.6248 9.201 11.0537 7.89434 11.3237C7.78007 12.1079 7.72294 12.9229 7.72277 13.7685C7.72277 14.5983 7.75142 15.4133 7.80855 16.2134C7.92402 19.4182 9.22511 22.0204 11.7117 24.0198C11.7403 22.7044 11.769 21.389 11.7975 20.0737C12.0303 19.8832 12.2733 19.7117 12.5267 19.559C13.0885 19.1786 13.6319 18.7783 14.1566 18.358C14.1852 18.358 14.2138 18.358 14.2424 18.358C14.7579 17.9717 15.287 17.6 15.8294 17.2428C15.8723 17.814 15.8865 18.3859 15.8723 18.9585C15.8058 19.4329 15.7343 19.919 15.6578 20.4168C15.2221 20.7419 14.779 21.0564 14.3282 21.3605C14.2424 23.8189 14.2138 26.2781 14.2424 28.7379C14.2424 28.7665 14.2424 28.7951 14.2424 28.8237C12.7331 27.9587 11.3033 26.9722 9.95316 25.8641C7.28527 23.6027 5.75547 20.7289 5.3637 17.2428C5.3208 14.6122 5.30648 11.9815 5.3208 9.35063C8.45039 8.82228 11.3671 7.73574 14.0708 6.09082Z" fill="#465CE8"/>
<path fill-rule="evenodd" clip-rule="evenodd" d="M14.242 6.09082C16.9859 7.72999 19.9312 8.84519 23.0778 9.43641C23.0778 10.7804 23.0778 12.1243 23.0778 13.4683C23.132 15.3724 22.989 17.2597 22.6489 19.1301C21.7402 22.2005 19.9959 24.7024 17.4161 26.6362C16.385 27.3803 15.327 28.0808 14.242 28.7379C14.2135 26.2781 14.242 23.8189 14.3278 21.3605C14.7786 21.0564 15.2218 20.7419 15.6575 20.4168C15.7339 19.919 15.8055 19.4329 15.8719 18.9585C15.8451 19.1941 15.8737 19.4229 15.9577 19.6448C16.1358 19.7981 16.3217 19.9411 16.5153 20.0737C16.5296 21.39 16.5725 22.7054 16.644 24.0198C18.9263 22.1816 20.2273 19.8083 20.5472 16.8997C20.6183 15.0264 20.6041 13.1677 20.5043 11.3237C19.1653 10.9744 17.85 10.5455 16.5582 10.0369C16.5582 12.3531 16.5582 14.6693 16.5582 16.9854C16.4535 17.0682 16.3391 17.0539 16.2151 16.9426C15.5678 16.452 14.9101 15.9801 14.242 15.5271C14.2135 15.5271 14.1848 15.5271 14.1562 15.5271C14.2414 12.3879 14.2701 9.24246 14.242 6.09082Z" fill="#2C3671"/>
<path fill-rule="evenodd" clip-rule="evenodd" d="M14.2429 3.43164C17.6192 5.50085 21.2794 6.78761 25.2233 7.29194C25.2457 8.49541 25.2172 9.69639 25.1375 10.8949C25.0687 11.0194 25.0258 11.1624 25.0088 11.3238C24.4589 11.2399 23.9013 11.2113 23.336 11.238C23.3544 11.097 23.3257 10.9683 23.2502 10.852C23.8507 10.8234 24.4512 10.7948 25.0517 10.7662C24.4232 10.7233 23.7942 10.7091 23.1644 10.7233C23.192 10.2777 23.1633 9.84875 23.0787 9.43655C19.932 8.84533 16.9868 7.73013 14.2429 6.09096C14.1856 6.09096 14.1285 6.09096 14.0713 6.09096C14.2375 5.22668 14.2948 4.34021 14.2429 3.43164Z" fill="#D7D7D8"/>
<path fill-rule="evenodd" clip-rule="evenodd" d="M23.0781 9.43652C23.1628 9.84872 23.1914 10.2776 23.1639 10.7233C23.7937 10.7091 24.4227 10.7233 25.0512 10.7662C24.4507 10.7947 23.8502 10.8234 23.2497 10.852C23.3252 10.9683 23.3538 11.097 23.3355 11.238C23.9008 11.2113 24.4584 11.2399 25.0083 11.3238C25.0253 11.1623 25.0682 11.0194 25.137 10.8949C25.1085 11.7832 25.137 12.6696 25.2227 13.5542C26.211 12.8175 27.2118 12.1025 28.2252 11.4096C28.2252 12.2388 28.2252 13.068 28.2252 13.8973C27.9038 14.162 27.5607 14.3907 27.1958 14.5836C26.9845 14.6077 26.7986 14.6935 26.6382 14.8409C25.4869 14.756 24.3288 14.7275 23.1639 14.7552C23.1914 14.3095 23.1628 13.8806 23.0781 13.4684C23.0781 12.1244 23.0781 10.7805 23.0781 9.43652Z" fill="#D0D0D1"/>
<path fill-rule="evenodd" clip-rule="evenodd" d="M3.09051 7.29199C3.11908 10.2378 3.09051 13.1831 3.00473 16.1278C2.95266 16.1172 2.92409 16.0886 2.91895 16.042C2.97616 13.1253 3.0333 10.2087 3.09051 7.29199Z" fill="#5C70EA"/>
<path fill-rule="evenodd" clip-rule="evenodd" d="M14.157 15.5273C14.1855 15.5273 14.2142 15.5273 14.2427 15.5273C14.2427 16.4709 14.2427 17.4146 14.2427 18.3582C14.2142 18.3582 14.1855 18.3582 14.157 18.3582C13.6013 18.0085 13.058 17.6368 12.5271 17.243C12.4327 18.0147 12.4327 18.7868 12.5271 19.5592C12.2737 19.7119 12.0306 19.8834 11.7979 20.0739C11.7693 21.3892 11.7407 22.7046 11.7121 24.02C9.22547 22.0206 7.92438 19.4184 7.80892 16.2136C7.78147 14.5772 7.81003 12.9473 7.8947 11.3239C9.20137 11.0539 10.4596 10.625 11.6692 10.0371C11.755 12.3812 11.7836 14.726 11.755 17.0714C11.8452 17.0842 11.931 17.07 12.0124 17.0285C12.6997 16.485 13.4146 15.9846 14.157 15.5273Z" fill="#FDFDFE"/>
<path fill-rule="evenodd" clip-rule="evenodd" d="M20.5047 11.3239C20.5047 12.4676 20.5047 13.6115 20.5047 14.7553C19.2179 14.7553 17.9311 14.7553 16.6444 14.7553C16.6723 15.5144 16.6438 16.2579 16.5586 16.9857C16.5586 14.6695 16.5586 12.3533 16.5586 10.0371C17.8503 10.5457 19.1657 10.9746 20.5047 11.3239Z" fill="#D1D1D1"/>
<path fill-rule="evenodd" clip-rule="evenodd" d="M20.5044 11.3232C20.6042 13.1673 20.6185 15.026 20.5473 16.8992C20.2275 19.8078 18.9264 22.1812 16.6442 24.0193C16.5727 22.705 16.5298 21.3895 16.5155 20.0733C16.3219 19.9406 16.136 19.7977 15.9579 19.6443C15.8738 19.4225 15.8452 19.1937 15.8721 18.9581C15.8863 18.3854 15.8721 17.8135 15.8292 17.2424C15.2868 17.5996 14.7578 17.9713 14.2422 18.3576C14.2422 17.4139 14.2422 16.4703 14.2422 15.5267C14.9103 15.9797 15.568 16.4515 16.2152 16.9421C16.3393 17.0535 16.4536 17.0678 16.5584 16.985C16.6436 16.2572 16.6721 15.5137 16.6442 14.7546C17.9309 14.7546 19.2177 14.7546 20.5044 14.7546C20.5044 13.6109 20.5044 12.467 20.5044 11.3232Z" fill="#C8C9C9"/>
<path fill-rule="evenodd" clip-rule="evenodd" d="M7.89423 11.3232C7.80956 12.9466 7.78099 14.5765 7.80844 16.213C7.75131 15.4128 7.72266 14.5979 7.72266 13.7681C7.72283 12.9224 7.77996 12.1075 7.89423 11.3232Z" fill="#CAD0F7"/>
<path fill-rule="evenodd" clip-rule="evenodd" d="M23.0778 13.4678C23.1625 13.88 23.1911 14.3089 23.1636 14.7545C24.3285 14.7268 25.4865 14.7554 26.6379 14.8403C26.7983 14.6929 26.9842 14.6071 27.1955 14.583C26.5377 15.0977 25.8801 15.6124 25.2224 16.1271C25.1096 16.5715 25.1096 17.029 25.2224 17.4996C25.2745 17.489 25.3031 17.4604 25.3082 17.4139C26.2566 16.6942 27.2288 16.0079 28.2249 15.355C28.2249 15.8983 28.2249 16.4417 28.2249 16.9849C27.029 17.7532 25.8853 18.5825 24.7935 19.4727C24.6747 19.5682 24.546 19.654 24.4075 19.73C24.3683 19.8368 24.4112 19.9082 24.5361 19.9445C24.4789 19.9731 24.4218 20.0017 24.3646 20.0303C23.822 20.0732 23.2787 20.0874 22.7347 20.0732C22.7201 19.9598 22.7486 19.8597 22.8205 19.7729C22.6821 19.5818 22.6249 19.3673 22.6489 19.1295C22.989 17.2592 23.132 15.3719 23.0778 13.4678Z" fill="#CACACB"/>
<path fill-rule="evenodd" clip-rule="evenodd" d="M28.2255 13.8975C28.3373 14.375 28.3373 14.8612 28.2255 15.3558C27.2294 16.0087 26.2572 16.695 25.3088 17.4146C25.2241 17.0024 25.1955 16.5735 25.223 16.1279C25.8807 15.6131 26.5383 15.0984 27.1961 14.5837C27.561 14.3908 27.9041 14.1621 28.2255 13.8975Z" fill="#475DE7"/>
<path fill-rule="evenodd" clip-rule="evenodd" d="M25.2223 16.127C25.1948 16.5726 25.2234 17.0015 25.3081 17.4137C25.3029 17.4603 25.2744 17.4889 25.2223 17.4995C25.1095 17.0289 25.1095 16.5713 25.2223 16.127Z" fill="#6778E1"/>
<path fill-rule="evenodd" clip-rule="evenodd" d="M28.2252 16.9854C28.0815 20.845 26.809 24.2763 24.4078 27.2795C22.4465 29.6519 20.1445 31.6106 17.5021 33.1557C16.4113 33.8155 15.2961 34.4303 14.1565 35.0001C10.1061 33.1381 6.63187 30.5074 3.73373 27.1079C1.442 24.1653 0.226681 20.8197 0.0878906 17.0711C1.23574 17.7385 2.33664 18.482 3.39059 19.3015C3.9928 21.8215 5.13656 24.0519 6.82197 25.9927C8.99566 28.2754 11.4691 30.0768 14.2423 31.3971C17.3908 29.7861 20.093 27.6129 22.3489 24.8775C23.5822 23.2686 24.3971 21.4672 24.7938 19.4731C25.8856 18.5829 27.0293 17.7536 28.2252 16.9854Z" fill="#455CE8"/>
<path fill-rule="evenodd" clip-rule="evenodd" d="M14.1567 18.3584C13.632 18.7786 13.0886 19.179 12.5268 19.5593C12.4325 18.7869 12.4325 18.0149 12.5268 17.2432C13.0577 17.6369 13.601 18.0087 14.1567 18.3584Z" fill="#303973"/>
<path fill-rule="evenodd" clip-rule="evenodd" d="M22.6491 19.1299C22.625 19.3677 22.6823 19.5821 22.8206 19.7733C22.7488 19.86 22.7203 19.9601 22.7348 20.0735C23.2789 20.0878 23.8222 20.0735 24.3647 20.0306C24.422 20.0021 24.4791 19.9734 24.5363 19.9448C24.4114 19.9085 24.3685 19.8371 24.4076 19.7304C24.5462 19.6544 24.6749 19.5686 24.7937 19.473C24.397 21.4671 23.582 23.2686 22.3488 24.8774C20.0929 27.6129 17.3906 29.786 14.2422 31.3971C14.2422 30.5392 14.2422 29.6814 14.2422 28.8235C14.2422 28.795 14.2422 28.7663 14.2422 28.7377C15.3272 28.0806 16.3852 27.3801 17.4162 26.636C19.9961 24.7023 21.7403 22.2003 22.6491 19.1299Z" fill="#BDBDBE"/>
<defs>
<clipPath id="clip0_581_590">
<rect width="80" height="27" fill="white" transform="translate(36.3105 4)"/>
</clipPath>
</defs>
</svg>
