<svg width="0" height="0" class="hidden">
  <symbol fill="none" xmlns="http://www.w3.org/2000/svg" viewBox="0 0 157 32" id="Group2550">
    <path d="M47.456 25.168C45.872 25.168 44.416 24.8 43.088 24.064C41.776 23.328 40.728 22.304 39.944 20.992C39.176 19.664 38.792 18.176 38.792 16.528C38.792 14.88 39.176 13.4 39.944 12.088C40.728 10.776 41.776 9.752 43.088 9.016C44.416 8.28 45.872 7.912 47.456 7.912C49.04 7.912 50.488 8.28 51.8 9.016C53.128 9.752 54.168 10.776 54.92 12.088C55.688 13.4 56.072 14.88 56.072 16.528C56.072 18.176 55.688 19.664 54.92 20.992C54.152 22.304 53.112 23.328 51.8 24.064C50.488 24.8 49.04 25.168 47.456 25.168ZM47.456 21.424C48.8 21.424 49.872 20.976 50.672 20.08C51.488 19.184 51.896 18 51.896 16.528C51.896 15.04 51.488 13.856 50.672 12.976C49.872 12.08 48.8 11.632 47.456 11.632C46.096 11.632 45.008 12.072 44.192 12.952C43.392 13.832 42.992 15.024 42.992 16.528C42.992 18.016 43.392 19.208 44.192 20.104C45.008 20.984 46.096 21.424 47.456 21.424ZM81.6592 8.152L77.2672 25H72.2992L69.6112 13.912L66.8272 25H61.8592L57.5872 8.152H61.9792L64.4032 20.416L67.4032 8.152H71.9152L74.7952 20.416L77.2432 8.152H81.6592ZM95.9574 8.152V11.44H91.4934V25H87.3894V11.44H82.9254V8.152H95.9574ZM112.729 8.152V25H108.625V18.064H102.241V25H98.1371V8.152H102.241V14.752H108.625V8.152H112.729ZM119.916 11.44V14.848H125.412V18.016H119.916V21.712H126.132V25H115.812V8.152H126.132V11.44H119.916ZM135.012 25.168C133.78 25.168 132.676 24.968 131.7 24.568C130.724 24.168 129.94 23.576 129.348 22.792C128.772 22.008 128.468 21.064 128.436 19.96H132.804C132.868 20.584 133.084 21.064 133.452 21.4C133.82 21.72 134.3 21.88 134.892 21.88C135.5 21.88 135.98 21.744 136.332 21.472C136.684 21.184 136.86 20.792 136.86 20.296C136.86 19.88 136.716 19.536 136.428 19.264C136.156 18.992 135.812 18.768 135.396 18.592C134.996 18.416 134.42 18.216 133.668 17.992C132.58 17.656 131.692 17.32 131.004 16.984C130.316 16.648 129.724 16.152 129.228 15.496C128.732 14.84 128.484 13.984 128.484 12.928C128.484 11.36 129.052 10.136 130.188 9.256C131.324 8.36 132.804 7.912 134.628 7.912C136.484 7.912 137.98 8.36 139.116 9.256C140.252 10.136 140.86 11.368 140.94 12.952H136.5C136.468 12.408 136.268 11.984 135.9 11.68C135.532 11.36 135.06 11.2 134.484 11.2C133.988 11.2 133.588 11.336 133.284 11.608C132.98 11.864 132.828 12.24 132.828 12.736C132.828 13.28 133.084 13.704 133.596 14.008C134.108 14.312 134.908 14.64 135.996 14.992C137.084 15.36 137.964 15.712 138.636 16.048C139.324 16.384 139.916 16.872 140.412 17.512C140.908 18.152 141.156 18.976 141.156 19.984C141.156 20.944 140.908 21.816 140.412 22.6C139.932 23.384 139.228 24.008 138.3 24.472C137.372 24.936 136.276 25.168 135.012 25.168ZM155.922 8.152V11.44H151.458V25H147.354V11.44H142.89V8.152H155.922Z" fill="black"></path>
    <path d="M15.3992 26.4295C15.3993 26.6562 15.4604 26.8792 15.5767 27.0773C15.6929 27.2753 15.8604 27.4418 16.0634 27.561C16.2663 27.6802 16.4979 27.7482 16.7362 27.7584C16.9745 27.7686 17.2116 27.7207 17.425 27.6193L23.025 24.9574C23.2575 24.847 23.4531 24.6771 23.5898 24.467C23.7266 24.2568 23.7991 24.0147 23.7992 23.7675V16.0959C23.7991 15.8691 23.738 15.6461 23.6218 15.4481C23.5055 15.2501 23.338 15.0835 23.1351 14.9643C22.9321 14.8451 22.7005 14.7772 22.4622 14.767C22.2239 14.7568 21.9868 14.8047 21.7734 14.906L16.1734 17.5679C15.9409 17.6784 15.7453 17.8482 15.6086 18.0584C15.4719 18.2685 15.3994 18.5107 15.3992 18.7578V26.4295ZM21.2946 12.1563C21.5269 12.0456 21.7221 11.8757 21.8586 11.6656C21.9951 11.4555 22.0673 11.2134 22.0673 10.9664C22.0673 10.7194 21.9951 10.4774 21.8586 10.2672C21.7221 10.0571 21.5269 9.88718 21.2946 9.77653L14.625 6.60619C14.4307 6.51388 14.2164 6.46582 13.9992 6.46582C13.782 6.46582 13.5677 6.51388 13.3734 6.60619L6.70382 9.77653C6.47158 9.88718 6.27631 10.0571 6.13985 10.2672C6.00339 10.4774 5.93111 10.7194 5.93111 10.9664C5.93111 11.2134 6.00339 11.4555 6.13985 11.6656C6.27631 11.8757 6.47158 12.0456 6.70382 12.1563L13.3734 15.3266C13.5677 15.4189 13.782 15.467 13.9992 15.467C14.2164 15.467 14.4307 15.4189 14.625 15.3266L21.2946 12.1563V12.1563ZM6.22502 14.906C6.01163 14.8047 5.77453 14.7568 5.53623 14.767C5.29792 14.7772 5.06631 14.8451 4.86337 14.9643C4.66043 15.0835 4.4929 15.2501 4.37666 15.4481C4.26043 15.6461 4.19935 15.8691 4.19922 16.0959V23.7675C4.19936 24.0147 4.27186 24.2568 4.40859 24.467C4.54533 24.6771 4.74091 24.847 4.97342 24.9574L10.5734 27.6193C10.7868 27.7207 11.0239 27.7686 11.2622 27.7584C11.5005 27.7482 11.7321 27.6802 11.9351 27.561C12.138 27.4418 12.3055 27.2753 12.4218 27.0773C12.538 26.8792 12.5991 26.6562 12.5992 26.4295V18.7578C12.5991 18.5107 12.5266 18.2685 12.3898 18.0584C12.2531 17.8482 12.0575 17.6784 11.825 17.5679L6.22502 14.906V14.906Z" fill="black"></path>
  </symbol>
  <symbol fill="none" xmlns="http://www.w3.org/2000/svg" viewBox="0 0 156 32" id="Group2549">
    <path d="M45.8 8.152C47.576 8.152 49.128 8.504 50.456 9.208C51.784 9.912 52.808 10.904 53.528 12.184C54.264 13.448 54.632 14.912 54.632 16.576C54.632 18.224 54.264 19.688 53.528 20.968C52.808 22.248 51.776 23.24 50.432 23.944C49.104 24.648 47.56 25 45.8 25H39.488V8.152H45.8ZM45.536 21.448C47.088 21.448 48.296 21.024 49.16 20.176C50.024 19.328 50.456 18.128 50.456 16.576C50.456 15.024 50.024 13.816 49.16 12.952C48.296 12.088 47.088 11.656 45.536 11.656H43.592V21.448H45.536ZM61.1495 8.152V25H57.0455V8.152H61.1495ZM76.3636 8.152V11.44H71.8996V25H67.7956V11.44H63.3316V8.152H76.3636ZM82.6473 21.832H88.0233V25H78.5433V8.152H82.6473V21.832ZM100.589 22.024H94.3008L93.2928 25H88.9968L95.0928 8.152H99.8448L105.941 25H101.597L100.589 22.024ZM99.5328 18.856L97.4448 12.688L95.3808 18.856H99.5328ZM122.988 25H118.884L112.02 14.608V25H107.916V8.152H112.02L118.884 18.592V8.152H122.988V25ZM125.387 16.552C125.387 14.888 125.747 13.408 126.467 12.112C127.187 10.8 128.187 9.784 129.467 9.064C130.763 8.328 132.227 7.96 133.859 7.96C135.859 7.96 137.571 8.488 138.995 9.544C140.419 10.6 141.371 12.04 141.851 13.864H137.339C137.003 13.16 136.523 12.624 135.899 12.256C135.291 11.888 134.595 11.704 133.811 11.704C132.547 11.704 131.523 12.144 130.739 13.024C129.955 13.904 129.563 15.08 129.563 16.552C129.563 18.024 129.955 19.2 130.739 20.08C131.523 20.96 132.547 21.4 133.811 21.4C134.595 21.4 135.291 21.216 135.899 20.848C136.523 20.48 137.003 19.944 137.339 19.24H141.851C141.371 21.064 140.419 22.504 138.995 23.56C137.571 24.6 135.859 25.12 133.859 25.12C132.227 25.12 130.763 24.76 129.467 24.04C128.187 23.304 127.187 22.288 126.467 20.992C125.747 19.696 125.387 18.216 125.387 16.552ZM148.588 11.44V14.848H154.084V18.016H148.588V21.712H154.804V25H144.484V8.152H154.804V11.44H148.588Z" fill="black"></path>
    <path fill-rule="evenodd" clip-rule="evenodd" d="M5.60078 5.45898C4.85818 5.45898 4.14598 5.73663 3.62088 6.23084C3.09578 6.72506 2.80078 7.39536 2.80078 8.09428V22.5884C2.80078 23.6368 3.24328 24.6422 4.03093 25.3835C4.81859 26.1249 5.88687 26.5413 7.00078 26.5413C8.11469 26.5413 9.18298 26.1249 9.97063 25.3835C10.7583 24.6422 11.2008 23.6368 11.2008 22.5884V8.09428C11.2008 7.39536 10.9058 6.72506 10.3807 6.23084C9.85558 5.73663 9.14339 5.45898 8.40078 5.45898H5.60078ZM7.00078 23.906C7.37208 23.906 7.72818 23.7672 7.99073 23.5201C8.25328 23.273 8.40078 22.9379 8.40078 22.5884C8.40078 22.2389 8.25328 21.9038 7.99073 21.6567C7.72818 21.4096 7.37208 21.2707 7.00078 21.2707C6.62948 21.2707 6.27338 21.4096 6.01083 21.6567C5.74828 21.9038 5.60078 22.2389 5.60078 22.5884C5.60078 22.9379 5.74828 23.273 6.01083 23.5201C6.27338 23.7672 6.62948 23.906 7.00078 23.906ZM14.0008 21.5909L20.8608 15.1345C21.3857 14.6403 21.6806 13.9701 21.6806 13.2713C21.6806 12.5725 21.3857 11.9024 20.8608 11.4082L18.8798 9.54369C18.3547 9.04965 17.6426 8.77211 16.9002 8.77211C16.1577 8.77211 15.4457 9.04965 14.9206 9.54369L14.0008 10.4094V21.5909ZM22.4008 26.5413H12.7002L21.1002 18.6355H22.4008C23.1434 18.6355 23.8556 18.9131 24.3807 19.4073C24.9058 19.9015 25.2008 20.5718 25.2008 21.2707V23.906C25.2008 24.605 24.9058 25.2753 24.3807 25.7695C23.8556 26.2637 23.1434 26.5413 22.4008 26.5413V26.5413Z" fill="black"></path>
  </symbol>
  <symbol fill="none" xmlns="http://www.w3.org/2000/svg" viewBox="0 0 120 32" id="Group2553">
    <path d="M43.592 21.832H48.968V25H39.488V8.152H43.592V21.832ZM59.0135 25.168C57.4295 25.168 55.9735 24.8 54.6455 24.064C53.3335 23.328 52.2855 22.304 51.5015 20.992C50.7335 19.664 50.3495 18.176 50.3495 16.528C50.3495 14.88 50.7335 13.4 51.5015 12.088C52.2855 10.776 53.3335 9.752 54.6455 9.016C55.9735 8.28 57.4295 7.912 59.0135 7.912C60.5975 7.912 62.0455 8.28 63.3575 9.016C64.6855 9.752 65.7255 10.776 66.4775 12.088C67.2455 13.4 67.6295 14.88 67.6295 16.528C67.6295 18.176 67.2455 19.664 66.4775 20.992C65.7095 22.304 64.6695 23.328 63.3575 24.064C62.0455 24.8 60.5975 25.168 59.0135 25.168ZM59.0135 21.424C60.3575 21.424 61.4295 20.976 62.2295 20.08C63.0455 19.184 63.4535 18 63.4535 16.528C63.4535 15.04 63.0455 13.856 62.2295 12.976C61.4295 12.08 60.3575 11.632 59.0135 11.632C57.6535 11.632 56.5655 12.072 55.7495 12.952C54.9495 13.832 54.5495 15.024 54.5495 16.528C54.5495 18.016 54.9495 19.208 55.7495 20.104C56.5655 20.984 57.6535 21.424 59.0135 21.424ZM78.6247 25L75.1207 18.64H74.1367V25H70.0327V8.152H76.9207C78.2487 8.152 79.3767 8.384 80.3047 8.848C81.2487 9.312 81.9527 9.952 82.4167 10.768C82.8807 11.568 83.1127 12.464 83.1127 13.456C83.1127 14.576 82.7927 15.576 82.1527 16.456C81.5287 17.336 80.6007 17.96 79.3687 18.328L83.2567 25H78.6247ZM74.1367 15.736H76.6807C77.4327 15.736 77.9927 15.552 78.3607 15.184C78.7447 14.816 78.9367 14.296 78.9367 13.624C78.9367 12.984 78.7447 12.48 78.3607 12.112C77.9927 11.744 77.4327 11.56 76.6807 11.56H74.1367V15.736ZM89.9129 11.44V14.848H95.4089V18.016H89.9129V21.712H96.1289V25H85.8089V8.152H96.1289V11.44H89.9129ZM117.993 8.152V25H113.889V14.896L110.121 25H106.809L103.017 14.872V25H98.9133V8.152H103.761L108.489 19.816L113.169 8.152H117.993Z" fill="black"></path>
    <path d="M11.8 22.8159C11.8 23.5723 11.5471 24.2978 11.0971 24.8326C10.647 25.3675 10.0365 25.668 9.4 25.668C8.76348 25.668 8.15303 25.3675 7.70294 24.8326C7.25286 24.2978 7 23.5723 7 22.8159C7 22.0595 7.25286 21.3341 7.70294 20.7992C8.15303 20.2643 8.76348 19.9639 9.4 19.9639C10.0365 19.9639 10.647 20.2643 11.0971 20.7992C11.5471 21.3341 11.8 22.0595 11.8 22.8159ZM23 22.8159C23 23.5723 22.7471 24.2978 22.2971 24.8326C21.847 25.3675 21.2365 25.668 20.6 25.668C19.9635 25.668 19.353 25.3675 18.9029 24.8326C18.4529 24.2978 18.2 23.5723 18.2 22.8159C18.2 22.0595 18.4529 21.3341 18.9029 20.7992C19.353 20.2643 19.9635 19.9639 20.6 19.9639C21.2365 19.9639 21.847 20.2643 22.2971 20.7992C22.7471 21.3341 23 22.0595 23 22.8159Z" fill="black"></path>
    <path d="M4.4 7.60547C4.0287 7.60547 3.6726 7.74569 3.41005 7.9953C3.1475 8.2449 3 8.58343 3 8.93643V22.246C3 22.599 3.1475 22.9375 3.41005 23.1871C3.6726 23.4367 4.0287 23.5769 4.4 23.5769H5.87C6.03066 22.8248 6.45991 22.1485 7.08502 21.6628C7.71013 21.177 8.49265 20.9117 9.3 20.9117C10.1073 20.9117 10.8899 21.177 11.515 21.6628C12.1401 22.1485 12.5693 22.8248 12.73 23.5769H14.2C14.5713 23.5769 14.9274 23.4367 15.1899 23.1871C15.4525 22.9375 15.6 22.599 15.6 22.246V8.93643C15.6 8.58343 15.4525 8.2449 15.1899 7.9953C14.9274 7.74569 14.5713 7.60547 14.2 7.60547H4.4ZM19.8 11.5983C19.4287 11.5983 19.0726 11.7386 18.8101 11.9882C18.5475 12.2378 18.4 12.5763 18.4 12.9293V20.9816C18.8504 20.8941 19.3146 20.8918 19.766 20.9749C20.2173 21.058 20.647 21.2249 21.0306 21.4659C21.4141 21.7069 21.7439 22.0174 22.0012 22.3796C22.2585 22.7418 22.4382 23.1487 22.53 23.5769H24C24.3713 23.5769 24.7274 23.4367 24.99 23.1871C25.2525 22.9375 25.4 22.599 25.4 22.246L25.1992 15.5912C25.1991 15.2383 25.1992 11.7885 25.1992 11.7885H22.1992C22.1992 11.7885 21.5713 11.5984 21.2 11.5983H19.8Z" fill="black"></path>
  </symbol>
  <symbol fill="none" xmlns="http://www.w3.org/2000/svg" viewBox="0 0 127 32" id="Group2552">
    <path d="M43.456 25.168C41.872 25.168 40.416 24.8 39.088 24.064C37.776 23.328 36.728 22.304 35.944 20.992C35.176 19.664 34.792 18.176 34.792 16.528C34.792 14.88 35.176 13.4 35.944 12.088C36.728 10.776 37.776 9.752 39.088 9.016C40.416 8.28 41.872 7.912 43.456 7.912C45.04 7.912 46.488 8.28 47.8 9.016C49.128 9.752 50.168 10.776 50.92 12.088C51.688 13.4 52.072 14.88 52.072 16.528C52.072 18.176 51.688 19.664 50.92 20.992C50.152 22.304 49.112 23.328 47.8 24.064C46.488 24.8 45.04 25.168 43.456 25.168ZM43.456 21.424C44.8 21.424 45.872 20.976 46.672 20.08C47.488 19.184 47.896 18 47.896 16.528C47.896 15.04 47.488 13.856 46.672 12.976C45.872 12.08 44.8 11.632 43.456 11.632C42.096 11.632 41.008 12.072 40.192 12.952C39.392 13.832 38.992 15.024 38.992 16.528C38.992 18.016 39.392 19.208 40.192 20.104C41.008 20.984 42.096 21.424 43.456 21.424ZM69.5472 25H65.4432L58.5792 14.608V25H54.4752V8.152H58.5792L65.4432 18.592V8.152H69.5472V25ZM83.1301 22.024H76.8421L75.8341 25H71.5381L77.6341 8.152H82.3861L88.4821 25H84.1381L83.1301 22.024ZM82.0741 18.856L79.9861 12.688L77.9221 18.856H82.0741ZM101.641 13.48C101.337 12.92 100.897 12.496 100.321 12.208C99.7614 11.904 99.0974 11.752 98.3294 11.752C97.0014 11.752 95.9374 12.192 95.1374 13.072C94.3374 13.936 93.9374 15.096 93.9374 16.552C93.9374 18.104 94.3534 19.32 95.1854 20.2C96.0334 21.064 97.1934 21.496 98.6654 21.496C99.6734 21.496 100.521 21.24 101.209 20.728C101.913 20.216 102.425 19.48 102.745 18.52H97.5374V15.496H106.465V19.312C106.161 20.336 105.641 21.288 104.905 22.168C104.185 23.048 103.265 23.76 102.145 24.304C101.025 24.848 99.7614 25.12 98.3534 25.12C96.6894 25.12 95.2014 24.76 93.8894 24.04C92.5934 23.304 91.5774 22.288 90.8414 20.992C90.1214 19.696 89.7614 18.216 89.7614 16.552C89.7614 14.888 90.1214 13.408 90.8414 12.112C91.5774 10.8 92.5934 9.784 93.8894 9.064C95.1854 8.328 96.6654 7.96 98.3294 7.96C100.345 7.96 102.041 8.448 103.417 9.424C104.809 10.4 105.729 11.752 106.177 13.48H101.641ZM116.827 25.168C115.243 25.168 113.787 24.8 112.459 24.064C111.147 23.328 110.099 22.304 109.315 20.992C108.547 19.664 108.163 18.176 108.163 16.528C108.163 14.88 108.547 13.4 109.315 12.088C110.099 10.776 111.147 9.752 112.459 9.016C113.787 8.28 115.243 7.912 116.827 7.912C118.411 7.912 119.859 8.28 121.171 9.016C122.499 9.752 123.539 10.776 124.291 12.088C125.059 13.4 125.443 14.88 125.443 16.528C125.443 18.176 125.059 19.664 124.291 20.992C123.523 22.304 122.483 23.328 121.171 24.064C119.859 24.8 118.411 25.168 116.827 25.168ZM116.827 21.424C118.171 21.424 119.243 20.976 120.043 20.08C120.859 19.184 121.267 18 121.267 16.528C121.267 15.04 120.859 13.856 120.043 12.976C119.243 12.08 118.171 11.632 116.827 11.632C115.467 11.632 114.379 12.072 113.563 12.952C112.763 13.832 112.363 15.024 112.363 16.528C112.363 18.016 112.763 19.208 113.563 20.104C114.379 20.984 115.467 21.424 116.827 21.424Z" fill="black"></path>
    <path fill-rule="evenodd" clip-rule="evenodd" d="M15.8198 5.19512C16.104 5.28009 16.3523 5.44904 16.5286 5.6774C16.7048 5.90576 16.7999 6.18161 16.7998 6.46485V13.1196H22.3998C22.6559 13.1195 22.9071 13.1862 23.1261 13.3124C23.3451 13.4386 23.5235 13.6195 23.6419 13.8353C23.7603 14.0512 23.8141 14.2938 23.7975 14.5368C23.7809 14.7797 23.6946 15.0137 23.5478 15.2132L13.7478 28.5228C13.5773 28.7551 13.3332 28.9296 13.0511 29.0209C12.769 29.1122 12.4637 29.1156 12.1794 29.0305C11.8952 28.9455 11.6469 28.7764 11.4707 28.5479C11.2946 28.3194 11.1997 28.0435 11.1998 27.7602V21.1054H5.59984C5.34376 21.1055 5.09254 21.0388 4.87355 20.9126C4.65455 20.7864 4.47615 20.6055 4.35778 20.3897C4.2394 20.1738 4.18557 19.9312 4.20216 19.6882C4.21874 19.4453 4.3051 19.2113 4.45184 19.0118L14.2518 5.70221C14.4227 5.47034 14.6668 5.29629 14.9488 5.20533C15.2307 5.11438 15.5359 5.11127 15.8198 5.19645V5.19512Z" fill="black"></path>
  </symbol>
  <symbol fill="none" xmlns="http://www.w3.org/2000/svg" viewBox="0 0 146 32" id="Group2551">
    <path d="M54.56 25H50.456L43.592 14.608V25H39.488V8.152H43.592L50.456 18.592V8.152H54.56V25ZM61.7589 11.44V14.848H67.2549V18.016H61.7589V21.712H67.9749V25H57.6549V8.152H67.9749V11.44H61.7589ZM78.7273 25.168C77.1433 25.168 75.6873 24.8 74.3593 24.064C73.0473 23.328 71.9992 22.304 71.2152 20.992C70.4472 19.664 70.0632 18.176 70.0632 16.528C70.0632 14.88 70.4472 13.4 71.2152 12.088C71.9992 10.776 73.0473 9.752 74.3593 9.016C75.6873 8.28 77.1433 7.912 78.7273 7.912C80.3113 7.912 81.7593 8.28 83.0713 9.016C84.3993 9.752 85.4393 10.776 86.1913 12.088C86.9593 13.4 87.3433 14.88 87.3433 16.528C87.3433 18.176 86.9593 19.664 86.1913 20.992C85.4233 22.304 84.3833 23.328 83.0713 24.064C81.7593 24.8 80.3113 25.168 78.7273 25.168ZM78.7273 21.424C80.0713 21.424 81.1432 20.976 81.9432 20.08C82.7593 19.184 83.1673 18 83.1673 16.528C83.1673 15.04 82.7593 13.856 81.9432 12.976C81.1432 12.08 80.0713 11.632 78.7273 11.632C77.3673 11.632 76.2793 12.072 75.4633 12.952C74.6632 13.832 74.2632 15.024 74.2632 16.528C74.2632 18.016 74.6632 19.208 75.4633 20.104C76.2793 20.984 77.3673 21.424 78.7273 21.424ZM105.562 8.152L99.5864 25H94.4504L88.4744 8.152H92.8424L97.0184 20.872L101.218 8.152H105.562ZM117.886 22.024H111.598L110.59 25H106.294L112.39 8.152H117.142L123.238 25H118.894L117.886 22.024ZM116.83 18.856L114.742 12.688L112.678 18.856H116.83ZM131.309 25.168C130.077 25.168 128.973 24.968 127.997 24.568C127.021 24.168 126.237 23.576 125.645 22.792C125.069 22.008 124.765 21.064 124.733 19.96H129.101C129.165 20.584 129.381 21.064 129.749 21.4C130.117 21.72 130.597 21.88 131.189 21.88C131.797 21.88 132.277 21.744 132.629 21.472C132.981 21.184 133.157 20.792 133.157 20.296C133.157 19.88 133.013 19.536 132.725 19.264C132.453 18.992 132.109 18.768 131.693 18.592C131.293 18.416 130.717 18.216 129.965 17.992C128.877 17.656 127.989 17.32 127.301 16.984C126.613 16.648 126.021 16.152 125.525 15.496C125.029 14.84 124.781 13.984 124.781 12.928C124.781 11.36 125.349 10.136 126.485 9.256C127.621 8.36 129.101 7.912 130.925 7.912C132.781 7.912 134.277 8.36 135.413 9.256C136.549 10.136 137.157 11.368 137.237 12.952H132.797C132.765 12.408 132.565 11.984 132.197 11.68C131.829 11.36 131.357 11.2 130.781 11.2C130.285 11.2 129.885 11.336 129.581 11.608C129.277 11.864 129.125 12.24 129.125 12.736C129.125 13.28 129.381 13.704 129.893 14.008C130.405 14.312 131.205 14.64 132.293 14.992C133.381 15.36 134.261 15.712 134.933 16.048C135.621 16.384 136.213 16.872 136.709 17.512C137.205 18.152 137.453 18.976 137.453 19.984C137.453 20.944 137.205 21.816 136.709 22.6C136.229 23.384 135.525 24.008 134.597 24.472C133.669 24.936 132.573 25.168 131.309 25.168ZM144.203 8.152V25H140.099V8.152H144.203Z" fill="black"></path>
    <path fill-rule="evenodd" clip-rule="evenodd" d="M14.0008 27.7601C16.9712 27.7601 19.82 26.6383 21.9204 24.6415C24.0208 22.6447 25.2008 19.9364 25.2008 17.1125C25.2008 14.2886 24.0208 11.5803 21.9204 9.58347C19.82 7.58665 16.9712 6.46484 14.0008 6.46484C11.0304 6.46484 8.18159 7.58665 6.08119 9.58347C3.98078 11.5803 2.80078 14.2886 2.80078 17.1125C2.80078 19.9364 3.98078 22.6447 6.08119 24.6415C8.18159 26.6383 11.0304 27.7601 14.0008 27.7601V27.7601ZM6.06558 14.4865C6.58539 13.0713 7.51288 11.8234 8.74238 10.885C9.11758 11.4293 9.76438 11.7887 10.5008 11.7887C11.0577 11.7887 11.5919 11.999 11.9857 12.3734C12.3795 12.7478 12.6008 13.2556 12.6008 13.7851V14.4506C12.6008 15.1566 12.8958 15.8336 13.4209 16.3328C13.946 16.832 14.6582 17.1125 15.4008 17.1125C16.1434 17.1125 16.8556 16.832 17.3807 16.3328C17.9058 15.8336 18.2008 15.1566 18.2008 14.4506C18.2006 13.8549 18.4105 13.2763 18.7971 12.8075C19.1836 12.3386 19.7245 12.0066 20.333 11.8645C21.669 13.3175 22.4039 15.1826 22.4008 17.1125C22.4008 17.565 22.3616 18.0109 22.2846 18.4435H21.0008C20.2582 18.4435 19.546 18.7239 19.0209 19.2231C18.4958 19.7223 18.2008 20.3994 18.2008 21.1054V24.0295C16.9244 24.7316 15.4754 25.1003 14.0008 25.0982V22.4363C14.0008 21.7303 13.7058 21.0533 13.1807 20.5541C12.6556 20.0549 11.9434 19.7744 11.2008 19.7744C10.4582 19.7744 9.74598 19.494 9.22088 18.9948C8.69578 18.4955 8.40078 17.8185 8.40078 17.1125C8.40103 16.483 8.16657 15.8737 7.73904 15.3929C7.31152 14.9122 6.7186 14.591 6.06558 14.4865V14.4865Z" fill="black"></path>
  </symbol>
</svg>