<svg width="24" height="24" viewBox="0 0 24 24" fill="none" xmlns="http://www.w3.org/2000/svg">
<path d="M9.25677 7.17676C11.5668 7.06776 14.7348 6.80176 15.8078 6.78776C16.8328 6.77476 17.9428 6.64076 18.9058 7.07376C22.2088 8.56076 20.8158 14.5357 18.5328 16.3097C16.9418 17.5457 14.3978 17.6377 12.4668 17.5877C10.6748 17.5427 8.51277 17.3377 7.00477 16.2637C4.40577 14.4127 5.76377 9.36876 5.67877 5.91976C5.72977 3.98976 3.63477 3.67676 3.63477 3.67676" stroke="white" stroke-width="1.5" stroke-linecap="round" stroke-linejoin="round"/>
<path d="M13.1348 11H15.9078" stroke="white" stroke-width="1.5" stroke-linecap="round" stroke-linejoin="round"/>
<path fill-rule="evenodd" clip-rule="evenodd" d="M7.39852 20.3037C7.69852 20.3037 7.94252 20.5477 7.94252 20.8477C7.94252 21.1487 7.69852 21.3927 7.39852 21.3927C7.09752 21.3927 6.85352 21.1487 6.85352 20.8477C6.85352 20.5477 7.09752 20.3037 7.39852 20.3037Z" fill="white"/>
<path fill-rule="evenodd" clip-rule="evenodd" d="M7.39852 20.3037C7.69852 20.3037 7.94252 20.5477 7.94252 20.8477C7.94252 21.1487 7.69852 21.3927 7.39852 21.3927C7.09752 21.3927 6.85352 21.1487 6.85352 20.8477C6.85352 20.5477 7.09752 20.3037 7.39852 20.3037Z" stroke="white" stroke-width="1.5" stroke-linecap="round" stroke-linejoin="round"/>
<path fill-rule="evenodd" clip-rule="evenodd" d="M17.7295 20.3037C18.0305 20.3037 18.2745 20.5477 18.2745 20.8477C18.2745 21.1487 18.0305 21.3927 17.7295 21.3927C17.4295 21.3927 17.1855 21.1487 17.1855 20.8477C17.1855 20.5477 17.4295 20.3037 17.7295 20.3037Z" fill="white"/>
<path fill-rule="evenodd" clip-rule="evenodd" d="M17.7295 20.3037C18.0305 20.3037 18.2745 20.5477 18.2745 20.8477C18.2745 21.1487 18.0305 21.3927 17.7295 21.3927C17.4295 21.3927 17.1855 21.1487 17.1855 20.8477C17.1855 20.5477 17.4295 20.3037 17.7295 20.3037Z" stroke="white" stroke-width="1.5" stroke-linecap="round" stroke-linejoin="round"/>
</svg>
