<svg width="0" height="0" className="hidden">
  <symbol fill="none" xmlns="http://www.w3.org/2000/svg" viewBox="0 0 25 24" id="bell">
    <path d="M6.98983 8.96942C7.30418 6.14032 9.69548 4 12.542 4V4C15.3885 4 17.7798 6.14032 18.0941 8.96942L18.346 11.2356C18.3492 11.2645 18.3508 11.279 18.3524 11.2933C18.4814 12.4169 18.8471 13.5005 19.4255 14.4725C19.4329 14.4849 19.4404 14.4973 19.4553 14.5222L20.0334 15.4856C20.5579 16.3599 20.8202 16.797 20.7636 17.1559C20.7259 17.3946 20.603 17.6117 20.4177 17.7668C20.1391 18 19.6293 18 18.6098 18H6.47422C5.45468 18 4.9449 18 4.66633 17.7668C4.48097 17.6117 4.35808 17.3946 4.3204 17.1559C4.26378 16.797 4.52606 16.3599 5.05061 15.4856L5.62865 14.5222C5.6436 14.4973 5.65108 14.4849 5.65844 14.4725C6.23687 13.5005 6.60263 12.4169 6.73158 11.2933C6.73322 11.279 6.73482 11.2645 6.73803 11.2356L6.98983 8.96942Z" stroke="#222222"></path>
    <path d="M9.64421 18.4059C9.81514 19.1501 10.1918 19.8077 10.7157 20.2767C11.2396 20.7458 11.8816 21 12.542 21C13.2024 21 13.8443 20.7458 14.3683 20.2767C14.8922 19.8077 15.2688 19.1501 15.4398 18.4059" stroke="#222222" stroke-linecap="round"></path>
  </symbol>
  <symbol fill="none" xmlns="http://www.w3.org/2000/svg" viewBox="0 0 25 24" id="search">
    <circle cx="11.5078" cy="11" r="6" stroke="#222222"></circle>
    <path d="M11.5078 8C11.1138 8 10.7237 8.0776 10.3598 8.22836C9.99579 8.37913 9.66507 8.6001 9.38649 8.87868C9.10792 9.15726 8.88694 9.48797 8.73617 9.85195C8.58541 10.2159 8.50781 10.606 8.50781 11" stroke="#222222" stroke-linecap="round"></path>
    <path d="M20.5078 20L17.5078 17" stroke="#222222" stroke-linecap="round"></path>
  </symbol>
</svg>