<svg width="0" height="0" className="hidden">
  <symbol fill="none" xmlns="http://www.w3.org/2000/svg" viewBox="0 0 20 20" id="ic11">
    <path d="M10.2791 1.66012L11.937 4.97599C12.1765 5.45768 12.5295 5.8739 12.9656 6.18873C13.4018 6.50356 13.9079 6.70757 14.4405 6.78314L18.088 7.31368L15.4021 9.88347C15.0187 10.2595 14.7324 10.7231 14.5678 11.2342C14.4032 11.7454 14.3652 12.2889 14.4571 12.818L15.0871 16.4489L11.7712 14.791C11.2957 14.5412 10.7665 14.4107 10.2294 14.4107C9.69219 14.4107 9.16306 14.5412 8.68749 14.791L5.37162 16.4489L6.00164 12.8014C6.10341 12.2829 6.07978 11.7475 5.9327 11.2399C5.78562 10.7323 5.51935 10.2673 5.15609 9.88347L2.50339 7.31368L6.15085 6.78314C6.67751 6.70254 7.17699 6.49622 7.607 6.18164C8.03701 5.86707 8.38488 5.45352 8.62117 4.97599L10.2791 1.66012ZM10.2791 0.00218842C9.9712 0.00465592 9.67006 0.0928225 9.40944 0.256808C9.14882 0.420793 8.93902 0.654117 8.80354 0.930631L7.14561 4.2465C7.02565 4.48475 6.84998 4.69054 6.63351 4.8464C6.41704 5.00226 6.16616 5.10359 5.90216 5.14178L2.23813 5.67232C1.93448 5.71917 1.64982 5.84947 1.41592 6.04869C1.18203 6.24791 1.00808 6.5082 0.913509 6.80052C0.818935 7.09284 0.807449 7.40569 0.880332 7.70416C0.953216 8.00263 1.1076 8.27498 1.32626 8.49081L3.97896 11.0772C4.16791 11.2652 4.30876 11.4959 4.38957 11.7499C4.47038 12.0039 4.48877 12.2736 4.44318 12.5362L3.82974 16.1836C3.7883 16.4237 3.80028 16.67 3.86482 16.9049C3.92937 17.1398 4.0449 17.3576 4.2032 17.5428C4.36149 17.728 4.55865 17.8761 4.78066 17.9764C5.00267 18.0768 5.24407 18.127 5.48768 18.1234C5.75419 18.1194 6.0158 18.0511 6.25033 17.9245L9.56619 16.2665C9.80187 16.1444 10.0634 16.0807 10.3288 16.0807C10.5943 16.0807 10.8558 16.1444 11.0915 16.2665L14.4074 17.9245C14.6419 18.0511 14.9035 18.1194 15.17 18.1234C15.4136 18.127 15.655 18.0768 15.877 17.9764C16.099 17.8761 16.2962 17.728 16.4545 17.5428C16.6128 17.3576 16.7283 17.1398 16.7929 16.9049C16.8574 16.67 16.8694 16.4237 16.8279 16.1836L16.2145 12.5362C16.1689 12.2736 16.1873 12.0039 16.2681 11.7499C16.3489 11.4959 16.4898 11.2652 16.6787 11.0772L19.3314 8.49081C19.5501 8.27498 19.7045 8.00263 19.7774 7.70416C19.8502 7.40569 19.8387 7.09284 19.7442 6.80052C19.6496 6.5082 19.4757 6.24791 19.2418 6.04869C19.0079 5.84947 18.7232 5.71917 18.4196 5.67232L14.7555 5.14178C14.4915 5.10359 14.2406 5.00226 14.0242 4.8464C13.8077 4.69054 13.632 4.48475 13.5121 4.2465L11.8541 0.930631C11.7115 0.638509 11.4862 0.394753 11.2062 0.229678C10.9261 0.0646033 10.6037 -0.0145062 10.2791 0.00218842Z" fill="#455CE9"></path>
  </symbol>
  <symbol fill="none" xmlns="http://www.w3.org/2000/svg" viewBox="0 0 8 10" id="ic10">
    <path d="M7.08711 1.175L5.91211 0L0.912109 5L5.91211 10L7.08711 8.825L3.27044 5L7.08711 1.175Z" fill="black"></path>
  </symbol>
  <symbol fill="none" xmlns="http://www.w3.org/2000/svg" viewBox="0 0 8 10" id="ic9">
    <path d="M2.08711 0L0.912109 1.175L4.72878 5L0.912109 8.825L2.08711 10L7.08711 5L2.08711 0Z" fill="black"></path>
  </symbol>
  <symbol fill="none" xmlns="http://www.w3.org/2000/svg" viewBox="0 0 24 24" id="ic7">
    <path d="M9.25677 7.17676C11.5668 7.06776 14.7348 6.80176 15.8078 6.78776C16.8328 6.77476 17.9428 6.64076 18.9058 7.07376C22.2088 8.56076 20.8158 14.5357 18.5328 16.3097C16.9418 17.5457 14.3978 17.6377 12.4668 17.5877C10.6748 17.5427 8.51277 17.3377 7.00477 16.2637C4.40577 14.4127 5.76377 9.36876 5.67877 5.91976C5.72977 3.98976 3.63477 3.67676 3.63477 3.67676" stroke="#0A0F1C" stroke-width="1.5" stroke-linecap="round" stroke-linejoin="round"></path>
    <path d="M13.1348 11H15.9078" stroke="#0A0F1C" stroke-width="1.5" stroke-linecap="round" stroke-linejoin="round"></path>
    <path fill-rule="evenodd" clip-rule="evenodd" d="M7.39852 20.3037C7.69852 20.3037 7.94252 20.5477 7.94252 20.8477C7.94252 21.1487 7.69852 21.3927 7.39852 21.3927C7.09752 21.3927 6.85352 21.1487 6.85352 20.8477C6.85352 20.5477 7.09752 20.3037 7.39852 20.3037Z" fill="#0A0F1C"></path>
    <path fill-rule="evenodd" clip-rule="evenodd" d="M7.39852 20.3037C7.69852 20.3037 7.94252 20.5477 7.94252 20.8477C7.94252 21.1487 7.69852 21.3927 7.39852 21.3927C7.09752 21.3927 6.85352 21.1487 6.85352 20.8477C6.85352 20.5477 7.09752 20.3037 7.39852 20.3037Z" stroke="#0A0F1C" stroke-width="1.5" stroke-linecap="round" stroke-linejoin="round"></path>
    <path fill-rule="evenodd" clip-rule="evenodd" d="M17.7295 20.3037C18.0305 20.3037 18.2745 20.5477 18.2745 20.8477C18.2745 21.1487 18.0305 21.3927 17.7295 21.3927C17.4295 21.3927 17.1855 21.1487 17.1855 20.8477C17.1855 20.5477 17.4295 20.3037 17.7295 20.3037Z" fill="#0A0F1C"></path>
    <path fill-rule="evenodd" clip-rule="evenodd" d="M17.7295 20.3037C18.0305 20.3037 18.2745 20.5477 18.2745 20.8477C18.2745 21.1487 18.0305 21.3927 17.7295 21.3927C17.4295 21.3927 17.1855 21.1487 17.1855 20.8477C17.1855 20.5477 17.4295 20.3037 17.7295 20.3037Z" stroke="#0A0F1C" stroke-width="1.5" stroke-linecap="round" stroke-linejoin="round"></path>
  </symbol>
  <symbol fill="none" xmlns="http://www.w3.org/2000/svg" viewBox="0 0 22 19" id="ic6">
    <path d="M19.4578 2.50292C18.9691 2.02645 18.3889 1.64848 17.7503 1.39061C17.1117 1.13273 16.4272 1 15.7359 1C15.0446 1 14.3601 1.13273 13.7215 1.39061C13.0829 1.64848 12.5026 2.02645 12.0139 2.50292C11.4496 3.05287 10.5499 3.05287 9.98554 2.50292C8.99842 1.54094 7.6596 1.0005 6.26361 1.0005C4.86761 1.0005 3.52879 1.54094 2.54168 2.50292C1.55456 3.46491 1 4.76964 1 6.1301C1 7.49055 1.55456 8.79528 2.54168 9.75727L3.55588 10.7457L9.60388 16.6397C10.3806 17.3966 11.6189 17.3966 12.3956 16.6397L18.4436 10.7457L19.4578 9.75727C19.9467 9.28102 20.3346 8.71557 20.5992 8.0932C20.8638 7.47084 21 6.80377 21 6.1301C21 5.45642 20.8638 4.78935 20.5992 4.16699C20.3346 3.54463 19.9467 2.97917 19.4578 2.50292Z" fill="#455CE9"></path>
    <path d="M19.4578 2.50292C18.9691 2.02645 18.3889 1.64848 17.7503 1.39061C17.1117 1.13273 16.4272 1 15.7359 1C15.0446 1 14.3601 1.13273 13.7215 1.39061C13.0829 1.64848 12.5026 2.02645 12.0139 2.50292C11.4496 3.05287 10.5499 3.05287 9.98554 2.50292C8.99842 1.54094 7.6596 1.0005 6.26361 1.0005C4.86761 1.0005 3.52879 1.54094 2.54168 2.50292C1.55456 3.46491 1 4.76964 1 6.1301C1 7.49055 1.55456 8.79528 2.54168 9.75727L3.55588 10.7457L9.60388 16.6397C10.3806 17.3966 11.6189 17.3966 12.3956 16.6397L18.4436 10.7457L19.4578 9.75727C19.9467 9.28102 20.3346 8.71557 20.5992 8.0932C20.8638 7.47084 21 6.80377 21 6.1301C21 5.45642 20.8638 4.78935 20.5992 4.16699C20.3346 3.54463 19.9467 2.97917 19.4578 2.50292Z" fill="black" fill-opacity="0.2"></path>
    <path d="M19.4578 2.50292C18.9691 2.02645 18.3889 1.64848 17.7503 1.39061C17.1117 1.13273 16.4272 1 15.7359 1C15.0446 1 14.3601 1.13273 13.7215 1.39061C13.0829 1.64848 12.5026 2.02645 12.0139 2.50292C11.4496 3.05287 10.5499 3.05287 9.98554 2.50292C8.99842 1.54094 7.6596 1.0005 6.26361 1.0005C4.86761 1.0005 3.52879 1.54094 2.54168 2.50292C1.55456 3.46491 1 4.76964 1 6.1301C1 7.49055 1.55456 8.79528 2.54168 9.75727L3.55588 10.7457L9.60388 16.6397C10.3806 17.3966 11.6189 17.3966 12.3956 16.6397L18.4436 10.7457L19.4578 9.75727C19.9467 9.28102 20.3346 8.71557 20.5992 8.0932C20.8638 7.47084 21 6.80377 21 6.1301C21 5.45642 20.8638 4.78935 20.5992 4.16699C20.3346 3.54463 19.9467 2.97917 19.4578 2.50292Z" stroke="#455CE9" stroke-width="2" stroke-linecap="round" stroke-linejoin="round"></path>
    <path d="M19.4578 2.50292C18.9691 2.02645 18.3889 1.64848 17.7503 1.39061C17.1117 1.13273 16.4272 1 15.7359 1C15.0446 1 14.3601 1.13273 13.7215 1.39061C13.0829 1.64848 12.5026 2.02645 12.0139 2.50292C11.4496 3.05287 10.5499 3.05287 9.98554 2.50292C8.99842 1.54094 7.6596 1.0005 6.26361 1.0005C4.86761 1.0005 3.52879 1.54094 2.54168 2.50292C1.55456 3.46491 1 4.76964 1 6.1301C1 7.49055 1.55456 8.79528 2.54168 9.75727L3.55588 10.7457L9.60388 16.6397C10.3806 17.3966 11.6189 17.3966 12.3956 16.6397L18.4436 10.7457L19.4578 9.75727C19.9467 9.28102 20.3346 8.71557 20.5992 8.0932C20.8638 7.47084 21 6.80377 21 6.1301C21 5.45642 20.8638 4.78935 20.5992 4.16699C20.3346 3.54463 19.9467 2.97917 19.4578 2.50292Z" stroke="black" stroke-opacity="0.2" stroke-width="2" stroke-linecap="round" stroke-linejoin="round"></path>
  </symbol>
  <symbol fill="none" xmlns="http://www.w3.org/2000/svg" viewBox="0 0 20 19" id="ic8">
    <path d="M11.7698 0.820495L13.4452 4.17147C13.5665 4.41224 13.744 4.62021 13.9628 4.77772C14.1815 4.93523 14.4351 5.03763 14.7019 5.07623L18.4047 5.61238C18.7115 5.65973 18.9992 5.79141 19.2356 5.99274C19.472 6.19406 19.6477 6.45711 19.7433 6.75253C19.8389 7.04794 19.8505 7.3641 19.7768 7.66573C19.7032 7.96736 19.5472 8.24259 19.3262 8.46071L16.6454 11.0745C16.4633 11.2692 16.3303 11.5045 16.2575 11.761C16.1846 12.0174 16.174 12.2875 16.2265 12.5489L16.8465 16.235C16.8954 16.5401 16.859 16.8528 16.7412 17.1386C16.6235 17.4243 16.429 17.6719 16.1793 17.854C15.9296 18.0361 15.6344 18.1455 15.3263 18.1703C15.0183 18.195 14.7094 18.1341 14.4338 17.9942L11.0828 16.3187C10.8425 16.1925 10.5751 16.1266 10.3037 16.1266C10.0323 16.1266 9.76491 16.1925 9.52461 16.3187L6.17363 17.9942C5.89806 18.1341 5.58916 18.195 5.28111 18.1703C4.97306 18.1455 4.67786 18.0361 4.42815 17.854C4.17844 17.6719 3.98395 17.4243 3.8662 17.1386C3.74845 16.8528 3.71202 16.5401 3.76094 16.235L4.49815 12.5489C4.54211 12.2822 4.52088 12.0088 4.43627 11.752C4.35166 11.4953 4.20618 11.2628 4.01226 11.0745L1.33148 8.46071C1.11051 8.24259 0.954488 7.96736 0.880833 7.66573C0.807178 7.3641 0.818787 7.04794 0.914362 6.75253C1.00994 6.45711 1.18572 6.19406 1.42209 5.99274C1.65847 5.79141 1.94614 5.65973 2.253 5.61238L5.95582 5.07623C6.22261 5.03763 6.47615 4.93523 6.69492 4.77772C6.91368 4.62021 7.09121 4.41224 7.21243 4.17147L8.88792 0.820495C9.03627 0.570475 9.24713 0.363359 9.49976 0.219502C9.7524 0.0756456 10.0381 0 10.3288 0C10.6196 0 10.9053 0.0756456 11.1579 0.219502C11.4105 0.363359 11.6214 0.570475 11.7698 0.820495Z" fill="#455CE9"></path>
  </symbol>
  <symbol fill="none" xmlns="http://www.w3.org/2000/svg" viewBox="0 0 16 16" id="ic5">
    <path d="M12.6667 2H3.33333C2.59333 2 2 2.51429 2 3.14286V11.1429C2 11.7714 2.59333 12.2857 3.33333 12.2857H6L8 14L10 12.2857H12.6667C13.4 12.2857 14 11.7714 14 11.1429V3.14286C14 2.51429 13.4 2 12.6667 2ZM8.66667 11.1429H7.33333V10H8.66667V11.1429ZM10.0467 6.71429L9.44667 7.24C8.96667 7.65714 8.66667 8 8.66667 8.85714H7.33333V8.57143C7.33333 7.94286 7.63333 7.37143 8.11333 6.95429L8.94 6.23429C9.18667 6.02857 9.33333 5.74286 9.33333 5.42857C9.33333 4.8 8.73333 4.28571 8 4.28571C7.26667 4.28571 6.66667 4.8 6.66667 5.42857H5.33333C5.33333 4.16571 6.52667 3.14286 8 3.14286C9.47333 3.14286 10.6667 4.16571 10.6667 5.42857C10.6667 5.93143 10.4267 6.38857 10.0467 6.71429Z" fill="white"></path>
  </symbol>
  <symbol fill="none" xmlns="http://www.w3.org/2000/svg" viewBox="0 0 16 16" id="ic4">
    <g clip-path="url(#clip0_663_134)">
      <path d="M10.6673 0.666992H2.66732C1.93398 0.666992 1.33398 1.26699 1.33398 2.00033V11.3337H2.66732V2.00033H10.6673V0.666992ZM10.0007 3.33366L14.0007 7.33366V14.0003C14.0007 14.7337 13.4007 15.3337 12.6673 15.3337H5.32732C4.59398 15.3337 4.00065 14.7337 4.00065 14.0003L4.00732 4.66699C4.00732 3.93366 4.60065 3.33366 5.33398 3.33366H10.0007ZM9.33398 8.00033H13.0007L9.33398 4.33366V8.00033Z" fill="white"></path>
    </g>
    <defs>
      <clipPath id="clip0_663_134">
        <rect width="16" height="16" fill="white"></rect>
      </clipPath>
    </defs>
  </symbol>
  <symbol fill="none" xmlns="http://www.w3.org/2000/svg" viewBox="0 0 16 16" id="ic3">
    <g clip-path="url(#clip0_663_127)">
      <path d="M13 -1H17V17H13V-1ZM-1 9H3V17H-1V9ZM6 4H10V17H6V4Z" fill="white"></path>
    </g>
    <defs>
      <clipPath id="clip0_663_127">
        <rect width="16" height="16" fill="white"></rect>
      </clipPath>
    </defs>
  </symbol>
  <symbol fill="none" xmlns="http://www.w3.org/2000/svg" viewBox="0 0 16 16" id="ic2">
    <g clip-path="url(#clip0_663_120)">
      <path d="M3.33268 8.78667V11.4533L7.99935 14L12.666 11.4533V8.78667L7.99935 11.3333L3.33268 8.78667ZM7.99935 2L0.666016 6L7.99935 10L13.9993 6.72667V11.3333H15.3327V6L7.99935 2Z" fill="white"></path>
    </g>
    <defs>
      <clipPath id="clip0_663_120">
        <rect width="16" height="16" fill="white"></rect>
      </clipPath>
    </defs>
  </symbol>
  <symbol fill="none" xmlns="http://www.w3.org/2000/svg" viewBox="0 0 16 16" id="ic1">
    <g clip-path="url(#clip0_663_109)">
      <path d="M8.00065 1.33301C4.33398 1.33301 1.33398 4.33301 1.33398 7.99967C1.33398 11.6663 4.33398 14.6663 8.00065 14.6663C11.6673 14.6663 14.6673 11.6663 14.6673 7.99967C14.6673 4.33301 11.6673 1.33301 8.00065 1.33301ZM10.8007 10.7997L7.33398 8.66634V4.66634H8.33398V8.13301L11.334 9.93301L10.8007 10.7997Z" fill="white"></path>
    </g>
    <defs>
      <clipPath id="clip0_663_109">
        <rect width="16" height="16" fill="white"></rect>
      </clipPath>
    </defs>
  </symbol>
</svg>