<svg width="25" height="24" viewBox="0 0 25 24" fill="none" xmlns="http://www.w3.org/2000/svg">
<g clip-path="url(#clip0_414_363)">
<path d="M8.86885 0.788944C6.47088 1.62082 4.40287 3.19976 2.96859 5.29382C1.5343 7.38789 0.809338 9.88671 0.900184 12.4233C0.991029 14.9598 1.8929 17.4004 3.47331 19.3864C5.05373 21.3725 7.22939 22.7995 9.68073 23.4577C11.6681 23.9705 13.7502 23.993 15.7482 23.5233C17.5582 23.1168 19.2316 22.2471 20.6045 20.9996C22.0334 19.6615 23.0705 17.9592 23.6045 16.0758C24.1848 14.0277 24.2881 11.8738 23.9064 9.77957H12.7464V14.4089H19.2095C19.0803 15.1473 18.8035 15.852 18.3956 16.4809C17.9878 17.1098 17.4572 17.6499 16.8357 18.0689C16.0465 18.591 15.1568 18.9423 14.2239 19.1002C13.2881 19.2742 12.3283 19.2742 11.3926 19.1002C10.4442 18.9041 9.54704 18.5127 8.75823 17.9508C7.49101 17.0538 6.5395 15.7794 6.03948 14.3096C5.53101 12.8122 5.53101 11.1888 6.03948 9.69144C6.3954 8.64185 6.98379 7.6862 7.76073 6.89582C8.64984 5.97472 9.77548 5.31631 11.0141 4.99284C12.2528 4.66936 13.5567 4.69331 14.7826 5.06207C15.7403 5.35605 16.6161 5.8697 17.3401 6.56207C18.0689 5.83707 18.7964 5.11019 19.5226 4.38144C19.8976 3.98957 20.3064 3.61644 20.6757 3.21519C19.5705 2.18671 18.2733 1.38643 16.8582 0.860194C14.2814 -0.0754498 11.4619 -0.100594 8.86885 0.788944Z" fill="white"/>
<path d="M8.86852 0.789855C11.4614 -0.100288 14.2809 -0.0758051 16.8579 0.85923C18.2732 1.38904 19.5699 2.19318 20.6735 3.22548C20.2985 3.62673 19.9029 4.00173 19.5204 4.39173C18.7929 5.11798 18.066 5.84173 17.3398 6.56298C16.6157 5.87061 15.74 5.35696 14.7823 5.06298C13.5567 4.69293 12.2529 4.66759 11.0139 4.98975C9.77493 5.3119 8.6486 5.9691 7.75852 6.88923C6.98158 7.67961 6.39319 8.63526 6.03727 9.68486L2.15039 6.67548C3.54166 3.91653 5.95055 1.80615 8.86852 0.789855Z" fill="#E33629"/>
<path d="M1.11921 9.65605C1.32813 8.62067 1.67497 7.61798 2.15046 6.6748L6.03734 9.69168C5.52887 11.1891 5.52887 12.8124 6.03734 14.3098C4.74234 15.3098 3.44671 16.3148 2.15046 17.3248C0.960121 14.9554 0.597087 12.2557 1.11921 9.65605Z" fill="#F8BD00"/>
<path d="M12.746 9.77832H23.906C24.2877 11.8726 24.1844 14.0264 23.6041 16.0746C23.0701 17.958 22.033 19.6602 20.6041 20.9983C19.3497 20.0196 18.0897 19.0483 16.8353 18.0696C17.4572 17.6501 17.988 17.1094 18.3959 16.4798C18.8038 15.8503 19.0804 15.1448 19.2091 14.4058H12.746C12.7441 12.8646 12.746 11.3214 12.746 9.77832Z" fill="#587DBD"/>
<path d="M2.14844 17.3246C3.44469 16.3246 4.74031 15.3196 6.03531 14.3096C6.53633 15.7799 7.4892 17.0544 8.75781 17.9508C9.54908 18.5101 10.4482 18.8983 11.3978 19.0908C12.3335 19.2648 13.2933 19.2648 14.2291 19.0908C15.1621 18.9329 16.0517 18.5816 16.8409 18.0596C18.0953 19.0383 19.3553 20.0096 20.6097 20.9883C19.237 22.2366 17.5636 23.1068 15.7534 23.5139C13.7555 23.9836 11.6733 23.9611 9.68594 23.4483C8.11413 23.0286 6.64595 22.2888 5.37344 21.2752C4.02655 20.2059 2.92648 18.8583 2.14844 17.3246Z" fill="#319F43"/>
</g>
<defs>
<clipPath id="clip0_414_363">
<rect width="24" height="24" fill="white" transform="translate(0.507812)"/>
</clipPath>
</defs>
</svg>
