<svg width="0" height="0" className="hidden">
  <symbol fill="none" xmlns="http://www.w3.org/2000/svg" viewBox="0 0 15 15" id="cr2">
    <circle cx="7.5" cy="7.5" r="7.5" fill="#01754F"></circle>
    <path d="M4 8L7 10L10.5 4" stroke="white" stroke-linecap="square"></path>
    <rect x="8" y="3.84082" width="3.31322" height="1" transform="rotate(-14.7026 8 3.84082)" fill="#01754F"></rect>
  </symbol>
  <symbol fill="none" xmlns="http://www.w3.org/2000/svg" viewBox="0 0 22 22" id="cr3">
    <path d="M11 5.95801V16.958" stroke="#7E7E7E" stroke-linecap="round"></path>
    <path d="M18.7915 5.95801V16.958" stroke="#7E7E7E" stroke-linecap="round"></path>
    <path d="M3.2085 5.95801V16.958" stroke="#7E7E7E" stroke-linecap="round"></path>
    <path d="M18.7917 16.9583C18.7917 16.9583 17.875 15.125 14.6667 15.125C11.4583 15.125 11 16.9583 11 16.9583" stroke="#7E7E7E" stroke-linecap="round"></path>
    <path d="M3.20833 16.9583C3.20833 16.9583 4.125 15.125 7.33333 15.125C10.5417 15.125 11 16.9583 11 16.9583" stroke="#7E7E7E" stroke-linecap="round"></path>
    <path d="M18.7917 5.95833C18.7917 5.95833 17.875 4.125 14.6667 4.125C11.4583 4.125 11 5.95833 11 5.95833" stroke="#7E7E7E" stroke-linecap="round"></path>
    <path d="M3.20833 5.95833C3.20833 5.95833 4.125 4.125 7.33333 4.125C10.5417 4.125 11 5.95833 11 5.95833" stroke="#7E7E7E" stroke-linecap="round"></path>
  </symbol>
  <symbol fill="none" xmlns="http://www.w3.org/2000/svg" viewBox="0 0 22 22" id="cr4">
    <circle cx="10.9998" cy="11.0003" r="7.83333" stroke="#7E7E7E"></circle>
    <path d="M15.125 11.0003H11.25C11.1119 11.0003 11 10.8884 11 10.7503V7.79199" stroke="#7E7E7E" stroke-linecap="round"></path>
  </symbol>
  <symbol fill="none" xmlns="http://www.w3.org/2000/svg" viewBox="0 0 24 24" id="cr1">
    <path d="M4 6.5C4.42373 6.5 4.68433 6.83129 4.81934 7.05957C4.97406 7.32134 5.09661 7.66767 5.19238 8.05078C5.38578 8.82464 5.5 9.86711 5.5 11C5.5 12.1329 5.38578 13.1754 5.19238 13.9492C5.09661 14.3323 4.97406 14.6787 4.81934 14.9404C4.68433 15.1687 4.42373 15.5 4 15.5C3.57627 15.5 3.31567 15.1687 3.18066 14.9404C3.02594 14.6787 2.90339 14.3323 2.80762 13.9492C2.61422 13.1754 2.5 12.1329 2.5 11C2.5 9.86711 2.61422 8.82464 2.80762 8.05078C2.90339 7.66767 3.02594 7.32134 3.18066 7.05957C3.31567 6.83129 3.57627 6.5 4 6.5Z" stroke="#455CE9"></path>
    <path d="M20 15.5C20.4127 15.5 20.6723 15.1832 20.8108 14.9539C20.9675 14.6942 21.0928 14.3472 21.1922 13.9497C21.3925 13.1483 21.5 12.0878 21.5 11C21.5 9.91223 21.3925 8.8517 21.1922 8.0503C21.0928 7.65275 20.9675 7.30583 20.8108 7.04612C20.6723 6.81677 20.4127 6.5 20 6.5" stroke="#455CE9" stroke-linecap="round"></path>
    <path d="M20 6.5C20 6.5 16.5 7.5 12 7.5C7.5 7.5 4 6.5 4 6.5" stroke="#455CE9" stroke-linecap="round"></path>
    <path d="M4 15.5C4 15.5 6.5044 14.7845 10 14.5639M20 15.5C20 15.5 17.4956 14.7845 14 14.5639" stroke="#455CE9" stroke-linecap="round"></path>
    <path d="M10.5 7.5V11M13.5 7.5V11" stroke="#455CE9" stroke-linecap="round"></path>
    <circle cx="12" cy="13" r="2.5" stroke="#455CE9"></circle>
    <path d="M10 14.5L7.5 16.5L9 17L10 18.5L12 15.5L14 18.5L15 17L16.5 16.5L14 14.5" stroke="#455CE9" stroke-linecap="round" stroke-linejoin="round"></path>
  </symbol>
</svg>