<svg width="0" height="0" class="hidden">
  <symbol fill="none" xmlns="http://www.w3.org/2000/svg" viewBox="0 0 24 24" id="navicon1">
    <path fill-rule="evenodd" clip-rule="evenodd" d="M9.57914 12.0259H9.60914C12.4291 12.0259 14.7231 9.73187 14.7231 6.91087C14.7231 4.09087 12.4291 1.79688 9.60914 1.79688C6.79014 1.79688 4.49614 4.09088 4.49614 6.90788C4.49014 8.27088 5.01614 9.55288 5.97614 10.5199C6.93514 11.4849 8.21414 12.0209 9.57914 12.0259ZM5.99614 6.91087C5.99614 4.91787 7.61714 3.29687 9.60914 3.29687C11.6021 3.29687 13.2231 4.91787 13.2231 6.91087C13.2231 8.90387 11.6021 10.5259 9.60914 10.5259H9.58214C8.62014 10.5219 7.71714 10.1449 7.04114 9.46187C6.36314 8.77987 5.99214 7.87487 5.99614 6.91087Z" fill="white"></path>
    <path fill-rule="evenodd" clip-rule="evenodd" d="M2.05078 18.6743C2.05078 22.2033 7.54278 22.2033 9.60978 22.2033C11.4788 22.2033 17.1688 22.2033 17.1688 18.6543C17.1688 15.9673 13.7078 13.6963 9.60978 13.6963C5.51178 13.6963 2.05078 15.9753 2.05078 18.6743ZM3.55078 18.6743C3.55078 17.0323 6.14178 15.1963 9.60978 15.1963C13.0778 15.1963 15.6688 17.0213 15.6688 18.6543C15.6688 20.3473 12.3738 20.7033 9.60978 20.7033C5.58878 20.7033 3.55078 20.0203 3.55078 18.6743Z" fill="white"></path>
    <path d="M16.8527 10.8256C16.5207 10.8256 16.2177 10.6046 16.1277 10.2686C16.0217 9.8686 16.2587 9.4586 16.6597 9.3506C17.7667 9.0546 18.5397 8.0476 18.5397 6.8996C18.5407 5.6996 17.6897 4.6536 16.5157 4.4126C16.1097 4.3296 15.8477 3.9326 15.9317 3.5276C16.0137 3.1216 16.4097 2.8556 16.8167 2.9436C18.6857 3.3276 20.0407 4.9916 20.0407 6.8996C20.0407 8.7246 18.8087 10.3296 17.0457 10.8006C16.9817 10.8176 16.9157 10.8256 16.8527 10.8256Z" fill="white"></path>
    <path d="M18.9927 18.0194C19.0737 18.3643 19.3817 18.5973 19.7217 18.5973C19.7787 18.5973 19.8367 18.5914 19.8947 18.5774C21.0837 18.2974 21.9487 17.2984 21.9487 16.2014C21.9487 14.4744 19.8337 12.9014 17.5117 12.9014C17.0977 12.9014 16.7617 13.2374 16.7617 13.6514C16.7617 14.0653 17.0977 14.4014 17.5117 14.4014C19.1327 14.4014 20.4487 15.4914 20.4487 16.2014C20.4487 16.5484 20.1127 16.9853 19.5507 17.1173C19.1477 17.2114 18.8977 17.6164 18.9927 18.0194Z" fill="white"></path>
  </symbol>
  <symbol fill="none" xmlns="http://www.w3.org/2000/svg" viewBox="0 0 18 12" id="navicon2">
    <path d="M17.0303 6.53033C17.3232 6.23744 17.3232 5.76256 17.0303 5.46967L12.2574 0.696699C11.9645 0.403806 11.4896 0.403806 11.1967 0.696699C10.9038 0.989593 10.9038 1.46447 11.1967 1.75736L15.4393 6L11.1967 10.2426C10.9038 10.5355 10.9038 11.0104 11.1967 11.3033C11.4896 11.5962 11.9645 11.5962 12.2574 11.3033L17.0303 6.53033ZM0.5 6L0.5 6.75L16.5 6.75V6V5.25L0.5 5.25L0.5 6Z" fill="white"></path>
  </symbol>
</svg>