<svg width="28" height="28" viewBox="0 0 28 28" fill="none" xmlns="http://www.w3.org/2000/svg">
<path fill-rule="evenodd" clip-rule="evenodd" d="M11.9158 2.66699C10.3345 2.66713 8.77617 3.04542 7.37079 3.7703C5.96541 4.49519 4.75376 5.54565 3.83693 6.83404C2.9201 8.12243 2.32467 9.6114 2.10032 11.1767C1.87596 12.742 2.0292 14.3383 2.54723 15.8323C3.06526 17.3264 3.93308 18.6749 5.07827 19.7653C6.22346 20.8558 7.61281 21.6566 9.13042 22.1009C10.648 22.5452 12.2499 22.6201 13.8023 22.3194C15.3548 22.0187 16.8128 21.3511 18.0548 20.3723L22.3155 24.633C22.5355 24.8455 22.8302 24.9631 23.1361 24.9604C23.442 24.9578 23.7346 24.8351 23.9509 24.6188C24.1673 24.4025 24.2899 24.1099 24.2926 23.804C24.2953 23.4981 24.1777 23.2034 23.9652 22.9833L19.7045 18.7227C20.8572 17.2604 21.5748 15.5031 21.7754 13.652C21.976 11.8009 21.6514 9.93068 20.8388 8.25543C20.0261 6.58019 18.7582 5.16757 17.1802 4.17926C15.6022 3.19095 13.7778 2.66687 11.9158 2.66699ZM4.33249 12.5837C4.33249 10.5724 5.13145 8.64358 6.5536 7.22143C7.97575 5.79928 9.9046 5.00033 11.9158 5.00033C13.927 5.00033 15.8559 5.79928 17.278 7.22143C18.7002 8.64358 19.4992 10.5724 19.4992 12.5837C19.4992 14.5949 18.7002 16.5237 17.278 17.9459C15.8559 19.368 13.927 20.167 11.9158 20.167C9.9046 20.167 7.97575 19.368 6.5536 17.9459C5.13145 16.5237 4.33249 14.5949 4.33249 12.5837Z" fill="#0A0F1C"/>
</svg>
