<svg width="0" height="0" className="hidden">
  <symbol fill="none" xmlns="http://www.w3.org/2000/svg" viewBox="0 0 24 24" id="quiz">
    <path d="M5 20C5.55228 20 6 19.5523 6 19C6 18.4477 5.55228 18 5 18C4.44772 18 4 18.4477 4 19C4 19.5523 4.44772 20 5 20Z" fill="currentcolor"></path>
    <path d="M4 4H6V13H4V4Z" fill="currentcolor"></path>
    <path d="M7 2H3C2.73478 2 2.48043 2.10536 2.29289 2.29289C2.10536 2.48043 2 2.73478 2 3V21C2 21.2652 2.10536 21.5196 2.29289 21.7071C2.48043 21.8946 2.73478 22 3 22H7C7.26522 22 7.51957 21.8946 7.70711 21.7071C7.89464 21.5196 8 21.2652 8 21V3C8 2.73478 7.89464 2.48043 7.70711 2.29289C7.51957 2.10536 7.26522 2 7 2ZM7 21H3V3H7V21ZM14 3V10H11V3H14ZM15 2H10V11H15V2ZM21 3V10H18V3H21ZM22 2H17V11H22V2ZM14 14V21H11V14H14ZM15 13H10V22H15V13ZM21 14V21H18V14H21ZM22 13H17V22H22V13Z" fill="currentcolor"></path>
  </symbol>
  <symbol fill="none" xmlns="http://www.w3.org/2000/svg" viewBox="0 0 24 24" id="assignment">
    <path d="M3 17.15V10C3 9.46667 3.196 9.01667 3.588 8.65C3.98 8.28333 4.44233 8.11667 4.975 8.15C6.29167 8.35 7.546 8.73767 8.738 9.313C9.93 9.88833 11.0173 10.634 12 11.55C12.9833 10.6333 14.071 9.88733 15.263 9.312C16.455 8.73667 17.709 8.34933 19.025 8.15C19.5583 8.11667 20.021 8.28333 20.413 8.65C20.805 9.01667 21.0007 9.46667 21 10V17.15C21 17.6833 20.825 18.1377 20.475 18.513C20.125 18.8883 19.6833 19.0923 19.15 19.125C18.0833 19.2917 17.05 19.5667 16.05 19.95C15.05 20.3333 14.1167 20.8417 13.25 21.475C13.0667 21.625 12.871 21.7373 12.663 21.812C12.455 21.8867 12.234 21.9243 12 21.925C11.766 21.9257 11.545 21.8883 11.337 21.813C11.129 21.7377 10.9333 21.625 10.75 21.475C9.88333 20.8417 8.95 20.3333 7.95 19.95C6.95 19.5667 5.91667 19.2917 4.85 19.125C4.31667 19.0917 3.875 18.8877 3.525 18.513C3.175 18.1383 3 17.684 3 17.15ZM12 9C10.9 9 9.95833 8.60833 9.175 7.825C8.39167 7.04167 8 6.1 8 5C8 3.9 8.39167 2.95833 9.175 2.175C9.95833 1.39167 10.9 1 12 1C13.1 1 14.0417 1.39167 14.825 2.175C15.6083 2.95833 16 3.9 16 5C16 6.1 15.6083 7.04167 14.825 7.825C14.0417 8.60833 13.1 9 12 9Z" fill="currentcolor"></path>
  </symbol>
  <symbol fill="none" xmlns="http://www.w3.org/2000/svg" viewBox="0 0 24 24" id="logout">
    <path d="M12 20.9756C10.75 20.9756 9.57915 20.7381 8.4875 20.2631C7.39585 19.7881 6.44585 19.1464 5.6375 18.3381C4.82916 17.5297 4.1875 16.5797 3.7125 15.4881C3.2375 14.3964 3 13.2256 3 11.9756C3 10.7256 3.2375 9.55474 3.7125 8.46309C4.1875 7.37144 4.82916 6.42144 5.6375 5.61309C6.44585 4.80475 7.39585 4.16309 8.4875 3.68809C9.57915 3.21309 10.75 2.97559 12 2.97559V4.47559C9.93335 4.47559 8.16665 5.20894 6.7 6.67559C5.23335 8.14224 4.5 9.90894 4.5 11.9756C4.5 14.0589 5.23335 15.8297 6.7 17.2881C8.16665 18.7464 9.93335 19.4756 12 19.4756V20.9756ZM16.325 16.6506L15.275 15.5756L18.1 12.7506H9V11.2506H18.1L15.275 8.40059L16.325 7.35059L20.975 12.0006L16.325 16.6506Z" fill="currentcolor"></path>
  </symbol>
  <symbol fill="none" xmlns="http://www.w3.org/2000/svg" viewBox="0 0 21 24" id="cources">
    <path d="M4.5 0C2.01563 0 0 2.01562 0 4.5V19.5C0 21.9844 2.01563 24 4.5 24H19.5C20.3297 24 21 23.3297 21 22.5C21 21.6703 20.3297 21 19.5 21V18C20.3297 18 21 17.3297 21 16.5V1.5C21 0.670315 20.3297 0 19.5 0H4.5ZM4.5 18H16.5V21H4.5C3.67031 21 3 20.3297 3 19.5C3 18.6703 3.67031 18 4.5 18ZM6 6.75C6 6.3375 6.3375 6 6.75 6H15.75C16.1625 6 16.5 6.3375 16.5 6.75C16.5 7.1625 16.1625 7.5 15.75 7.5H6.75C6.3375 7.5 6 7.1625 6 6.75ZM6.75 9H15.75C16.1625 9 16.5 9.3375 16.5 9.75C16.5 10.1625 16.1625 10.5 15.75 10.5H6.75C6.3375 10.5 6 10.1625 6 9.75C6 9.3375 6.3375 9 6.75 9Z" fill="currentcolor"></path>
  </symbol>
  <symbol fill="none" xmlns="http://www.w3.org/2000/svg" viewBox="0 0 24 24" id="dashboard">
    <path d="M7.92 13.4697C9.33 13.4697 10.46 14.6107 10.46 16.0307V19.4397C10.46 20.8497 9.33 21.9997 7.92 21.9997H4.54C3.14 21.9997 2 20.8497 2 19.4397V16.0307C2 14.6107 3.14 13.4697 4.54 13.4697H7.92ZM19.4601 13.4697C20.8601 13.4697 22.0001 14.6107 22.0001 16.0307V19.4397C22.0001 20.8497 20.8601 21.9997 19.4601 21.9997H16.0801C14.6701 21.9997 13.5401 20.8497 13.5401 19.4397V16.0307C13.5401 14.6107 14.6701 13.4697 16.0801 13.4697H19.4601ZM7.92 2C9.33 2 10.46 3.15 10.46 4.561V7.97C10.46 9.39 9.33 10.53 7.92 10.53H4.54C3.14 10.53 2 9.39 2 7.97V4.561C2 3.15 3.14 2 4.54 2H7.92ZM19.4601 2C20.8601 2 22.0001 3.15 22.0001 4.561V7.97C22.0001 9.39 20.8601 10.53 19.4601 10.53H16.0801C14.6701 10.53 13.5401 9.39 13.5401 7.97V4.561C13.5401 3.15 14.6701 2 16.0801 2H19.4601Z" fill="currentcolor"></path>
  </symbol>
  <symbol fill="none" xmlns="http://www.w3.org/2000/svg" viewBox="0 0 24 24" id="group">
    <path d="M1 20V17.2C1 16.6334 1.146 16.1127 1.438 15.638C1.73 15.1634 2.11733 14.8007 2.6 14.55C3.63333 14.0334 4.68333 13.646 5.75 13.388C6.81667 13.13 7.9 13.0007 9 13C10.1 12.9994 11.1833 13.1287 12.25 13.388C13.3167 13.6474 14.3667 14.0347 15.4 14.55C15.8833 14.8 16.271 15.1627 16.563 15.638C16.855 16.1134 17.0007 16.634 17 17.2V20H1ZM19 20V17C19 16.2667 18.796 15.5624 18.388 14.887C17.98 14.2117 17.4007 13.6327 16.65 13.15C17.5 13.25 18.3 13.421 19.05 13.663C19.8 13.905 20.5 14.2007 21.15 14.55C21.75 14.8834 22.2083 15.254 22.525 15.662C22.8417 16.07 23 16.516 23 17V20H19ZM9 12C7.9 12 6.95833 11.6084 6.175 10.825C5.39167 10.0417 5 9.10003 5 8.00003C5 6.90003 5.39167 5.95836 6.175 5.17503C6.95833 4.39169 7.9 4.00003 9 4.00003C10.1 4.00003 11.0417 4.39169 11.825 5.17503C12.6083 5.95836 13 6.90003 13 8.00003C13 9.10003 12.6083 10.0417 11.825 10.825C11.0417 11.6084 10.1 12 9 12ZM19 8.00003C19 9.10003 18.6083 10.0417 17.825 10.825C17.0417 11.6084 16.1 12 15 12C14.8167 12 14.5833 11.9794 14.3 11.938C14.0167 11.8967 13.7833 11.8507 13.6 11.8C14.05 11.2667 14.396 10.675 14.638 10.025C14.88 9.37503 15.0007 8.70003 15 8.00003C14.9993 7.30003 14.8787 6.62503 14.638 5.97503C14.3973 5.32503 14.0513 4.73336 13.6 4.20003C13.8333 4.11669 14.0667 4.06236 14.3 4.03703C14.5333 4.01169 14.7667 3.99936 15 4.00003C16.1 4.00003 17.0417 4.39169 17.825 5.17503C18.6083 5.95836 19 6.90003 19 8.00003Z" fill="currentcolor"></path>
  </symbol>
</svg>