<svg width="18" height="18" viewBox="0 0 18 18" fill="currentcolor" xmlns="http://www.w3.org/2000/svg">
<path d="M8.14486 2.63437C8.41486 1.80547 9.58756 1.80547 9.85666 2.63437L10.8197 5.59717C10.8785 5.77761 10.9929 5.93483 11.1464 6.04636C11.3 6.1579 11.4849 6.21803 11.6747 6.21817H14.7905C15.6626 6.21817 16.0244 7.33417 15.3197 7.84717L12.7997 9.67777C12.6458 9.7894 12.5312 9.94688 12.4724 10.1276C12.4135 10.3084 12.4134 10.5031 12.4721 10.684L13.4351 13.6468C13.7051 14.4757 12.7556 15.166 12.0491 14.653L9.52906 12.8224C9.37534 12.7108 9.19026 12.6507 9.00031 12.6507C8.81036 12.6507 8.62527 12.7108 8.47156 12.8224L5.95156 14.653C5.24596 15.166 4.29736 14.4757 4.56646 13.6468L5.52946 10.684C5.58811 10.5031 5.58801 10.3084 5.52916 10.1276C5.47031 9.94688 5.35573 9.7894 5.20186 9.67777L2.68276 7.84807C1.97806 7.33507 2.34076 6.21907 3.21196 6.21907H6.32686C6.5168 6.21912 6.70189 6.15907 6.85563 6.04753C7.00937 5.93598 7.12388 5.77866 7.18276 5.59807L8.14576 2.63527L8.14486 2.63437Z" fill="#F0F0F0"/>
</svg>
