<svg width="0" height="0" class="hidden">
  <symbol fill="none" xmlns="http://www.w3.org/2000/svg" viewBox="0 0 20 21" id="iconvid3">
    <g opacity="0.8">
      <path d="M10 4.41642C10.4479 3.90867 11.0397 3.54934 11.6968 3.38625C12.354 3.22315 13.0451 3.26402 13.6785 3.50342C14.3118 3.74282 14.8572 4.16939 15.2421 4.72639C15.627 5.28338 15.8332 5.94437 15.8332 6.62142C15.8332 7.29847 15.627 7.95946 15.2421 8.51645C14.8572 9.07345 14.3118 9.50002 13.6785 9.73942C13.0451 9.97882 12.354 10.0197 11.6968 9.85659C11.0397 9.6935 10.4479 9.33417 10 8.82642V4.41642ZM12.5 18.2881H2.5V17.4548C2.5 16.1287 3.02678 14.8569 3.96447 13.9192C4.90215 12.9815 6.17392 12.4548 7.5 12.4548C8.82608 12.4548 10.0979 12.9815 11.0355 13.9192C11.9732 14.8569 12.5 16.1287 12.5 17.4548V18.2881ZM12.5 18.2881H17.5V17.4548C17.5001 16.577 17.2692 15.7147 16.8304 14.9545C16.3916 14.1943 15.7604 13.563 15.0003 13.1241C14.2402 12.6852 13.3779 12.4541 12.5002 12.454C11.6224 12.454 10.7601 12.685 10 13.1239L12.5 18.2881ZM10.8333 6.62142C10.8333 7.50547 10.4821 8.35332 9.85702 8.97844C9.2319 9.60356 8.38405 9.95475 7.5 9.95475C6.61594 9.95475 5.7681 9.60356 5.14298 8.97844C4.51786 8.35332 4.16667 7.50547 4.16667 6.62142C4.16667 5.73737 4.51786 4.88952 5.14298 4.2644C5.7681 3.63928 6.61594 3.28809 7.5 3.28809C8.38405 3.28809 9.2319 3.63928 9.85702 4.2644C10.4821 4.88952 10.8333 5.73737 10.8333 6.62142V6.62142Z" stroke="black" stroke-width="1.5" stroke-linecap="round" stroke-linejoin="round"></path>
    </g>
  </symbol>
  <symbol fill="none" xmlns="http://www.w3.org/2000/svg" viewBox="0 0 25 25" id="iconvid2">
    <g opacity="0.8">
      <path d="M15.252 11.5921L12.055 9.46014C11.9043 9.35957 11.729 9.30185 11.548 9.29315C11.367 9.28444 11.187 9.32509 11.0274 9.41074C10.8677 9.49639 10.7342 9.62382 10.6414 9.77942C10.5485 9.93502 10.4996 10.1129 10.5 10.2941V14.5571C10.5 14.7382 10.5491 14.9158 10.6421 15.0712C10.7352 15.2265 10.8686 15.3536 11.0282 15.439C11.1879 15.5244 11.3677 15.5649 11.5485 15.5561C11.7293 15.5473 11.9044 15.4896 12.055 15.3891L15.252 13.2571C15.389 13.1658 15.5013 13.0421 15.5789 12.897C15.6566 12.7518 15.6972 12.5898 15.6972 12.4251C15.6972 12.2605 15.6566 12.0985 15.5789 11.9533C15.5013 11.8082 15.389 11.6845 15.252 11.5931V11.5921Z" stroke="black" stroke-width="1.5" stroke-linecap="round" stroke-linejoin="round"></path>
      <path d="M21.5 12.4238C21.5 13.6057 21.2672 14.776 20.8149 15.868C20.3626 16.9599 19.6997 17.9521 18.864 18.7878C18.0282 19.6235 17.0361 20.2865 15.9442 20.7387C14.8522 21.191 13.6819 21.4238 12.5 21.4238C11.3181 21.4238 10.1478 21.191 9.05585 20.7387C7.96392 20.2865 6.97177 19.6235 6.13604 18.7878C5.30031 17.9521 4.63738 16.9599 4.18508 15.868C3.73279 14.776 3.5 13.6057 3.5 12.4238C3.5 10.0369 4.44821 7.74769 6.13604 6.05987C7.82387 4.37204 10.1131 3.42383 12.5 3.42383C14.8869 3.42383 17.1761 4.37204 18.864 6.05987C20.5518 7.74769 21.5 10.0369 21.5 12.4238Z" stroke="black" stroke-width="1.5" stroke-linecap="round" stroke-linejoin="round"></path>
    </g>
  </symbol>
  <symbol fill="none" xmlns="http://www.w3.org/2000/svg" viewBox="0 0 24 25" id="iconvid1">
    <g opacity="0.8">
      <path d="M12 8.42383V12.4238L15 15.4238L12 8.42383ZM21 12.4238C21 13.6057 20.7672 14.776 20.3149 15.868C19.8626 16.9599 19.1997 17.9521 18.364 18.7878C17.5282 19.6235 16.5361 20.2865 15.4442 20.7387C14.3522 21.191 13.1819 21.4238 12 21.4238C10.8181 21.4238 9.64778 21.191 8.55585 20.7387C7.46392 20.2865 6.47177 19.6235 5.63604 18.7878C4.80031 17.9521 4.13738 16.9599 3.68508 15.868C3.23279 14.776 3 13.6057 3 12.4238C3 10.0369 3.94821 7.74769 5.63604 6.05987C7.32387 4.37204 9.61305 3.42383 12 3.42383C14.3869 3.42383 16.6761 4.37204 18.364 6.05987C20.0518 7.74769 21 10.0369 21 12.4238Z" stroke="black" stroke-width="1.5" stroke-linecap="round" stroke-linejoin="round"></path>
    </g>
  </symbol>
</svg>