<svg width="400" height="163" viewBox="0 0 160 163" fill="none" xmlns="http://www.w3.org/2000/svg">
<path d="M111.813 159.829H137.806V161.027H111.813V159.829Z" fill="#272727"/>
<path d="M113.787 158.649H136.683V159.829H113.787V158.649Z" fill="#FDDFD2"/>
<path d="M158.563 95.5469C158.563 95.5469 139.908 123.549 136.7 138.15L148.351 161.58L158.563 95.5469Z" fill="#6F95F1"/>
<path d="M123.371 153.654L148.332 161.581L143.833 118.904H120.882L123.371 153.654Z" fill="#8D9BF2"/>
<path d="M195.987 83.7861L218.68 97.096C218.68 97.096 241.133 139.625 238.221 153.893L220.818 161.581H148.333C148.333 161.581 149.992 103.991 158.546 95.5475L178.105 85.2056L195.987 83.7861Z" fill="white"/>
<path d="M178.124 78.3662V85.2054C178.124 85.2054 182.806 93.0402 195.987 83.786L191.36 57.6455L178.879 77.2232L178.124 78.3662Z" fill="#FFC7BB"/>
<path d="M178.123 78.3661V82.9932C181.109 82.8273 190.013 81.1313 190.032 66.4941L178.86 77.2047L178.123 78.3661Z" fill="#C98272"/>
<path d="M168.538 57.4057C168.538 57.4057 170.584 76.7991 178.124 78.3844C179.856 78.7531 181.903 78.1632 184.262 76.1723C187.728 73.2596 189.848 69.0749 190.346 64.5768C191.102 57.9956 189.922 51.4697 189.922 51.4697L172.114 56.4102L168.538 57.4057Z" fill="#FFC7BB"/>
<path d="M135.98 155.829L132.238 158.724L134.506 154.521L135.98 155.829Z" fill="#281616"/>
<path d="M155.044 131.144L155.874 131.845C156.113 132.048 156.482 132.029 156.703 131.771L158.123 130.112C158.325 129.872 158.307 129.504 158.049 129.283L157.219 128.582C156.98 128.379 156.611 128.398 156.39 128.656L154.97 130.315C154.767 130.555 154.786 130.923 155.044 131.144Z" fill="#281616"/>
<path d="M156.296 129.56L157.365 130.481C157.679 130.758 158.158 130.721 158.435 130.389L159.633 128.988C159.909 128.675 159.872 128.195 159.541 127.919L158.471 126.997C158.158 126.721 157.679 126.757 157.402 127.089L156.204 128.49C155.927 128.804 155.964 129.301 156.296 129.56Z" fill="#FB2257"/>
<path d="M134.709 154.833L135.778 155.755C136.091 156.032 136.57 155.995 136.847 155.663L157.31 131.661C157.586 131.348 157.549 130.868 157.217 130.592L156.148 129.67C155.835 129.393 155.355 129.43 155.079 129.762L134.616 153.764C134.34 154.078 134.395 154.557 134.709 154.833Z" fill="#F8CA7A"/>
<path d="M129.51 140.03C129.51 140.03 121.141 135.034 120.533 135.219C119.924 135.403 120.238 138.132 120.238 138.132C120.238 138.132 129.142 143.238 129.51 140.03Z" fill="#FFC7BB"/>
<path d="M129.584 143.201C129.584 143.201 129.621 141.191 121.289 142.261C121.289 142.261 121.012 144.436 123.169 144.307C125.326 144.178 128.829 144.583 129.584 143.201Z" fill="#FFC7BB"/>
<path d="M129.511 144.971C129.511 144.971 123.132 143.754 121.418 144.694C121.418 144.694 120.957 146.483 122.505 146.704C124.054 146.925 129.769 147.496 129.511 144.971Z" fill="#FFC7BB"/>
<path d="M120.238 138.131L122.506 141.099V139.311L120.238 138.131Z" fill="#C98272"/>
<path d="M206.992 116.839C206.992 116.839 208.098 131.034 216.08 142.777L185.11 151.625C185.128 151.644 189.663 131.255 206.992 116.839Z" fill="#6F95F1"/>
<path d="M137.179 143.588C137.418 141.763 147.096 141.633 148.737 141.763C150.378 141.91 163.374 150.574 164.904 150.943C166.047 151.22 169.568 150.464 171.264 150.077C171.965 149.911 172.684 149.763 173.403 149.653L218.494 142.223C220.209 141.633 222.126 141.283 224.154 141.283C231.675 141.283 237.795 145.91 237.795 151.625V151.754C237.703 157.414 231.638 161.967 224.154 161.967C223.877 161.967 223.619 161.967 223.343 161.949L172.241 160.713H172.186L165.568 160.548C162.268 163.11 149.493 158.593 149.493 158.593L141.621 159.386C138.875 158.741 140.497 156.492 140.497 156.492C136.81 156.492 138.911 153.137 138.911 153.137C138.911 153.137 138.303 153.026 138.008 151.92C136.718 153.063 135.464 152.86 135.464 152.86C135.464 152.86 136.939 145.413 137.179 143.588ZM145.548 145.689L140.405 146.998C140.294 147.496 140.183 147.957 140.054 148.381C142.248 146.961 145.345 145.763 145.548 145.689Z" fill="#FFC7BB"/>
<path d="M149.474 158.594C149.474 158.594 162.268 163.111 165.55 160.548L172.168 160.714H172.223L223.324 161.949C223.601 161.968 223.859 161.968 224.135 161.968C231.601 161.968 237.685 157.414 237.777 151.755C233.924 155.184 225.776 159.774 210.752 158.041C187.579 155.387 152.553 155.571 149.474 158.594Z" fill="#C98272"/>
<path d="M211.49 134.905L212.006 134.703C208.632 126.112 206.973 118.738 207.121 112.784C207.231 107.991 208.503 104.083 210.881 101.188C215.472 95.6394 222.477 95.7869 222.551 95.8053L222.68 95.2707C222.108 95.1232 215.361 95.2891 210.771 100.469C208.172 103.419 206.752 107.419 206.568 112.378C206.347 118.48 208.006 126.057 211.49 134.905Z" fill="#1A1A1A"/>
<path d="M168.536 57.4056C168.536 57.4056 170.583 76.799 178.123 78.3844C178.123 78.3844 170.749 65.0745 172.113 56.4102L168.536 57.4056Z" fill="#C98272"/>
<path d="M188.299 56.871C188.299 56.871 160.758 65.6091 160.5 45.9945C160.223 26.3799 167.358 48.2251 171.634 44.0404C175.911 39.8557 189.037 34.7677 189.811 46.8056C189.811 46.8056 195.342 41.2752 192.576 59.8206C191.599 63.1941 188.299 56.871 188.299 56.871Z" fill="#1A1A1A"/>
<path d="M191.065 59.0651C191.065 59.0651 195.692 50.5667 194.567 58.6411C193.443 66.7339 192.54 65.9044 191.065 59.0651Z" fill="#FFC7BB"/>
<path d="M192.448 58.3825C192.448 58.3825 194.826 54.4006 193.664 59.802C192.503 65.2034 191.968 59.4517 191.968 59.4517L193.222 60.0232L192.448 58.3825Z" fill="#C98272"/>
<path d="M185.294 92.0441C187.912 92.0441 190.179 91.4542 191.967 90.7168C196.447 88.8549 199.01 85.7947 199.12 85.6657L198.696 85.3154C198.678 85.3523 196.115 88.4309 191.746 90.2191C187.727 91.8782 181.312 92.7446 173.514 87.5092L173.201 87.97C177.736 91.0302 181.828 92.0441 185.294 92.0441Z" fill="#1A1A1A"/>
<path d="M175.137 54.6033C177.128 54.6033 179.34 54.2715 181.755 53.6079L181.7 53.4235C175.598 55.0827 170.86 54.6402 167.616 52.0778C162.86 48.3355 163.026 41.275 163.026 41.2197H162.841C162.841 41.2935 162.694 48.4461 167.505 52.2437C169.515 53.8107 172.059 54.6033 175.137 54.6033Z" fill="white"/>
<path d="M186.972 47.2112L187.156 47.1559C186.474 45.0359 185.276 43.5796 183.58 42.8606C181.829 42.1048 178.603 41.7546 173.256 44.3354C173.127 44.3907 173.035 44.446 173.017 44.446L173.035 44.5013V44.6304C173.072 44.6304 173.091 44.6119 173.349 44.5013C178.639 41.9389 181.792 42.2892 183.525 43.0266C185.128 43.7271 186.308 45.1281 186.972 47.2112Z" fill="white"/>
<path d="M176.593 51.9125C177.92 51.9125 179.358 51.7835 180.888 51.5438L180.851 51.3595C175.302 52.2259 171.062 51.5069 168.242 49.221C165.145 46.7139 164.924 43.1376 164.924 43.1191L164.739 43.1376C164.739 43.1744 164.961 46.8245 168.113 49.387C170.214 51.0645 173.053 51.9125 176.593 51.9125Z" fill="white"/>
<path d="M127.538 148.528C127.538 148.528 122.339 146.076 120.662 146.334C120.662 146.334 119.888 147.496 121.178 148.049C122.45 148.602 127.243 150.427 127.538 148.528Z" fill="#FFC7BB"/>
<path d="M9.37273 163H243.383C243.918 163 244.36 162.558 244.36 162.023C244.36 161.488 243.918 161.046 243.383 161.046H9.39116C8.85655 161.046 8.41411 161.488 8.41411 162.023C8.39566 162.558 8.83812 163 9.37273 163Z" fill="#A07769"/>
<path d="M73.8749 158.926H37.5216C37.0238 158.926 36.5814 158.613 36.3971 158.152L28.7282 137.634C28.4333 136.86 29.0047 136.03 29.8527 136.03H66.3166C66.8144 136.03 67.2568 136.344 67.4412 136.805L74.981 157.322C75.2759 158.115 74.7044 158.926 73.8749 158.926Z" fill="#272727"/>
<path d="M29.2076 138.85L36.4156 158.133C36.5999 158.612 37.0608 158.944 37.577 158.944H72.6583C73.5247 158.944 74.1146 158.078 73.8197 157.267L71.1097 149.985L66.6301 137.984C66.4458 137.505 65.9849 137.173 65.4687 137.173H30.3874C29.5025 137.173 28.8942 138.039 29.2076 138.85Z" fill="white"/>
<path d="M37.2074 160.714H73.5238C74.0216 160.714 74.4087 160.309 74.4087 159.829C74.4087 159.331 74.0031 158.944 73.5238 158.944H37.2074C36.7097 158.944 36.3225 159.35 36.3225 159.829C36.3225 160.309 36.7097 160.714 37.2074 160.714Z" fill="#DBBEBF"/>
<path d="M74.3906 160.714H107.868C108.366 160.714 108.753 160.309 108.753 159.829C108.753 159.331 108.347 158.944 107.868 158.944H74.3906C73.8928 158.944 73.5057 159.35 73.5057 159.829C73.4873 160.309 73.8928 160.714 74.3906 160.714Z" fill="#272727"/>
<path d="M29.2076 138.85L36.4156 158.133C36.5999 158.612 37.0608 158.944 37.577 158.944H72.6583C73.5247 158.944 74.1146 158.078 73.8197 157.267L71.1097 149.985L46.2966 137.173H30.3874C29.5025 137.173 28.8942 138.039 29.2076 138.85Z" fill="#E3D0D4"/>
<path d="M99.9045 47.2295L104.145 59.802H86.8527L90.7793 47.2295H99.9045Z" fill="#FFFAC1"/>
<path d="M97.5459 40.4092L103.095 47.23H88.2179L93.4534 40.4092H97.5459Z" fill="#A07769"/>
<path d="M93.4529 34.1045H97.5454V40.4276H93.4529V34.1045Z" fill="#A07769"/>
<path d="M95.646 47.2295V59.802H86.8526L90.7792 47.2295H95.646Z" fill="#FFFAC1"/>
<path d="M95.3703 0H95.9233V37.2566H95.3703V0Z" fill="#A07769"/>
<path d="M70.8147 56.4844L75.0547 69.0569H57.7629L61.6895 56.4844H70.8147Z" fill="#FFFAC1"/>
<path d="M68.4551 49.6631L74.0039 56.4839H59.1271L64.3625 49.6631H68.4551Z" fill="#A07769"/>
<path d="M64.363 43.3584H68.4556V49.6815H64.363V43.3584Z" fill="#A07769"/>
<path d="M66.5752 56.4844V69.0569H57.7634L61.69 56.4844H66.5752Z" fill="#FFFAC1"/>
<path d="M65.9852 0H66.5352V47H65.9852V0Z" fill="#A07769"/>
<path d="M41.2803 87.3435V69.7383H24.9471L41.2803 87.3435ZM41.0959 69.9226V86.8826L25.3711 69.9226H41.0959Z" fill="#E8EBFC"/>
<path d="M104.993 88.6892L104.624 88.6523L105.177 84.0989L105.546 84.1358L105.288 86.3295C105.767 85.9608 111.445 81.5918 117.325 82.5688C120.478 83.1034 123.169 85.0391 125.289 88.3758C125.99 87.7306 128.792 85.4262 132.553 85.6659C135.889 85.8687 139.078 87.9886 142.01 91.9337L142.212 92.2102L142.507 89.7584L142.876 89.7953L142.323 94.3486L141.954 94.3118L142.194 92.3024L105.232 86.6982L104.993 88.6892ZM141.438 91.7862C138.636 88.173 135.65 86.2373 132.516 86.0346C132.331 86.0161 132.165 86.0161 131.981 86.0161C128.091 86.0161 125.381 88.7629 125.363 88.7998L125.197 88.9657L125.068 88.7629C122.985 85.4078 120.349 83.4537 117.252 82.9375C112.127 82.0895 107.131 85.4078 105.804 86.3848L141.438 91.7862Z" fill="white"/>
<path d="M114.174 93.4824L120.221 107.29C120.221 107.29 120.331 110.406 115.151 112.47C109.971 114.535 105.141 117.079 103.869 118.683L97.3061 104.986C97.3061 104.986 101.712 102.257 104.33 101.889C106.892 101.538 114.174 93.4824 114.174 93.4824Z" fill="white"/>
<path d="M30.7745 17.3096L36.8211 31.1172C36.8211 31.1172 36.9317 34.2327 31.7515 36.2973C26.5714 38.362 21.7415 40.906 20.4695 42.5099L13.9067 28.8128C13.9067 28.8128 18.3126 26.0845 20.9304 25.7158C23.4928 25.3656 30.7745 17.3096 30.7745 17.3096Z" fill="url(#paint0_linear_652_470)"/>
<path d="M235.53 28.7952L234.184 25.3295L244.268 18.6377L235.53 28.7952Z" fill="#1A1A1A"/>
<path d="M234.184 25.3295L231.29 24.3525L244.268 18.6377L234.184 25.3295Z" fill="#FDDFD2"/>
<path d="M237.613 26.3803L235.53 28.7953V25.6982L237.613 26.3803Z" fill="#1A1A1A"/>
<path d="M244.268 18.6377L240.267 27.2283L235.53 25.6982L244.268 18.6377Z" fill="#FDDFD2"/>
<path d="M226.403 42.2337C226.735 42.2337 227.048 42.1968 227.38 42.1415C229.74 41.6806 231.344 39.5791 232.357 38.049C233.924 35.6709 235.141 33.09 235.971 30.3617L235.786 30.3064C234.957 33.0163 233.759 35.5787 232.192 37.9384C230.625 40.3349 229.076 41.6069 227.343 41.9572C224.799 42.4549 222.458 40.7773 221.278 39.7265C220.375 38.9339 219.582 38.0306 218.9 37.0535C219.545 35.5234 219.84 33.8274 219.767 32.1683C219.73 31.4678 219.49 30.4723 218.882 29.9193C218.587 29.6612 218.255 29.5321 217.886 29.5506C217.462 29.569 217.112 29.7718 216.854 30.1405C216.338 30.8779 216.375 32.1867 216.67 33.0716C217.149 34.5095 217.831 35.8553 218.679 37.0904C218.495 37.5328 218.273 37.9568 218.034 38.3624C217.425 39.3763 216.411 40.6298 214.955 40.9064C213.72 41.1276 212.466 40.5745 211.508 40.0584C206.918 37.6066 203.397 33.514 200.005 29.5506C196.318 25.2737 192.52 20.8309 187.34 18.5082C182.713 16.425 177.514 16.2407 172.15 16.2223C168.795 16.2038 165.568 16.3513 163.061 18.1763C161.642 19.2087 160.628 20.6835 159.632 22.1214C158.563 23.6699 157.457 25.2737 155.872 26.2692C153.715 27.6149 150.655 27.744 147.705 26.6194C145.032 25.5871 142.765 23.7621 140.571 22.0108L124.514 9.10645L124.404 9.25392L140.46 22.1582C142.654 23.928 144.94 25.753 147.631 26.8038C150.636 27.9652 153.733 27.8177 155.945 26.4351C157.568 25.4212 158.692 23.7989 159.761 22.232C160.739 20.8125 161.752 19.3377 163.135 18.3238C165.587 16.5356 168.776 16.4066 172.113 16.4066C177.459 16.425 182.639 16.6094 187.229 18.6741C192.373 20.9784 196.152 25.4028 199.82 29.6612C203.231 33.6246 206.752 37.7356 211.379 40.2059C212.356 40.722 213.646 41.2935 214.937 41.0723C216.467 40.7958 217.518 39.4869 218.144 38.4546C218.366 38.0674 218.587 37.6619 218.753 37.2563C219.435 38.2149 220.209 39.0813 221.094 39.874C222.218 40.8142 224.172 42.2337 226.403 42.2337ZM217.978 29.7349C218.273 29.7349 218.55 29.8455 218.771 30.0483C219.324 30.546 219.564 31.5047 219.601 32.1683C219.674 33.7537 219.398 35.3759 218.79 36.8692C217.978 35.6709 217.333 34.3805 216.872 32.9979C216.596 32.1499 216.559 30.9332 217.02 30.2327C217.241 29.9193 217.536 29.7534 217.905 29.7349C217.942 29.7349 217.96 29.7349 217.978 29.7349Z" fill="white"/>
<path d="M142.97 54.1395L157.532 60.5918L148.563 80.8345L134.001 74.3822L142.97 54.1395Z" fill="#E4E3DB"/>
<path d="M4.4846 64.9213L46.626 102.975L42.1411 107.941L-0.000247829 69.888L4.4846 64.9213Z" fill="url(#paint1_linear_652_470)"/>
<path d="M45.5788 106.092L45.6895 105.945L3.40015 68.9277L1.48294 71.2689L1.63042 71.3796L3.43702 69.1858L45.5788 106.092Z" fill="#1A1A1A"/>
<path d="M16.6186 84.9329L18.8184 82.5479L18.9539 82.6728L16.7541 85.0579L16.6186 84.9329Z" fill="#1A1A1A"/>
<path d="M35.8228 102.252L38.1445 99.46L38.2863 99.5778L35.9646 102.37L35.8228 102.252Z" fill="#1A1A1A"/>
<path d="M34.5935 101.168L36.9829 98.457L37.1212 98.5789L34.7318 101.29L34.5935 101.168Z" fill="#1A1A1A"/>
<path d="M2.32457 72.0355L4.12793 69.7012L4.27382 69.8139L2.47046 72.1482L2.32457 72.0355Z" fill="#1A1A1A"/>
<path d="M99.3891 142.888L105.454 132.288L93.7665 125.614L87.7014 136.214L99.3891 142.888ZM105.196 132.343L99.3153 142.63L87.9595 136.141L93.8402 125.854L105.196 132.343Z" fill="#F6E1E4"/>
<path d="M100.274 150.666C104.182 150.666 107.371 147.477 107.371 143.569C107.371 139.661 104.182 136.472 100.274 136.472C96.3656 136.472 93.1763 139.661 93.1763 143.569C93.1763 147.477 96.3656 150.666 100.274 150.666ZM100.274 136.656C104.09 136.656 107.187 139.753 107.187 143.569C107.187 147.385 104.09 150.482 100.274 150.482C96.4577 150.482 93.3607 147.385 93.3607 143.569C93.3607 139.753 96.4577 136.656 100.274 136.656Z" fill="#F6E1E4"/>
<path d="M72.9168 134.15L88.1992 125.412L80.0879 111.217L72.9168 134.15ZM87.9596 125.338L73.2302 133.744L80.1432 111.678L87.9596 125.338Z" fill="#F6E1E4"/>
<defs>
<linearGradient id="paint0_linear_652_470" x1="25.364" y1="42.5099" x2="25.364" y2="17.3096" gradientUnits="userSpaceOnUse">
<stop stop-color="#C9C9C9"/>
<stop offset="1" stop-color="#9E8A84"/>
</linearGradient>
<linearGradient id="paint1_linear_652_470" x1="2.24218" y1="67.4047" x2="44.3836" y2="105.458" gradientUnits="userSpaceOnUse">
<stop stop-color="#BBBBBB"/>
<stop offset="1" stop-color="#E6E6E6"/>
</linearGradient>
</defs>
</svg>
