<svg width="245" height="163" viewBox="0 0 245 163" fill="none" xmlns="http://www.w3.org/2000/svg">
<path d="M111.812 159.829H137.805V161.027H111.812V159.829Z" fill="#272727"/>
<path d="M113.788 158.649H136.684V159.829H113.788V158.649Z" fill="#FDDFD2"/>
<path d="M158.562 95.5472C158.562 95.5472 139.907 123.55 136.699 138.15L148.35 161.58L158.562 95.5472Z" fill="#6F95F1"/>
<path d="M123.371 153.654L148.332 161.58L143.834 118.904H120.883L123.371 153.654Z" fill="#8D9BF2"/>
<path d="M195.986 83.7859L218.679 97.0958C218.679 97.0958 241.132 139.625 238.22 153.893L220.817 161.58H148.332C148.332 161.58 149.991 103.99 158.545 95.5472L178.104 85.2054L195.986 83.7859Z" fill="white"/>
<path d="M178.121 78.366V85.2053C178.121 85.2053 182.804 93.0401 195.984 83.7858L191.357 57.6454L178.877 77.2231L178.121 78.366Z" fill="#FFC7BB"/>
<path d="M178.122 78.366V82.9931C181.109 82.8272 190.013 81.1312 190.031 66.494L178.86 77.2046L178.122 78.366Z" fill="#C98272"/>
<path d="M168.537 57.4057C168.537 57.4057 170.583 76.7991 178.123 78.3844C179.855 78.7531 181.902 78.1632 184.261 76.1723C187.727 73.2596 189.847 69.0749 190.345 64.5768C191.101 57.9956 189.921 51.4697 189.921 51.4697L172.113 56.4102L168.537 57.4057Z" fill="#FFC7BB"/>
<path d="M135.98 155.829L132.238 158.723L134.506 154.52L135.98 155.829Z" fill="#281616"/>
<path d="M155.042 131.145L155.871 131.845C156.111 132.048 156.479 132.03 156.701 131.771L158.12 130.112C158.323 129.873 158.304 129.504 158.046 129.283L157.217 128.582C156.977 128.379 156.608 128.398 156.387 128.656L154.968 130.315C154.765 130.555 154.783 130.923 155.042 131.145Z" fill="#281616"/>
<path d="M156.295 129.559L157.364 130.481C157.678 130.758 158.157 130.721 158.434 130.389L159.632 128.988C159.908 128.674 159.871 128.195 159.54 127.919L158.47 126.997C158.157 126.72 157.678 126.757 157.401 127.089L156.203 128.49C155.926 128.803 155.963 129.301 156.295 129.559Z" fill="#FB2257"/>
<path d="M134.707 154.833L135.776 155.755C136.089 156.032 136.569 155.995 136.845 155.663L157.308 131.661C157.584 131.347 157.547 130.868 157.215 130.592L156.146 129.67C155.833 129.393 155.354 129.43 155.077 129.762L134.614 153.764C134.338 154.077 134.393 154.557 134.707 154.833Z" fill="#F8CA7A"/>
<path d="M129.508 140.03C129.508 140.03 121.138 135.034 120.53 135.219C119.922 135.403 120.235 138.132 120.235 138.132C120.235 138.132 129.139 143.238 129.508 140.03Z" fill="#FFC7BB"/>
<path d="M129.582 143.201C129.582 143.201 129.619 141.192 121.286 142.261C121.286 142.261 121.01 144.436 123.167 144.307C125.324 144.178 128.826 144.584 129.582 143.201Z" fill="#FFC7BB"/>
<path d="M129.511 144.971C129.511 144.971 123.133 143.754 121.418 144.694C121.418 144.694 120.957 146.482 122.506 146.704C124.054 146.925 129.769 147.496 129.511 144.971Z" fill="#FFC7BB"/>
<path d="M120.236 138.131L122.504 141.099V139.311L120.236 138.131Z" fill="#C98272"/>
<path d="M206.99 116.839C206.99 116.839 208.096 131.034 216.078 142.777L185.108 151.626C185.126 151.644 189.661 131.255 206.99 116.839Z" fill="#6F95F1"/>
<path d="M137.176 143.588C137.416 141.763 147.094 141.634 148.735 141.763C150.375 141.911 163.372 150.575 164.902 150.944C166.045 151.22 169.566 150.464 171.262 150.077C171.963 149.911 172.681 149.764 173.4 149.653L218.492 142.224C220.206 141.634 222.123 141.284 224.151 141.284C231.673 141.284 237.793 145.911 237.793 151.626V151.755C237.701 157.414 231.636 161.968 224.151 161.968C223.875 161.968 223.617 161.968 223.34 161.949L172.239 160.714H172.184L165.566 160.548C162.266 163.111 149.491 158.594 149.491 158.594L141.619 159.387C138.872 158.742 140.494 156.492 140.494 156.492C136.807 156.492 138.909 153.137 138.909 153.137C138.909 153.137 138.301 153.027 138.006 151.921C136.715 153.064 135.462 152.861 135.462 152.861C135.462 152.861 136.936 145.413 137.176 143.588ZM145.546 145.69L140.402 146.999C140.292 147.496 140.181 147.957 140.052 148.381C142.246 146.962 145.343 145.763 145.546 145.69Z" fill="#FFC7BB"/>
<path d="M149.475 158.594C149.475 158.594 162.269 163.111 165.55 160.548L172.168 160.714H172.223L223.325 161.949C223.601 161.968 223.859 161.968 224.136 161.968C231.602 161.968 237.685 157.414 237.777 151.755C233.924 155.184 225.776 159.774 210.752 158.041C187.58 155.386 152.554 155.571 149.475 158.594Z" fill="#C98272"/>
<path d="M211.49 134.905L212.006 134.703C208.632 126.112 206.973 118.738 207.121 112.784C207.231 107.991 208.503 104.083 210.881 101.188C215.472 95.6394 222.477 95.7869 222.551 95.8053L222.68 95.2707C222.108 95.1232 215.361 95.2891 210.771 100.469C208.172 103.419 206.752 107.419 206.568 112.378C206.347 118.48 208.006 126.057 211.49 134.905Z" fill="#1A1A1A"/>
<path d="M168.535 57.4058C168.535 57.4058 170.581 76.7991 178.121 78.3845C178.121 78.3845 170.747 65.0746 172.111 56.4103L168.535 57.4058Z" fill="#C98272"/>
<path d="M188.3 56.8711C188.3 56.8711 160.759 65.6092 160.501 45.9946C160.224 26.3801 167.359 48.2252 171.635 44.0405C175.912 39.8559 189.038 34.7679 189.812 46.8058C189.812 46.8058 195.343 41.2753 192.577 59.8207C191.6 63.1942 188.3 56.8711 188.3 56.8711Z" fill="#1A1A1A"/>
<path d="M191.063 59.0648C191.063 59.0648 195.691 50.5664 194.566 58.6408C193.442 66.7337 192.538 65.9041 191.063 59.0648Z" fill="#FFC7BB"/>
<path d="M192.448 58.3828C192.448 58.3828 194.826 54.4009 193.665 59.8022C192.503 65.2036 191.969 59.452 191.969 59.452L193.222 60.0235L192.448 58.3828Z" fill="#C98272"/>
<path d="M185.295 92.0446C187.913 92.0446 190.18 91.4547 191.968 90.7173C196.448 88.8554 199.01 85.7952 199.121 85.6662L198.697 85.3159C198.679 85.3528 196.116 88.4314 191.747 90.2196C187.728 91.8787 181.313 92.7451 173.515 87.5096L173.202 87.9705C177.737 91.0307 181.829 92.0446 185.295 92.0446Z" fill="#1A1A1A"/>
<path d="M175.136 54.6036C177.127 54.6036 179.339 54.2718 181.754 53.6081L181.699 53.4238C175.597 55.0829 170.859 54.6405 167.614 52.078C162.858 48.3358 163.024 41.2753 163.024 41.22H162.84C162.84 41.2937 162.692 48.4464 167.504 52.2439C169.513 53.8109 172.057 54.6036 175.136 54.6036Z" fill="white"/>
<path d="M186.972 47.2114L187.156 47.1561C186.474 45.0361 185.276 43.5797 183.58 42.8608C181.829 42.1049 178.603 41.7547 173.256 44.3355C173.127 44.3909 173.035 44.4462 173.017 44.4462L173.035 44.5015V44.6305C173.072 44.6305 173.091 44.6121 173.349 44.5015C178.639 41.939 181.792 42.2893 183.525 43.0267C185.128 43.7272 186.308 45.1282 186.972 47.2114Z" fill="white"/>
<path d="M176.591 51.9121C177.919 51.9121 179.357 51.7831 180.887 51.5435L180.85 51.3591C175.301 52.2255 171.061 51.5066 168.24 49.2207C165.143 46.7136 164.922 43.1372 164.922 43.1188L164.738 43.1372C164.738 43.1741 164.959 46.8242 168.111 49.3866C170.213 51.0641 173.052 51.9121 176.591 51.9121Z" fill="white"/>
<path d="M127.535 148.529C127.535 148.529 122.337 146.077 120.659 146.335C120.659 146.335 119.885 147.496 121.175 148.049C122.447 148.602 127.24 150.427 127.535 148.529Z" fill="#FFC7BB"/>
<path d="M9.37175 163H243.382C243.917 163 244.359 162.558 244.359 162.023C244.359 161.488 243.917 161.046 243.382 161.046H9.39018C8.85558 161.046 8.41313 161.488 8.41313 162.023C8.39468 162.558 8.83714 163 9.37175 163Z" fill="#A07769"/>
<path d="M73.8739 158.926H37.5206C37.0229 158.926 36.5804 158.612 36.3961 158.152L28.7272 137.634C28.4323 136.859 29.0038 136.03 29.8517 136.03H66.3157C66.8134 136.03 67.2558 136.343 67.4402 136.804L74.98 157.322C75.2749 158.115 74.7035 158.926 73.8739 158.926Z" fill="#272727"/>
<path d="M29.2095 138.85L36.4175 158.133C36.6019 158.612 37.0627 158.944 37.5789 158.944H72.6602C73.5266 158.944 74.1166 158.078 73.8216 157.267L71.1117 149.985L66.6321 137.984C66.4477 137.505 65.9868 137.173 65.4707 137.173H30.3894C29.5045 137.173 28.8961 138.039 29.2095 138.85Z" fill="white"/>
<path d="M37.2089 160.714H73.5253C74.023 160.714 74.4102 160.309 74.4102 159.829C74.4102 159.331 74.0046 158.944 73.5253 158.944H37.2089C36.7111 158.944 36.324 159.35 36.324 159.829C36.324 160.309 36.7111 160.714 37.2089 160.714Z" fill="#DBBEBF"/>
<path d="M74.3915 160.714H107.869C108.367 160.714 108.754 160.309 108.754 159.829C108.754 159.331 108.348 158.944 107.869 158.944H74.3915C73.8938 158.944 73.5067 159.35 73.5067 159.829C73.4882 160.309 73.8938 160.714 74.3915 160.714Z" fill="#272727"/>
<path d="M29.2095 138.85L36.4175 158.133C36.6019 158.612 37.0627 158.944 37.5789 158.944H72.6602C73.5266 158.944 74.1166 158.078 73.8216 157.267L71.1117 149.985L46.2985 137.173H30.3894C29.5045 137.173 28.8961 138.039 29.2095 138.85Z" fill="#E3D0D4"/>
<path d="M99.9045 47.2299L104.145 59.8023H86.8527L90.7793 47.2299H99.9045Z" fill="#FFFAC1"/>
<path d="M97.5449 40.4089L103.094 47.2298H88.2169L93.4524 40.4089H97.5449Z" fill="#A07769"/>
<path d="M93.4544 34.1042H97.5469V40.4274H93.4544V34.1042Z" fill="#A07769"/>
<path d="M95.6484 47.2299V59.8023H86.8551L90.7817 47.2299H95.6484Z" fill="#FFFAC1"/>
<path d="M95.3688 0H95.9219V37.2566H95.3688V0Z" fill="#A07769"/>
<path d="M70.8147 56.4841L75.0547 69.0566H57.7629L61.6895 56.4841H70.8147Z" fill="#FFFAC1"/>
<path d="M68.4551 49.6632L74.0039 56.4841H59.1271L64.3625 49.6632H68.4551Z" fill="#A07769"/>
<path d="M64.3645 43.3585H68.457V49.6816H64.3645V43.3585Z" fill="#A07769"/>
<path d="M66.5742 56.4841V69.0566H57.7624L61.689 56.4841H66.5742Z" fill="#FFFAC1"/>
<path d="M65.9852 0H66.5352V47H65.9852V0Z" fill="#A07769"/>
<path d="M41.2773 87.3439V69.7388H24.9442L41.2773 87.3439ZM41.093 69.9231V86.8831L25.3682 69.9231H41.093Z" fill="#E8EBFC"/>
<path d="M104.992 88.6897L104.623 88.6528L105.176 84.0994L105.545 84.1363L105.287 86.33C105.766 85.9613 111.444 81.5923 117.324 82.5693C120.477 83.1039 123.168 85.0396 125.288 88.3763C125.989 87.7311 128.791 85.4267 132.552 85.6664C135.888 85.8691 139.077 87.9891 142.009 91.9342L142.211 92.2107L142.506 89.7589L142.875 89.7957L142.322 94.3491L141.953 94.3123L142.193 92.3029L105.231 86.6987L104.992 88.6897ZM141.437 91.7867C138.635 88.1735 135.649 86.2378 132.515 86.0351C132.33 86.0166 132.164 86.0166 131.98 86.0166C128.09 86.0166 125.38 88.7634 125.362 88.8003L125.196 88.9662L125.067 88.7634C122.984 85.4083 120.348 83.4542 117.251 82.938C112.126 82.09 107.13 85.4083 105.803 86.3853L141.437 91.7867Z" fill="white"/>
<path d="M114.172 93.4827L120.219 107.29C120.219 107.29 120.329 110.406 115.149 112.47C109.969 114.535 105.139 117.079 103.867 118.683L97.3042 104.986C97.3042 104.986 101.71 102.258 104.328 101.889C106.89 101.539 114.172 93.4827 114.172 93.4827Z" fill="white"/>
<path d="M30.7735 17.3103L36.8201 31.1179C36.8201 31.1179 36.9307 34.2334 31.7506 36.2981C26.5704 38.3628 21.7405 40.9068 20.4685 42.5106L13.9058 28.8136C13.9058 28.8136 18.3117 26.0852 20.9294 25.7165C23.4918 25.3663 30.7735 17.3103 30.7735 17.3103Z" fill="url(#paint0_linear_234_1132)"/>
<path d="M235.528 28.7951L234.182 25.3294L244.266 18.6376L235.528 28.7951Z" fill="#1A1A1A"/>
<path d="M234.182 25.3294L231.288 24.3523L244.266 18.6376L234.182 25.3294Z" fill="#FDDFD2"/>
<path d="M237.609 26.3801L235.526 28.795V25.698L237.609 26.3801Z" fill="#1A1A1A"/>
<path d="M244.266 18.6376L240.265 27.2282L235.528 25.6981L244.266 18.6376Z" fill="#FDDFD2"/>
<path d="M226.401 42.234C226.733 42.234 227.046 42.1972 227.378 42.1419C229.738 41.681 231.342 39.5794 232.356 38.0494C233.922 35.6713 235.139 33.0904 235.969 30.3621L235.784 30.3068C234.955 33.0167 233.757 35.5791 232.19 37.9387C230.623 40.3353 229.074 41.6073 227.341 41.9575C224.797 42.4553 222.456 40.7777 221.276 39.7269C220.373 38.9342 219.58 38.0309 218.898 37.0539C219.543 35.5238 219.838 33.8278 219.765 32.1687C219.728 31.4682 219.488 30.4727 218.88 29.9196C218.585 29.6615 218.253 29.5325 217.884 29.5509C217.46 29.5694 217.11 29.7722 216.852 30.1408C216.336 30.8782 216.373 32.1871 216.668 33.072C217.147 34.5099 217.829 35.8556 218.677 37.0907C218.493 37.5332 218.271 37.9572 218.032 38.3627C217.423 39.3767 216.409 40.6302 214.953 40.9067C213.718 41.128 212.464 40.5749 211.506 40.0587C206.916 37.6069 203.395 33.5144 200.003 29.5509C196.316 25.2741 192.518 20.8313 187.338 18.5085C182.711 16.4254 177.512 16.2411 172.148 16.2226C168.793 16.2042 165.566 16.3517 163.059 18.1767C161.64 19.209 160.626 20.6838 159.63 22.1217C158.561 23.6703 157.455 25.2741 155.87 26.2696C153.713 27.6153 150.653 27.7443 147.703 26.6198C145.03 25.5875 142.763 23.7624 140.569 22.0111L124.512 9.10681L124.402 9.25429L140.458 22.1586C142.652 23.9283 144.938 25.7534 147.629 26.8042C150.634 27.9655 153.731 27.8181 155.944 26.4355C157.566 25.4216 158.69 23.7993 159.76 22.2323C160.737 20.8129 161.75 19.3381 163.133 18.3242C165.585 16.536 168.774 16.407 172.111 16.407C177.457 16.4254 182.637 16.6098 187.227 18.6744C192.371 20.9788 196.15 25.4031 199.818 29.6615C203.229 33.625 206.75 37.736 211.377 40.2062C212.354 40.7224 213.644 41.2939 214.935 41.0727C216.465 40.7961 217.516 39.4873 218.142 38.4549C218.364 38.0678 218.585 37.6622 218.751 37.2567C219.433 38.2153 220.207 39.0817 221.092 39.8744C222.216 40.8146 224.171 42.234 226.401 42.234ZM217.976 29.7353C218.271 29.7353 218.548 29.8459 218.769 30.0487C219.322 30.5464 219.562 31.505 219.599 32.1687C219.672 33.7541 219.396 35.3763 218.788 36.8695C217.976 35.6713 217.331 34.3808 216.87 32.9982C216.594 32.1502 216.557 30.9335 217.018 30.233C217.239 29.9196 217.534 29.7537 217.903 29.7353C217.94 29.7353 217.958 29.7353 217.976 29.7353Z" fill="white"/>
<path d="M142.969 54.1403L157.531 60.5925L148.562 80.8352L134 74.383L142.969 54.1403Z" fill="#E4E3DB"/>
<path d="M4.48363 64.9216L46.625 102.975L42.1401 107.942L-0.00122439 69.8882L4.48363 64.9216Z" fill="url(#paint1_linear_234_1132)"/>
<path d="M45.5769 106.092L45.6875 105.944L3.3982 68.9275L1.48098 71.2687L1.62847 71.3793L3.43506 69.1856L45.5769 106.092Z" fill="#1A1A1A"/>
<path d="M16.6205 84.9328L18.8203 82.5477L18.9558 82.6727L16.756 85.0578L16.6205 84.9328Z" fill="#1A1A1A"/>
<path d="M35.8228 102.253L38.1445 99.4606L38.2863 99.5784L35.9646 102.371L35.8228 102.253Z" fill="#1A1A1A"/>
<path d="M34.591 101.168L36.9805 98.457L37.1188 98.5789L34.7293 101.29L34.591 101.168Z" fill="#1A1A1A"/>
<path d="M2.32164 72.0355L4.125 69.7012L4.27089 69.8139L2.46753 72.1482L2.32164 72.0355Z" fill="#1A1A1A"/>
<path d="M99.3881 142.888L105.453 132.288L93.7655 125.614L87.7005 136.214L99.3881 142.888ZM105.195 132.343L99.3144 142.63L87.9586 136.141L93.8392 125.854L105.195 132.343Z" fill="#F6E1E4"/>
<path d="M100.274 150.667C104.182 150.667 107.371 147.478 107.371 143.57C107.371 139.662 104.182 136.473 100.274 136.473C96.3656 136.473 93.1763 139.662 93.1763 143.57C93.1763 147.478 96.3656 150.667 100.274 150.667ZM100.274 136.657C104.09 136.657 107.187 139.754 107.187 143.57C107.187 147.386 104.09 150.483 100.274 150.483C96.4577 150.483 93.3607 147.386 93.3607 143.57C93.3607 139.754 96.4577 136.657 100.274 136.657Z" fill="#F6E1E4"/>
<path d="M72.9129 134.15L88.1953 125.412L80.084 111.217L72.9129 134.15ZM87.9557 125.338L73.2263 133.744L80.1393 111.678L87.9557 125.338Z" fill="#F6E1E4"/>
<defs>
<linearGradient id="paint0_linear_234_1132" x1="25.363" y1="42.5106" x2="25.363" y2="17.3103" gradientUnits="userSpaceOnUse">
<stop stop-color="#C9C9C9"/>
<stop offset="1" stop-color="#9E8A84"/>
</linearGradient>
<linearGradient id="paint1_linear_234_1132" x1="2.2412" y1="67.4049" x2="44.3826" y2="105.458" gradientUnits="userSpaceOnUse">
<stop stop-color="#BBBBBB"/>
<stop offset="1" stop-color="#E6E6E6"/>
</linearGradient>
</defs>
</svg>
