<svg width="577" height="371" viewBox="0 0 577 371" fill="none" xmlns="http://www.w3.org/2000/svg">
<path fill-rule="evenodd" clip-rule="evenodd" d="M180.233 236.194H12.0155C6.48553 236.194 2.00259 239.824 2.00259 244.301V344.836C2.00259 349.314 6.48553 352.943 12.0155 352.943H180.233C185.763 352.943 190.246 349.314 190.246 344.836V244.301C190.246 239.824 185.763 236.194 180.233 236.194ZM12.0155 234.572C5.37954 234.572 0 238.928 0 244.301V344.836C0 350.209 5.37954 354.565 12.0155 354.565H180.233C186.869 354.565 192.248 350.209 192.248 344.836V244.301C192.248 238.928 186.869 234.572 180.233 234.572H12.0155Z" fill="url(#paint0_linear_231_184)"/>
<path d="M15.543 253.975C15.543 252.189 17.109 250.741 19.0408 250.741H148.849C150.78 250.741 152.346 252.189 152.346 253.975C152.346 255.761 150.78 257.209 148.849 257.209H19.0408C17.109 257.209 15.543 255.761 15.543 253.975Z" fill="url(#paint1_linear_231_184)"/>
<path d="M15.543 270.143C15.543 268.357 17.109 266.909 19.0408 266.909H61.0146C62.9464 266.909 64.5124 268.357 64.5124 270.143C64.5124 271.929 62.9464 273.377 61.0146 273.377H19.0408C17.109 273.377 15.543 271.929 15.543 270.143Z" fill="url(#paint2_linear_231_184)"/>
<path d="M70.7344 270.143C70.7344 268.357 72.3004 266.909 74.2322 266.909H90.5553C92.4871 266.909 94.0532 268.357 94.0532 270.143C94.0532 271.929 92.4871 273.377 90.5553 273.377H74.2322C72.3004 273.377 70.7344 271.929 70.7344 270.143Z" fill="url(#paint3_linear_231_184)"/>
<path d="M15.543 334.817C15.543 333.031 17.109 331.583 19.0408 331.583H61.0146C62.9464 331.583 64.5124 333.031 64.5124 334.817C64.5124 336.603 62.9464 338.05 61.0146 338.05H19.0408C17.109 338.05 15.543 336.603 15.543 334.817Z" fill="url(#paint4_linear_231_184)"/>
<path d="M70.7344 334.817C70.7344 333.031 72.3004 331.583 74.2322 331.583H90.5553C92.4871 331.583 94.0532 333.031 94.0532 334.817C94.0532 336.603 92.4871 338.05 90.5553 338.05H74.2322C72.3004 338.05 70.7344 336.603 70.7344 334.817Z" fill="url(#paint5_linear_231_184)"/>
<path d="M43.5273 302.481C43.5273 300.695 45.0934 299.247 47.0252 299.247H58.6846C60.6163 299.247 62.1824 300.695 62.1824 302.481C62.1824 304.267 60.6163 305.715 58.6846 305.715H47.0252C45.0934 305.715 43.5273 304.267 43.5273 302.481Z" fill="url(#paint6_linear_231_184)"/>
<path d="M69.1777 302.481C69.1777 300.695 70.7438 299.247 72.6756 299.247H122.422C124.354 299.247 125.92 300.695 125.92 302.481C125.92 304.267 124.354 305.715 122.422 305.715H72.6756C70.7438 305.715 69.1777 304.267 69.1777 302.481Z" fill="url(#paint7_linear_231_184)"/>
<path d="M15.543 302.481C15.543 300.695 17.109 299.247 19.0408 299.247H35.3639C37.2957 299.247 38.8618 300.695 38.8618 302.481C38.8618 304.267 37.2957 305.715 35.3639 305.715H19.0408C17.109 305.715 15.543 304.267 15.543 302.481Z" fill="url(#paint8_linear_231_184)"/>
<path d="M15.543 286.312C15.543 284.526 17.109 283.078 19.0408 283.078H75.7832C77.715 283.078 79.281 284.526 79.281 286.312C79.281 288.098 77.715 289.546 75.7832 289.546H19.0408C17.109 289.546 15.543 288.098 15.543 286.312Z" fill="url(#paint9_linear_231_184)"/>
<path d="M84.7227 286.312C84.7227 284.526 86.2887 283.078 88.2205 283.078H114.648C116.58 283.078 118.146 284.526 118.146 286.312C118.146 288.098 116.58 289.546 114.648 289.546H88.2205C86.2887 289.546 84.7227 288.098 84.7227 286.312Z" fill="url(#paint10_linear_231_184)"/>
<path d="M15.543 318.65C15.543 316.864 17.109 315.416 19.0408 315.416H75.7832C77.715 315.416 79.281 316.864 79.281 318.65C79.281 320.436 77.715 321.883 75.7832 321.883H19.0408C17.109 321.883 15.543 320.436 15.543 318.65Z" fill="url(#paint11_linear_231_184)"/>
<path d="M80.0234 15.3602C80.0234 6.87699 87.4621 0 96.6381 0H530.367C539.543 0 546.982 6.877 546.982 15.3602V310.438C546.982 318.921 539.543 325.798 530.367 325.798H96.6381C87.4621 325.798 80.0234 318.921 80.0234 310.438V15.3602Z" fill="url(#paint12_linear_231_184)"/>
<path fill-rule="evenodd" clip-rule="evenodd" d="M530.125 1.61686H96.3959C88.1858 1.61686 81.5302 7.76997 81.5302 15.3602V310.438C81.5302 318.028 88.1858 324.181 96.3959 324.181H530.125C538.335 324.181 544.991 318.028 544.991 310.438V15.3602C544.991 7.76997 538.335 1.61686 530.125 1.61686ZM96.3959 0C87.2199 0 79.7812 6.877 79.7812 15.3602V310.438C79.7812 318.921 87.2199 325.798 96.3959 325.798H530.125C539.301 325.798 546.74 318.921 546.74 310.438V15.3602C546.74 6.877 539.301 0 530.125 0H96.3959Z" fill="url(#paint13_linear_231_184)"/>
<path d="M90.2734 30.316C90.2734 21.1631 98.2993 13.7432 108.2 13.7432H511.323C521.224 13.7432 529.249 21.1631 529.249 30.316C529.249 39.469 521.224 46.8889 511.323 46.8889H108.2C98.2993 46.8889 90.2734 39.469 90.2734 30.316Z" fill="url(#paint14_linear_231_184)"/>
<path fill-rule="evenodd" clip-rule="evenodd" d="M516.913 65.6782H348.695C343.165 65.6782 338.682 69.3081 338.682 73.7858V174.32C338.682 178.798 343.165 182.428 348.695 182.428H516.913C522.443 182.428 526.926 178.798 526.926 174.32V73.7858C526.926 69.3081 522.443 65.6782 516.913 65.6782ZM348.695 64.0566C342.059 64.0566 336.68 68.4125 336.68 73.7858V174.32C336.68 179.693 342.059 184.049 348.695 184.049H516.913C523.549 184.049 528.928 179.693 528.928 174.32V73.7858C528.928 68.4125 523.549 64.0566 516.913 64.0566H348.695Z" fill="url(#paint15_linear_231_184)"/>
<path d="M352.225 83.4593C352.225 81.6734 353.791 80.2256 355.722 80.2256H485.53C487.462 80.2256 489.028 81.6734 489.028 83.4593C489.028 85.2453 487.462 86.693 485.53 86.693H355.722C353.791 86.693 352.225 85.2453 352.225 83.4593Z" fill="url(#paint16_linear_231_184)"/>
<path d="M352.225 99.6273C352.225 97.8413 353.791 96.3936 355.722 96.3936H397.696C399.628 96.3936 401.194 97.8413 401.194 99.6273C401.194 101.413 399.628 102.861 397.696 102.861H355.722C353.791 102.861 352.225 101.413 352.225 99.6273Z" fill="url(#paint17_linear_231_184)"/>
<path d="M407.408 99.6273C407.408 97.8413 408.974 96.3936 410.906 96.3936H427.229C429.161 96.3936 430.727 97.8413 430.727 99.6273C430.727 101.413 429.161 102.861 427.229 102.861H410.906C408.974 102.861 407.408 101.413 407.408 99.6273Z" fill="url(#paint18_linear_231_184)"/>
<path d="M352.225 164.301C352.225 162.515 353.791 161.067 355.722 161.067H397.696C399.628 161.067 401.194 162.515 401.194 164.301C401.194 166.087 399.628 167.535 397.696 167.535H355.722C353.791 167.535 352.225 166.087 352.225 164.301Z" fill="url(#paint19_linear_231_184)"/>
<path d="M407.408 164.301C407.408 162.515 408.974 161.067 410.906 161.067H427.229C429.161 161.067 430.727 162.515 430.727 164.301C430.727 166.087 429.161 167.535 427.229 167.535H410.906C408.974 167.535 407.408 166.087 407.408 164.301Z" fill="url(#paint20_linear_231_184)"/>
<path d="M380.207 131.965C380.207 130.179 381.773 128.731 383.705 128.731H395.364C397.296 128.731 398.862 130.179 398.862 131.965C398.862 133.751 397.296 135.199 395.364 135.199H383.705C381.773 135.199 380.207 133.751 380.207 131.965Z" fill="url(#paint21_linear_231_184)"/>
<path d="M405.859 131.965C405.859 130.179 407.425 128.731 409.357 128.731H459.104C461.036 128.731 462.602 130.179 462.602 131.965C462.602 133.751 461.036 135.199 459.104 135.199H409.357C407.425 135.199 405.859 133.751 405.859 131.965Z" fill="url(#paint22_linear_231_184)"/>
<path d="M352.225 131.965C352.225 130.179 353.791 128.731 355.722 128.731H372.046C373.977 128.731 375.543 130.179 375.543 131.965C375.543 133.751 373.977 135.199 372.046 135.199H355.722C353.791 135.199 352.225 133.751 352.225 131.965Z" fill="url(#paint23_linear_231_184)"/>
<path d="M352.225 115.796C352.225 114.01 353.791 112.562 355.722 112.562H412.465C414.397 112.562 415.963 114.01 415.963 115.796C415.963 117.582 414.397 119.03 412.465 119.03H355.722C353.791 119.03 352.225 117.582 352.225 115.796Z" fill="url(#paint24_linear_231_184)"/>
<path d="M421.404 115.796C421.404 114.01 422.97 112.562 424.902 112.562H451.33C453.262 112.562 454.828 114.01 454.828 115.796C454.828 117.582 453.262 119.03 451.33 119.03H424.902C422.97 119.03 421.404 117.582 421.404 115.796Z" fill="url(#paint25_linear_231_184)"/>
<path d="M352.225 148.134C352.225 146.348 353.791 144.9 355.722 144.9H412.465C414.397 144.9 415.963 146.348 415.963 148.134C415.963 149.92 414.397 151.368 412.465 151.368H355.722C353.791 151.368 352.225 149.92 352.225 148.134Z" fill="url(#paint26_linear_231_184)"/>
<path d="M462.32 30.4985C462.32 33.5601 459.634 36.0419 456.322 36.0419C453.01 36.0419 450.324 33.5601 450.324 30.4985C450.324 27.437 453.01 24.9551 456.322 24.9551C459.634 24.9551 462.32 27.437 462.32 30.4985Z" fill="#FED280"/>
<path d="M483.316 30.4985C483.316 33.5601 480.631 36.0419 477.318 36.0419C474.006 36.0419 471.32 33.5601 471.32 30.4985C471.32 27.437 474.006 24.9551 477.318 24.9551C480.631 24.9551 483.316 27.437 483.316 30.4985Z" fill="#8CFEE3" fill-opacity="0.9"/>
<path d="M504.306 30.4985C504.306 33.5601 501.621 36.0419 498.308 36.0419C494.996 36.0419 492.311 33.5601 492.311 30.4985C492.311 27.437 494.996 24.9551 498.308 24.9551C501.621 24.9551 504.306 27.437 504.306 30.4985Z" fill="#FF8DA9" fill-opacity="0.9"/>
<rect x="185.414" y="74" width="121.985" height="48.7188" rx="6" fill="url(#paint27_linear_231_184)"/>
<rect x="185" y="127.922" width="56.6011" height="48.7188" rx="6" fill="url(#paint28_linear_231_184)"/>
<rect x="117" y="148.922" width="61" height="28" rx="6" fill="url(#paint29_linear_231_184)"/>
<rect x="246.484" y="127.922" width="56.6011" height="48.7188" rx="6" fill="url(#paint30_linear_231_184)"/>
<path d="M101 77C101 69.8203 106.82 64 114 64H309.525C316.704 64 322.525 69.8203 322.525 77V170.993C322.525 178.172 316.704 183.993 309.525 183.993H114C106.82 183.993 101 178.172 101 170.993V77Z" fill="url(#paint31_linear_231_184)"/>
<rect x="101" y="195" width="428.411" height="106.46" rx="13" fill="url(#paint32_linear_231_184)"/>
<path d="M466 282.763C466 270.191 476.194 260 488.769 260H554.231C566.806 260 577 270.191 577 282.763V348.207C577 360.778 566.806 370.97 554.231 370.97H488.769C476.194 370.97 466 360.778 466 348.207V282.763Z" fill="#455CE9"/>
<path d="M494.467 312.614C499.071 311.757 501.374 309.387 501.374 305.506C501.374 303.791 501.148 300.857 500.697 296.705C500.245 292.282 500.019 289.078 500.019 287.092C500.019 283.843 500.922 281.361 502.728 279.646C504.579 277.931 507.039 277.073 510.109 277.073H514.037V282.421H511.26C509.5 282.421 508.19 282.827 507.333 283.64C506.475 284.407 506.046 285.693 506.046 287.499C506.046 288.807 506.136 290.432 506.317 292.373C506.498 294.268 506.61 295.555 506.656 296.231C507.107 300.564 507.333 303.723 507.333 305.709C507.333 308.101 506.723 310.109 505.504 311.734C504.331 313.314 502.502 314.374 500.019 314.916V315.051C502.502 315.593 504.331 316.676 505.504 318.301C506.723 319.925 507.333 321.934 507.333 324.326C507.333 326.312 507.107 329.471 506.656 333.803C506.61 334.48 506.498 335.789 506.317 337.73C506.136 339.625 506.046 341.227 506.046 342.536C506.046 344.342 506.475 345.628 507.333 346.395C508.19 347.207 509.5 347.614 511.26 347.614H514.037V352.962H510.109C507.039 352.962 504.579 352.104 502.728 350.389C500.922 348.674 500.019 346.192 500.019 342.942C500.019 340.957 500.245 337.752 500.697 333.329C501.148 329.177 501.374 326.244 501.374 324.529C501.374 320.648 499.071 318.278 494.467 317.421V312.614Z" fill="#0A0F1C"/>
<path d="M549.365 317.421C544.76 318.278 542.458 320.648 542.458 324.529C542.458 326.244 542.683 329.177 543.135 333.329C543.586 337.752 543.812 340.957 543.812 342.942C543.812 346.192 542.887 348.674 541.036 350.389C539.23 352.104 536.792 352.962 533.722 352.962H529.795V347.614H532.571C534.332 347.614 535.641 347.207 536.499 346.395C537.356 345.628 537.785 344.342 537.785 342.536C537.785 341.227 537.695 339.625 537.514 337.73C537.334 335.789 537.221 334.48 537.176 333.803C536.724 329.471 536.499 326.312 536.499 324.326C536.499 321.934 537.086 319.925 538.259 318.301C539.478 316.676 541.329 315.593 543.812 315.051V314.916C541.329 314.374 539.478 313.314 538.259 311.734C537.086 310.109 536.499 308.101 536.499 305.709C536.499 303.723 536.724 300.564 537.176 296.231C537.221 295.555 537.334 294.268 537.514 292.373C537.695 290.432 537.785 288.807 537.785 287.499C537.785 285.693 537.356 284.407 536.499 283.64C535.641 282.827 534.332 282.421 532.571 282.421H529.795V277.073H533.722C536.792 277.073 539.23 277.931 541.036 279.646C542.887 281.361 543.812 283.843 543.812 287.092C543.812 289.078 543.586 292.283 543.135 296.705C542.683 300.857 542.458 303.791 542.458 305.506C542.458 309.387 544.76 311.757 549.365 312.614V317.421Z" fill="#0A0F1C"/>
<path d="M117 78.3764C117 75.4071 119.407 73 122.376 73H172.556C175.525 73 177.933 75.4071 177.933 78.3764V135.725C177.933 138.694 175.525 141.101 172.556 141.101H122.376C119.407 141.101 117 138.694 117 135.725V78.3764Z" fill="white" fill-opacity="0.17"/>
<defs>
<linearGradient id="paint0_linear_231_184" x1="96.1242" y1="234.572" x2="164.692" y2="542.738" gradientUnits="userSpaceOnUse">
<stop stop-color="white" stop-opacity="0.17"/>
<stop offset="1" stop-opacity="0"/>
</linearGradient>
<linearGradient id="paint1_linear_231_184" x1="83.9447" y1="250.741" x2="91.3391" y2="290.124" gradientUnits="userSpaceOnUse">
<stop stop-color="white" stop-opacity="0.56"/>
<stop offset="1" stop-color="#C4C4C4" stop-opacity="0"/>
</linearGradient>
<linearGradient id="paint2_linear_231_184" x1="40.0277" y1="266.909" x2="56.799" y2="298.883" gradientUnits="userSpaceOnUse">
<stop stop-color="#F9C746" stop-opacity="0.52"/>
<stop offset="1" stop-color="#C4C4C4" stop-opacity="0"/>
</linearGradient>
<linearGradient id="paint3_linear_231_184" x1="82.3938" y1="266.909" x2="102.684" y2="285.33" gradientUnits="userSpaceOnUse">
<stop stop-color="#84EBE5" stop-opacity="0.62"/>
<stop offset="1" stop-color="#C4C4C4" stop-opacity="0"/>
</linearGradient>
<linearGradient id="paint4_linear_231_184" x1="40.0277" y1="331.583" x2="56.799" y2="363.557" gradientUnits="userSpaceOnUse">
<stop stop-color="white" stop-opacity="0.56"/>
<stop offset="1" stop-color="#C4C4C4" stop-opacity="0"/>
</linearGradient>
<linearGradient id="paint5_linear_231_184" x1="82.3938" y1="331.583" x2="102.684" y2="350.004" gradientUnits="userSpaceOnUse">
<stop stop-color="#F47D9E"/>
<stop offset="1" stop-color="#C4C4C4" stop-opacity="0"/>
</linearGradient>
<linearGradient id="paint6_linear_231_184" x1="52.8549" y1="299.247" x2="72.2405" y2="313.326" gradientUnits="userSpaceOnUse">
<stop stop-color="#F2C87D"/>
<stop offset="1" stop-color="#C4C4C4" stop-opacity="0"/>
</linearGradient>
<linearGradient id="paint7_linear_231_184" x1="97.5489" y1="299.247" x2="112.866" y2="333.085" gradientUnits="userSpaceOnUse">
<stop stop-color="white" stop-opacity="0.62"/>
<stop offset="1" stop-color="#C4C4C4" stop-opacity="0"/>
</linearGradient>
<linearGradient id="paint8_linear_231_184" x1="21.7613" y1="297.63" x2="57.4355" y2="303.079" gradientUnits="userSpaceOnUse">
<stop stop-color="#F37D9D"/>
<stop offset="1" stop-color="#C4C4C4" stop-opacity="0"/>
</linearGradient>
<linearGradient id="paint9_linear_231_184" x1="47.412" y1="283.078" x2="61.5468" y2="318.153" gradientUnits="userSpaceOnUse">
<stop stop-color="white" stop-opacity="0.58"/>
<stop offset="1" stop-color="#C4C4C4" stop-opacity="0"/>
</linearGradient>
<linearGradient id="paint10_linear_231_184" x1="101.434" y1="283.078" x2="121.133" y2="308.711" gradientUnits="userSpaceOnUse">
<stop stop-color="white" stop-opacity="0.45"/>
<stop offset="1" stop-color="#C4C4C4" stop-opacity="0"/>
</linearGradient>
<linearGradient id="paint11_linear_231_184" x1="47.412" y1="315.416" x2="61.5468" y2="350.491" gradientUnits="userSpaceOnUse">
<stop stop-color="#70D1E7"/>
<stop offset="1" stop-color="#C4C4C4" stop-opacity="0"/>
</linearGradient>
<linearGradient id="paint12_linear_231_184" x1="313.503" y1="0" x2="417.184" y2="477.127" gradientUnits="userSpaceOnUse">
<stop stop-color="white" stop-opacity="0.16"/>
<stop offset="1" stop-color="#C4C4C4" stop-opacity="0"/>
</linearGradient>
<linearGradient id="paint13_linear_231_184" x1="313.261" y1="1.20914e-05" x2="625.788" y2="243.877" gradientUnits="userSpaceOnUse">
<stop stop-color="white" stop-opacity="0.17"/>
<stop offset="1" stop-opacity="0"/>
</linearGradient>
<linearGradient id="paint14_linear_231_184" x1="309.761" y1="13.7431" x2="367.252" y2="205.455" gradientUnits="userSpaceOnUse">
<stop stop-color="white" stop-opacity="0.15"/>
<stop offset="1" stop-color="#C4C4C4" stop-opacity="0"/>
</linearGradient>
<linearGradient id="paint15_linear_231_184" x1="432.804" y1="64.0566" x2="501.372" y2="372.223" gradientUnits="userSpaceOnUse">
<stop stop-color="white" stop-opacity="0.17"/>
<stop offset="1" stop-opacity="0"/>
</linearGradient>
<linearGradient id="paint16_linear_231_184" x1="420.626" y1="80.2256" x2="428.021" y2="119.608" gradientUnits="userSpaceOnUse">
<stop stop-color="white" stop-opacity="0.56"/>
<stop offset="1" stop-color="#C4C4C4" stop-opacity="0"/>
</linearGradient>
<linearGradient id="paint17_linear_231_184" x1="376.709" y1="96.3936" x2="393.481" y2="128.368" gradientUnits="userSpaceOnUse">
<stop stop-color="#F9C746" stop-opacity="0.52"/>
<stop offset="1" stop-color="#C4C4C4" stop-opacity="0"/>
</linearGradient>
<linearGradient id="paint18_linear_231_184" x1="419.068" y1="96.3936" x2="439.358" y2="114.814" gradientUnits="userSpaceOnUse">
<stop stop-color="#84EBE5" stop-opacity="0.62"/>
<stop offset="1" stop-color="#C4C4C4" stop-opacity="0"/>
</linearGradient>
<linearGradient id="paint19_linear_231_184" x1="376.709" y1="161.067" x2="393.481" y2="193.042" gradientUnits="userSpaceOnUse">
<stop stop-color="white" stop-opacity="0.56"/>
<stop offset="1" stop-color="#C4C4C4" stop-opacity="0"/>
</linearGradient>
<linearGradient id="paint20_linear_231_184" x1="419.068" y1="161.067" x2="439.358" y2="179.488" gradientUnits="userSpaceOnUse">
<stop stop-color="#F47D9E"/>
<stop offset="1" stop-color="#C4C4C4" stop-opacity="0"/>
</linearGradient>
<linearGradient id="paint21_linear_231_184" x1="389.535" y1="128.731" x2="408.92" y2="142.811" gradientUnits="userSpaceOnUse">
<stop stop-color="#F2C87D"/>
<stop offset="1" stop-color="#C4C4C4" stop-opacity="0"/>
</linearGradient>
<linearGradient id="paint22_linear_231_184" x1="434.231" y1="128.731" x2="449.548" y2="162.569" gradientUnits="userSpaceOnUse">
<stop stop-color="white" stop-opacity="0.62"/>
<stop offset="1" stop-color="#C4C4C4" stop-opacity="0"/>
</linearGradient>
<linearGradient id="paint23_linear_231_184" x1="358.443" y1="127.115" x2="394.117" y2="132.563" gradientUnits="userSpaceOnUse">
<stop stop-color="#F37D9D"/>
<stop offset="1" stop-color="#C4C4C4" stop-opacity="0"/>
</linearGradient>
<linearGradient id="paint24_linear_231_184" x1="384.094" y1="112.562" x2="398.228" y2="147.637" gradientUnits="userSpaceOnUse">
<stop stop-color="white" stop-opacity="0.58"/>
<stop offset="1" stop-color="#C4C4C4" stop-opacity="0"/>
</linearGradient>
<linearGradient id="paint25_linear_231_184" x1="438.116" y1="112.562" x2="457.815" y2="138.195" gradientUnits="userSpaceOnUse">
<stop stop-color="white" stop-opacity="0.45"/>
<stop offset="1" stop-color="#C4C4C4" stop-opacity="0"/>
</linearGradient>
<linearGradient id="paint26_linear_231_184" x1="384.094" y1="144.9" x2="398.228" y2="179.975" gradientUnits="userSpaceOnUse">
<stop stop-color="#70D1E7"/>
<stop offset="1" stop-color="#C4C4C4" stop-opacity="0"/>
</linearGradient>
<linearGradient id="paint27_linear_231_184" x1="218.235" y1="54.1169" x2="235.603" y2="148.238" gradientUnits="userSpaceOnUse">
<stop stop-color="white" stop-opacity="0.31"/>
<stop offset="1" stop-color="white" stop-opacity="0"/>
</linearGradient>
<linearGradient id="paint28_linear_231_184" x1="200.229" y1="108.039" x2="233.648" y2="192.074" gradientUnits="userSpaceOnUse">
<stop stop-color="white" stop-opacity="0.31"/>
<stop offset="1" stop-color="white" stop-opacity="0"/>
</linearGradient>
<linearGradient id="paint29_linear_231_184" x1="133.413" y1="137.495" x2="144.764" y2="191.023" gradientUnits="userSpaceOnUse">
<stop stop-color="white" stop-opacity="0.31"/>
<stop offset="1" stop-color="white" stop-opacity="0"/>
</linearGradient>
<linearGradient id="paint30_linear_231_184" x1="261.713" y1="108.039" x2="295.132" y2="192.074" gradientUnits="userSpaceOnUse">
<stop stop-color="white" stop-opacity="0.31"/>
<stop offset="1" stop-color="white" stop-opacity="0"/>
</linearGradient>
<linearGradient id="paint31_linear_231_184" x1="160.603" y1="15.0286" x2="217.057" y2="240.61" gradientUnits="userSpaceOnUse">
<stop stop-color="white" stop-opacity="0.31"/>
<stop offset="1" stop-color="white" stop-opacity="0"/>
</linearGradient>
<linearGradient id="paint32_linear_231_184" x1="160.529" y1="-55.8117" x2="59.2563" y2="300.805" gradientUnits="userSpaceOnUse">
<stop stop-color="white" stop-opacity="0.31"/>
<stop offset="1" stop-color="white" stop-opacity="0"/>
</linearGradient>
</defs>
</svg>
