<svg width="528" height="480" viewBox="0 0 528 480" fill="none" xmlns="http://www.w3.org/2000/svg">
<path d="M273.143 480C413.617 480 527.493 472.6 527.493 463.47C527.493 454.341 413.617 446.94 273.143 446.94C132.669 446.94 18.793 454.341 18.793 463.47C18.793 472.6 132.669 480 273.143 480Z" fill="#455CE9"/>
<path d="M273.143 480C413.617 480 527.493 472.6 527.493 463.47C527.493 454.341 413.617 446.94 273.143 446.94C132.669 446.94 18.793 454.341 18.793 463.47C18.793 472.6 132.669 480 273.143 480Z" fill="black" fill-opacity="0.2"/>
<path opacity="0.3" d="M273.143 480C413.617 480 527.493 472.6 527.493 463.47C527.493 454.341 413.617 446.94 273.143 446.94C132.669 446.94 18.793 454.341 18.793 463.47C18.793 472.6 132.669 480 273.143 480Z" fill="white"/>
<path d="M423.457 214.315C423.38 214.315 424.341 208.622 424.443 208.21C425.545 204.15 429.696 197.068 433.706 197.083C434.373 197.106 435.028 197.295 435.63 197.64C436.231 197.984 436.765 198.475 437.196 199.081C437.627 199.687 437.947 200.395 438.134 201.157C438.321 201.92 438.371 202.721 438.28 203.509C437.986 206.882 435.449 209.736 433.155 211.4C430.465 213.399 423.457 214.315 423.457 214.315Z" fill="#455CE9"/>
<path d="M423.457 214.315C423.38 214.315 424.341 208.622 424.443 208.21C425.545 204.15 429.696 197.068 433.706 197.083C434.373 197.106 435.028 197.295 435.63 197.64C436.231 197.984 436.765 198.475 437.196 199.081C437.627 199.687 437.947 200.395 438.134 201.157C438.321 201.92 438.371 202.721 438.28 203.509C437.986 206.882 435.449 209.736 433.155 211.4C430.465 213.399 423.457 214.315 423.457 214.315Z" fill="black" fill-opacity="0.2"/>
<path d="M415.68 175.99C419.46 177.608 421.343 185.942 421.215 190.215C421.215 190.582 420.497 196.321 420.433 196.321H420.356C420.651 197.633 420.971 199.053 421.292 200.594C421.855 203.464 422.47 206.7 422.945 210.302C423.494 214.165 423.854 218.064 424.021 221.978C424.225 226.358 424.101 230.751 423.649 235.104C423.642 235.155 423.642 235.206 423.649 235.257C424.149 233.99 425.622 230.48 425.763 230.22C427.736 226.648 433.297 221.062 437.179 222.405C437.815 222.639 438.403 223.029 438.905 223.551C439.406 224.072 439.81 224.714 440.09 225.433C440.371 226.153 440.521 226.934 440.531 227.727C440.542 228.52 440.412 229.307 440.151 230.037C439.126 233.181 436.052 235.15 433.476 236.02C430.568 237.012 424.085 235.837 423.572 235.745C423.026 240.159 422.23 244.524 421.189 248.811C420.591 251.314 419.942 253.817 419.242 256.32C419.69 255.236 420.113 254.275 420.177 254.137C422.15 250.566 427.711 244.98 431.593 246.307C432.23 246.539 432.819 246.928 433.322 247.449C433.825 247.97 434.23 248.612 434.51 249.332C434.791 250.052 434.94 250.835 434.95 251.629C434.959 252.422 434.828 253.21 434.565 253.939C433.54 257.098 430.465 259.052 427.89 259.937C425.315 260.823 419.729 259.937 418.268 259.708C417.999 260.655 417.73 261.616 417.448 262.563C416.167 267.142 414.783 271.721 413.604 276.208C413.182 277.734 412.81 279.383 412.438 280.97C412.848 280.008 413.194 279.2 413.258 279.093C415.219 275.521 420.792 269.935 424.661 271.263C425.298 271.497 425.886 271.887 426.387 272.408C426.889 272.93 427.294 273.571 427.575 274.29C427.856 275.009 428.008 275.79 428.02 276.583C428.033 277.376 427.905 278.163 427.647 278.894C426.622 282.038 423.534 284.007 420.959 284.877C418.383 285.747 413.348 284.984 411.606 284.694C411.26 286.343 410.927 287.976 410.658 289.578C410.491 290.677 410.273 291.731 410.158 292.845C410.043 293.959 409.902 295.043 409.773 296.111C409.594 298.202 409.389 300.37 409.261 302.415C409.158 303.834 409.082 305.193 409.005 306.551C409.402 305.025 410.286 301.881 410.35 301.621C411.773 298.266 413.889 295.398 416.5 293.287C416.642 292.905 416.818 292.542 417.025 292.204C417.388 291.538 417.865 290.97 418.424 290.538C418.983 290.105 419.613 289.818 420.271 289.694C420.93 289.57 421.603 289.613 422.246 289.819C422.89 290.025 423.49 290.391 424.008 290.891C427.057 293.944 426.289 302.613 424.892 306.551C424.815 306.78 423.675 309.176 422.945 310.672C423.495 309.878 424.008 309.146 424.585 308.261C425.699 306.643 426.852 305.055 428.082 303.346L429.966 300.919C430.581 300.08 431.324 299.301 432.003 298.492C433.604 296.645 435.308 294.86 437.064 293.104C435.859 291.944 431.67 287.716 430.465 284.847C429.261 281.977 428.403 277.963 429.658 274.941C429.933 274.215 430.333 273.566 430.832 273.037C431.331 272.508 431.919 272.11 432.556 271.869C433.193 271.629 433.866 271.551 434.53 271.641C435.194 271.731 435.835 271.987 436.41 272.392C439.806 274.926 440.151 283.55 439.267 287.655C439.267 287.915 438.294 290.8 437.768 292.372C438.832 291.334 439.882 290.281 440.984 289.319C444.162 286.388 447.454 283.55 450.722 280.695L453.707 278.055C453.284 277.643 448.21 272.758 446.852 269.553C445.661 266.699 444.79 262.67 446.045 259.632C446.321 258.908 446.722 258.261 447.222 257.733C447.721 257.205 448.308 256.808 448.945 256.567C449.582 256.327 450.253 256.249 450.917 256.338C451.581 256.427 452.221 256.681 452.797 257.083C456.192 259.632 456.538 268.256 455.654 272.346C455.59 272.667 454.271 276.818 453.886 277.856C456.077 275.903 458.242 273.949 460.292 271.919C463.099 269.188 465.753 266.241 468.236 263.097C468.044 262.914 462.727 257.846 461.343 254.55C460.139 251.695 459.28 247.666 460.536 244.644C460.809 243.918 461.208 243.27 461.706 242.74C462.204 242.211 462.79 241.813 463.427 241.573C464.063 241.332 464.735 241.254 465.398 241.344C466.061 241.434 466.701 241.69 467.275 242.095C470.683 244.628 471.029 253.252 470.145 257.358C470.081 257.617 469.082 260.792 468.569 262.288L468.774 262.425C471.204 259.183 473.387 255.689 475.296 251.985C476.359 249.971 477.294 247.971 478.166 245.987C477.089 245.163 472.233 241.408 470.709 238.538C469.184 235.669 468.031 231.975 468.992 228.801C469.199 228.053 469.535 227.366 469.977 226.782C470.42 226.198 470.959 225.73 471.562 225.408C472.165 225.087 472.817 224.918 473.478 224.914C474.138 224.909 474.792 225.068 475.398 225.382C479.024 227.457 480.151 235.99 479.652 240.217C479.652 240.446 479.139 242.751 478.768 244.43C479.139 243.53 479.549 242.614 479.895 241.744C481.176 238.477 482.266 235.394 483.162 232.586C483.675 231.06 484.098 229.533 484.444 228.266C483.739 226.74 480.997 220.864 480.728 217.582C480.459 214.301 480.895 210.271 482.983 207.982C483.459 207.425 484.029 206.994 484.654 206.717C485.28 206.44 485.947 206.323 486.613 206.373C487.279 206.423 487.928 206.64 488.519 207.009C489.11 207.379 489.629 207.892 490.043 208.516C492.451 212.347 490.158 220.528 488.082 224.023C487.903 224.313 484.636 228.602 484.597 228.602V228.511C484.239 229.808 483.854 231.197 483.393 232.693C482.547 235.455 481.548 238.584 480.292 241.851C478.954 245.431 477.444 248.917 475.77 252.291C473.904 256.071 471.76 259.646 469.364 262.975L469.274 263.097C470.273 262.349 473.118 260.411 473.361 260.288C476.667 258.61 483.867 257.648 486.506 261.265C486.929 261.879 487.239 262.592 487.417 263.358C487.594 264.123 487.634 264.925 487.535 265.71C487.436 266.496 487.2 267.248 486.842 267.917C486.484 268.587 486.011 269.16 485.456 269.599C483.137 271.553 479.652 271.125 477.102 270.194C474.219 269.111 469.415 263.875 468.966 263.463C466.468 266.784 463.784 269.899 460.933 272.789C459.267 274.498 457.563 276.147 455.808 277.765C456.692 277.17 457.487 276.635 457.602 276.574C460.895 274.895 468.095 273.934 470.734 277.551C471.159 278.164 471.471 278.877 471.649 279.643C471.828 280.409 471.869 281.211 471.769 281.997C471.67 282.783 471.433 283.536 471.074 284.205C470.715 284.875 470.241 285.447 469.684 285.885C467.378 287.838 463.893 287.411 461.343 286.48C458.793 285.549 454.527 281.153 453.425 279.978L451.413 281.825C448.185 284.771 445.007 287.686 441.868 290.662C440.779 291.715 439.741 292.799 438.691 293.867C439.485 293.333 440.139 292.891 440.254 292.845C443.547 291.151 450.747 290.204 453.387 293.806C453.813 294.418 454.127 295.131 454.306 295.897C454.486 296.664 454.527 297.467 454.428 298.253C454.329 299.04 454.091 299.793 453.731 300.463C453.37 301.133 452.895 301.704 452.336 302.14C450.017 304.094 446.545 303.666 443.995 302.751C441.445 301.835 437.589 297.836 436.308 296.447C435.27 297.592 434.219 298.721 433.258 299.896C432.605 300.705 431.977 301.423 431.337 302.293C430.696 303.163 430.055 303.941 429.492 304.765C428.377 306.383 427.211 308.062 426.148 309.68C425.404 310.794 424.713 311.878 424.021 312.962C425.084 311.908 427.237 309.909 427.429 309.741C430.465 307.482 437.461 305.238 440.536 308.322C441.032 308.854 441.429 309.505 441.701 310.232C441.973 310.959 442.114 311.746 442.114 312.542C442.114 313.338 441.973 314.125 441.701 314.852C441.429 315.579 441.032 316.23 440.536 316.762C438.499 319.097 435.014 319.357 432.374 318.868C429.453 318.319 424.174 314.29 423.521 313.71C422.368 315.511 421.266 317.281 420.241 318.975C416.692 324.821 413.925 329.843 412.028 333.399L411.836 333.75L409.376 332.331C409.504 332.102 409.633 331.888 409.761 331.644C411.747 328.103 414.642 323.096 418.332 317.281C419.498 315.45 420.766 313.511 422.086 311.527C420.713 309.747 419.429 307.871 418.242 305.91C415.411 307.223 409.53 307.284 408.774 307.284C408.659 309.543 408.556 311.741 408.479 313.816C408.223 321.036 408.249 327.049 408.313 331.247V331.751L405.609 330.224C405.609 326.057 405.75 320.395 406.109 313.725C406.224 311.42 406.391 308.963 406.583 306.46C405.827 306.231 399.716 304.353 397.41 302.155C395.321 300.171 393.117 296.935 393.194 293.562C393.187 292.767 393.321 291.978 393.588 291.248C393.854 290.519 394.247 289.865 394.741 289.329C395.234 288.792 395.817 288.387 396.452 288.138C397.086 287.889 397.757 287.802 398.422 287.884C402.406 288.495 405.738 296.157 406.404 300.354C406.404 300.598 406.609 303.407 406.686 305.086C406.775 304.048 406.839 303.056 406.929 302.033C407.109 299.942 407.339 297.851 407.583 295.607C407.723 294.539 407.877 293.455 408.018 292.356C408.159 291.257 408.403 290.128 408.595 288.998C409.082 286.404 409.671 283.794 410.324 281.184C408.787 280.985 403.342 280.222 400.997 278.635C398.652 277.047 396.09 274.239 395.744 270.896C395.635 270.111 395.666 269.306 395.837 268.536C396.007 267.766 396.312 267.047 396.732 266.427C397.152 265.808 397.677 265.3 398.273 264.94C398.869 264.579 399.522 264.372 400.19 264.333C404.2 264.211 408.479 271.186 409.658 275.216C409.735 275.475 410.312 278.482 410.593 280.146C411.003 278.619 411.388 277.002 411.875 275.445C413.156 270.866 414.604 266.378 416.013 261.845C416.449 260.456 416.859 259.067 417.294 257.694C416.743 257.694 410.248 256.885 407.634 255.099C405.315 253.573 402.727 250.703 402.368 247.361C402.263 246.575 402.297 245.773 402.469 245.005C402.641 244.236 402.946 243.52 403.366 242.901C403.785 242.282 404.308 241.775 404.902 241.413C405.496 241.051 406.147 240.841 406.814 240.797C410.837 240.675 415.116 247.651 416.295 251.68C416.385 251.985 417.205 256.259 417.371 257.434C418.294 254.382 419.203 251.329 419.934 248.276C421.017 244.155 421.873 239.954 422.496 235.7C422.24 235.7 415.449 234.936 412.784 233.105C410.452 231.578 407.864 228.709 407.518 225.366C407.413 224.581 407.448 223.779 407.62 223.01C407.792 222.242 408.097 221.526 408.516 220.907C408.935 220.288 409.459 219.781 410.053 219.419C410.647 219.056 411.298 218.847 411.964 218.803C415.975 218.696 420.254 225.656 421.433 229.686C421.51 229.961 422.137 233.257 422.406 234.83H422.637C423.166 230.53 423.372 226.183 423.252 221.841C423.252 219.444 423.06 217.17 422.868 214.942C421.586 214.942 415.77 214.942 413.207 213.629C410.645 212.316 407.916 209.905 407.249 206.623C407.072 205.855 407.032 205.05 407.134 204.262C407.235 203.473 407.475 202.72 407.838 202.05C408.201 201.38 408.678 200.809 409.239 200.374C409.8 199.939 410.432 199.65 411.093 199.526C415.078 198.885 419.972 205.25 421.522 209.111C421.599 209.325 422.265 211.568 422.714 213.202C422.624 212.21 422.535 211.172 422.419 210.225C422.022 206.638 421.458 203.372 420.946 200.503C420.638 198.87 420.344 197.45 420.049 196.031C418.768 195.267 413.745 192.123 412.016 189.574C410.286 187.025 408.774 183.377 409.453 180.096C409.6 179.314 409.884 178.577 410.287 177.936C410.689 177.294 411.202 176.761 411.791 176.373C412.379 175.985 413.03 175.75 413.701 175.684C414.371 175.618 415.046 175.722 415.68 175.99Z" fill="#455CE9"/>
<path d="M415.68 175.99C419.46 177.608 421.343 185.942 421.215 190.215C421.215 190.582 420.497 196.321 420.433 196.321H420.356C420.651 197.633 420.971 199.053 421.292 200.594C421.855 203.464 422.47 206.7 422.945 210.302C423.494 214.165 423.854 218.064 424.021 221.978C424.225 226.358 424.101 230.751 423.649 235.104C423.642 235.155 423.642 235.206 423.649 235.257C424.149 233.99 425.622 230.48 425.763 230.22C427.736 226.648 433.297 221.062 437.179 222.405C437.815 222.639 438.403 223.029 438.905 223.551C439.406 224.072 439.81 224.714 440.09 225.433C440.371 226.153 440.521 226.934 440.531 227.727C440.542 228.52 440.412 229.307 440.151 230.037C439.126 233.181 436.052 235.15 433.476 236.02C430.568 237.012 424.085 235.837 423.572 235.745C423.026 240.159 422.23 244.524 421.189 248.811C420.591 251.314 419.942 253.817 419.242 256.32C419.69 255.236 420.113 254.275 420.177 254.137C422.15 250.566 427.711 244.98 431.593 246.307C432.23 246.539 432.819 246.928 433.322 247.449C433.825 247.97 434.23 248.612 434.51 249.332C434.791 250.052 434.94 250.835 434.95 251.629C434.959 252.422 434.828 253.21 434.565 253.939C433.54 257.098 430.465 259.052 427.89 259.937C425.315 260.823 419.729 259.937 418.268 259.708C417.999 260.655 417.73 261.616 417.448 262.563C416.167 267.142 414.783 271.721 413.604 276.208C413.182 277.734 412.81 279.383 412.438 280.97C412.848 280.008 413.194 279.2 413.258 279.093C415.219 275.521 420.792 269.935 424.661 271.263C425.298 271.497 425.886 271.887 426.387 272.408C426.889 272.93 427.294 273.571 427.575 274.29C427.856 275.009 428.008 275.79 428.02 276.583C428.033 277.376 427.905 278.163 427.647 278.894C426.622 282.038 423.534 284.007 420.959 284.877C418.383 285.747 413.348 284.984 411.606 284.694C411.26 286.343 410.927 287.976 410.658 289.578C410.491 290.677 410.273 291.731 410.158 292.845C410.043 293.959 409.902 295.043 409.773 296.111C409.594 298.202 409.389 300.37 409.261 302.415C409.158 303.834 409.082 305.193 409.005 306.551C409.402 305.025 410.286 301.881 410.35 301.621C411.773 298.266 413.889 295.398 416.5 293.287C416.642 292.905 416.818 292.542 417.025 292.204C417.388 291.538 417.865 290.97 418.424 290.538C418.983 290.105 419.613 289.818 420.271 289.694C420.93 289.57 421.603 289.613 422.246 289.819C422.89 290.025 423.49 290.391 424.008 290.891C427.057 293.944 426.289 302.613 424.892 306.551C424.815 306.78 423.675 309.176 422.945 310.672C423.495 309.878 424.008 309.146 424.585 308.261C425.699 306.643 426.852 305.055 428.082 303.346L429.966 300.919C430.581 300.08 431.324 299.301 432.003 298.492C433.604 296.645 435.308 294.86 437.064 293.104C435.859 291.944 431.67 287.716 430.465 284.847C429.261 281.977 428.403 277.963 429.658 274.941C429.933 274.215 430.333 273.566 430.832 273.037C431.331 272.508 431.919 272.11 432.556 271.869C433.193 271.629 433.866 271.551 434.53 271.641C435.194 271.731 435.835 271.987 436.41 272.392C439.806 274.926 440.151 283.55 439.267 287.655C439.267 287.915 438.294 290.8 437.768 292.372C438.832 291.334 439.882 290.281 440.984 289.319C444.162 286.388 447.454 283.55 450.722 280.695L453.707 278.055C453.284 277.643 448.21 272.758 446.852 269.553C445.661 266.699 444.79 262.67 446.045 259.632C446.321 258.908 446.722 258.261 447.222 257.733C447.721 257.205 448.308 256.808 448.945 256.567C449.582 256.327 450.253 256.249 450.917 256.338C451.581 256.427 452.221 256.681 452.797 257.083C456.192 259.632 456.538 268.256 455.654 272.346C455.59 272.667 454.271 276.818 453.886 277.856C456.077 275.903 458.242 273.949 460.292 271.919C463.099 269.188 465.753 266.241 468.236 263.097C468.044 262.914 462.727 257.846 461.343 254.55C460.139 251.695 459.28 247.666 460.536 244.644C460.809 243.918 461.208 243.27 461.706 242.74C462.204 242.211 462.79 241.813 463.427 241.573C464.063 241.332 464.735 241.254 465.398 241.344C466.061 241.434 466.701 241.69 467.275 242.095C470.683 244.628 471.029 253.252 470.145 257.358C470.081 257.617 469.082 260.792 468.569 262.288L468.774 262.425C471.204 259.183 473.387 255.689 475.296 251.985C476.359 249.971 477.294 247.971 478.166 245.987C477.089 245.163 472.233 241.408 470.709 238.538C469.184 235.669 468.031 231.975 468.992 228.801C469.199 228.053 469.535 227.366 469.977 226.782C470.42 226.198 470.959 225.73 471.562 225.408C472.165 225.087 472.817 224.918 473.478 224.914C474.138 224.909 474.792 225.068 475.398 225.382C479.024 227.457 480.151 235.99 479.652 240.217C479.652 240.446 479.139 242.751 478.768 244.43C479.139 243.53 479.549 242.614 479.895 241.744C481.176 238.477 482.266 235.394 483.162 232.586C483.675 231.06 484.098 229.533 484.444 228.266C483.739 226.74 480.997 220.864 480.728 217.582C480.459 214.301 480.895 210.271 482.983 207.982C483.459 207.425 484.029 206.994 484.654 206.717C485.28 206.44 485.947 206.323 486.613 206.373C487.279 206.423 487.928 206.64 488.519 207.009C489.11 207.379 489.629 207.892 490.043 208.516C492.451 212.347 490.158 220.528 488.082 224.023C487.903 224.313 484.636 228.602 484.597 228.602V228.511C484.239 229.808 483.854 231.197 483.393 232.693C482.547 235.455 481.548 238.584 480.292 241.851C478.954 245.431 477.444 248.917 475.77 252.291C473.904 256.071 471.76 259.646 469.364 262.975L469.274 263.097C470.273 262.349 473.118 260.411 473.361 260.288C476.667 258.61 483.867 257.648 486.506 261.265C486.929 261.879 487.239 262.592 487.417 263.358C487.594 264.123 487.634 264.925 487.535 265.71C487.436 266.496 487.2 267.248 486.842 267.917C486.484 268.587 486.011 269.16 485.456 269.599C483.137 271.553 479.652 271.125 477.102 270.194C474.219 269.111 469.415 263.875 468.966 263.463C466.468 266.784 463.784 269.899 460.933 272.789C459.267 274.498 457.563 276.147 455.808 277.765C456.692 277.17 457.487 276.635 457.602 276.574C460.895 274.895 468.095 273.934 470.734 277.551C471.159 278.164 471.471 278.877 471.649 279.643C471.828 280.409 471.869 281.211 471.769 281.997C471.67 282.783 471.433 283.536 471.074 284.205C470.715 284.875 470.241 285.447 469.684 285.885C467.378 287.838 463.893 287.411 461.343 286.48C458.793 285.549 454.527 281.153 453.425 279.978L451.413 281.825C448.185 284.771 445.007 287.686 441.868 290.662C440.779 291.715 439.741 292.799 438.691 293.867C439.485 293.333 440.139 292.891 440.254 292.845C443.547 291.151 450.747 290.204 453.387 293.806C453.813 294.418 454.127 295.131 454.306 295.897C454.486 296.664 454.527 297.467 454.428 298.253C454.329 299.04 454.091 299.793 453.731 300.463C453.37 301.133 452.895 301.704 452.336 302.14C450.017 304.094 446.545 303.666 443.995 302.751C441.445 301.835 437.589 297.836 436.308 296.447C435.27 297.592 434.219 298.721 433.258 299.896C432.605 300.705 431.977 301.423 431.337 302.293C430.696 303.163 430.055 303.941 429.492 304.765C428.377 306.383 427.211 308.062 426.148 309.68C425.404 310.794 424.713 311.878 424.021 312.962C425.084 311.908 427.237 309.909 427.429 309.741C430.465 307.482 437.461 305.238 440.536 308.322C441.032 308.854 441.429 309.505 441.701 310.232C441.973 310.959 442.114 311.746 442.114 312.542C442.114 313.338 441.973 314.125 441.701 314.852C441.429 315.579 441.032 316.23 440.536 316.762C438.499 319.097 435.014 319.357 432.374 318.868C429.453 318.319 424.174 314.29 423.521 313.71C422.368 315.511 421.266 317.281 420.241 318.975C416.692 324.821 413.925 329.843 412.028 333.399L411.836 333.75L409.376 332.331C409.504 332.102 409.633 331.888 409.761 331.644C411.747 328.103 414.642 323.096 418.332 317.281C419.498 315.45 420.766 313.511 422.086 311.527C420.713 309.747 419.429 307.871 418.242 305.91C415.411 307.223 409.53 307.284 408.774 307.284C408.659 309.543 408.556 311.741 408.479 313.816C408.223 321.036 408.249 327.049 408.313 331.247V331.751L405.609 330.224C405.609 326.057 405.75 320.395 406.109 313.725C406.224 311.42 406.391 308.963 406.583 306.46C405.827 306.231 399.716 304.353 397.41 302.155C395.321 300.171 393.117 296.935 393.194 293.562C393.187 292.767 393.321 291.978 393.588 291.248C393.854 290.519 394.247 289.865 394.741 289.329C395.234 288.792 395.817 288.387 396.452 288.138C397.086 287.889 397.757 287.802 398.422 287.884C402.406 288.495 405.738 296.157 406.404 300.354C406.404 300.598 406.609 303.407 406.686 305.086C406.775 304.048 406.839 303.056 406.929 302.033C407.109 299.942 407.339 297.851 407.583 295.607C407.723 294.539 407.877 293.455 408.018 292.356C408.159 291.257 408.403 290.128 408.595 288.998C409.082 286.404 409.671 283.794 410.324 281.184C408.787 280.985 403.342 280.222 400.997 278.635C398.652 277.047 396.09 274.239 395.744 270.896C395.635 270.111 395.666 269.306 395.837 268.536C396.007 267.766 396.312 267.047 396.732 266.427C397.152 265.808 397.677 265.3 398.273 264.94C398.869 264.579 399.522 264.372 400.19 264.333C404.2 264.211 408.479 271.186 409.658 275.216C409.735 275.475 410.312 278.482 410.593 280.146C411.003 278.619 411.388 277.002 411.875 275.445C413.156 270.866 414.604 266.378 416.013 261.845C416.449 260.456 416.859 259.067 417.294 257.694C416.743 257.694 410.248 256.885 407.634 255.099C405.315 253.573 402.727 250.703 402.368 247.361C402.263 246.575 402.297 245.773 402.469 245.005C402.641 244.236 402.946 243.52 403.366 242.901C403.785 242.282 404.308 241.775 404.902 241.413C405.496 241.051 406.147 240.841 406.814 240.797C410.837 240.675 415.116 247.651 416.295 251.68C416.385 251.985 417.205 256.259 417.371 257.434C418.294 254.382 419.203 251.329 419.934 248.276C421.017 244.155 421.873 239.954 422.496 235.7C422.24 235.7 415.449 234.936 412.784 233.105C410.452 231.578 407.864 228.709 407.518 225.366C407.413 224.581 407.448 223.779 407.62 223.01C407.792 222.242 408.097 221.526 408.516 220.907C408.935 220.288 409.459 219.781 410.053 219.419C410.647 219.056 411.298 218.847 411.964 218.803C415.975 218.696 420.254 225.656 421.433 229.686C421.51 229.961 422.137 233.257 422.406 234.83H422.637C423.166 230.53 423.372 226.183 423.252 221.841C423.252 219.444 423.06 217.17 422.868 214.942C421.586 214.942 415.77 214.942 413.207 213.629C410.645 212.316 407.916 209.905 407.249 206.623C407.072 205.855 407.032 205.05 407.134 204.262C407.235 203.473 407.475 202.72 407.838 202.05C408.201 201.38 408.678 200.809 409.239 200.374C409.8 199.939 410.432 199.65 411.093 199.526C415.078 198.885 419.972 205.25 421.522 209.111C421.599 209.325 422.265 211.568 422.714 213.202C422.624 212.21 422.535 211.172 422.419 210.225C422.022 206.638 421.458 203.372 420.946 200.503C420.638 198.87 420.344 197.45 420.049 196.031C418.768 195.267 413.745 192.123 412.016 189.574C410.286 187.025 408.774 183.377 409.453 180.096C409.6 179.314 409.884 178.577 410.287 177.936C410.689 177.294 411.202 176.761 411.791 176.373C412.379 175.985 413.03 175.75 413.701 175.684C414.371 175.618 415.046 175.722 415.68 175.99Z" fill="black" fill-opacity="0.2"/>
<path d="M488.302 249.756C485.163 249.603 478.885 245.772 478.885 245.757C478.885 245.742 482.254 241.606 482.498 241.377C485.304 238.706 492.043 235.531 495.387 238.171C495.932 238.631 496.391 239.221 496.732 239.905C497.073 240.589 497.29 241.35 497.369 242.14C497.447 242.93 497.386 243.731 497.188 244.491C496.99 245.251 496.66 245.953 496.22 246.551C494.426 249.115 490.98 249.878 488.302 249.756Z" fill="#455CE9"/>
<path d="M488.302 249.756C485.163 249.603 478.885 245.772 478.885 245.757C478.885 245.742 482.254 241.606 482.498 241.377C485.304 238.706 492.043 235.531 495.387 238.171C495.932 238.631 496.391 239.221 496.732 239.905C497.073 240.589 497.29 241.35 497.369 242.14C497.447 242.93 497.386 243.731 497.188 244.491C496.99 245.251 496.66 245.953 496.22 246.551C494.426 249.115 490.98 249.878 488.302 249.756Z" fill="black" fill-opacity="0.2"/>
<g opacity="0.5">
<path d="M423.457 214.315C423.38 214.315 424.341 208.622 424.443 208.21C425.545 204.15 429.696 197.068 433.706 197.083C434.373 197.106 435.028 197.295 435.63 197.64C436.231 197.984 436.765 198.475 437.196 199.081C437.627 199.687 437.947 200.395 438.134 201.157C438.321 201.92 438.371 202.721 438.28 203.509C437.986 206.882 435.449 209.736 433.155 211.4C430.465 213.399 423.457 214.315 423.457 214.315Z" fill="white"/>
<path d="M415.68 175.99C419.46 177.608 421.343 185.942 421.215 190.215C421.215 190.582 420.497 196.321 420.433 196.321H420.356C420.651 197.633 420.971 199.053 421.292 200.594C421.855 203.464 422.47 206.7 422.945 210.302C423.494 214.165 423.854 218.064 424.021 221.978C424.225 226.358 424.101 230.751 423.649 235.104C423.642 235.155 423.642 235.206 423.649 235.257C424.149 233.99 425.622 230.48 425.763 230.22C427.736 226.648 433.297 221.062 437.179 222.405C437.815 222.639 438.403 223.029 438.905 223.551C439.406 224.072 439.81 224.714 440.09 225.433C440.371 226.153 440.521 226.934 440.531 227.727C440.542 228.52 440.412 229.307 440.151 230.037C439.126 233.181 436.052 235.15 433.476 236.02C430.568 237.012 424.085 235.837 423.572 235.745C423.026 240.159 422.23 244.524 421.189 248.811C420.591 251.314 419.942 253.817 419.242 256.32C419.69 255.236 420.113 254.275 420.177 254.137C422.15 250.566 427.711 244.98 431.593 246.307C432.23 246.539 432.819 246.928 433.322 247.449C433.825 247.97 434.23 248.612 434.51 249.332C434.791 250.052 434.94 250.835 434.95 251.629C434.959 252.422 434.828 253.21 434.565 253.939C433.54 257.098 430.465 259.052 427.89 259.937C425.315 260.823 419.729 259.937 418.268 259.708C417.999 260.655 417.73 261.616 417.448 262.563C416.167 267.142 414.783 271.721 413.604 276.208C413.182 277.734 412.81 279.383 412.438 280.97C412.848 280.008 413.194 279.2 413.258 279.093C415.219 275.521 420.792 269.935 424.661 271.263C425.298 271.497 425.886 271.887 426.387 272.408C426.889 272.93 427.294 273.571 427.575 274.29C427.856 275.009 428.008 275.79 428.02 276.583C428.033 277.376 427.905 278.163 427.647 278.894C426.622 282.038 423.534 284.007 420.959 284.877C418.383 285.747 413.348 284.984 411.606 284.694C411.26 286.343 410.927 287.976 410.658 289.578C410.491 290.677 410.273 291.731 410.158 292.845C410.043 293.959 409.902 295.043 409.773 296.111C409.594 298.202 409.389 300.37 409.261 302.415C409.158 303.834 409.082 305.193 409.005 306.551C409.402 305.025 410.286 301.881 410.35 301.621C411.773 298.266 413.889 295.398 416.5 293.287C416.642 292.905 416.818 292.542 417.025 292.204C417.388 291.538 417.865 290.97 418.424 290.538C418.983 290.105 419.613 289.818 420.271 289.694C420.93 289.57 421.603 289.613 422.246 289.819C422.89 290.025 423.49 290.391 424.008 290.891C427.057 293.944 426.289 302.613 424.892 306.551C424.815 306.78 423.675 309.176 422.945 310.672C423.495 309.878 424.008 309.146 424.585 308.261C425.699 306.643 426.852 305.055 428.082 303.346L429.966 300.919C430.581 300.08 431.324 299.301 432.003 298.492C433.604 296.645 435.308 294.86 437.064 293.104C435.859 291.944 431.67 287.716 430.465 284.847C429.261 281.977 428.403 277.963 429.658 274.941C429.933 274.215 430.333 273.566 430.832 273.037C431.331 272.508 431.919 272.11 432.556 271.869C433.193 271.629 433.866 271.551 434.53 271.641C435.194 271.731 435.835 271.987 436.41 272.392C439.806 274.926 440.151 283.55 439.267 287.655C439.267 287.915 438.294 290.8 437.768 292.372C438.832 291.334 439.882 290.281 440.984 289.319C444.162 286.388 447.454 283.55 450.722 280.695L453.707 278.055C453.284 277.643 448.21 272.758 446.852 269.553C445.661 266.699 444.79 262.67 446.045 259.632C446.321 258.908 446.722 258.261 447.222 257.733C447.721 257.205 448.308 256.808 448.945 256.567C449.582 256.327 450.253 256.249 450.917 256.338C451.581 256.427 452.221 256.681 452.797 257.083C456.192 259.632 456.538 268.256 455.654 272.346C455.59 272.667 454.271 276.818 453.886 277.856C456.077 275.903 458.242 273.949 460.292 271.919C463.099 269.188 465.753 266.241 468.236 263.097C468.044 262.914 462.727 257.846 461.343 254.55C460.139 251.695 459.28 247.666 460.536 244.644C460.809 243.918 461.208 243.27 461.706 242.74C462.204 242.211 462.79 241.813 463.427 241.573C464.063 241.332 464.735 241.254 465.398 241.344C466.061 241.434 466.701 241.69 467.275 242.095C470.683 244.628 471.029 253.252 470.145 257.358C470.081 257.617 469.082 260.792 468.569 262.288L468.774 262.425C471.204 259.183 473.387 255.689 475.296 251.985C476.359 249.971 477.294 247.971 478.166 245.987C477.089 245.163 472.233 241.408 470.709 238.538C469.184 235.669 468.031 231.975 468.992 228.801C469.199 228.053 469.535 227.366 469.977 226.782C470.42 226.198 470.959 225.73 471.562 225.408C472.165 225.087 472.817 224.918 473.478 224.914C474.138 224.909 474.792 225.068 475.398 225.382C479.024 227.457 480.151 235.99 479.652 240.217C479.652 240.446 479.139 242.751 478.768 244.43C479.139 243.53 479.549 242.614 479.895 241.744C481.176 238.477 482.266 235.394 483.162 232.586C483.675 231.06 484.098 229.533 484.444 228.266C483.739 226.74 480.997 220.864 480.728 217.582C480.459 214.301 480.895 210.271 482.983 207.982C483.459 207.425 484.029 206.994 484.654 206.717C485.28 206.44 485.947 206.323 486.613 206.373C487.279 206.423 487.928 206.64 488.519 207.009C489.11 207.379 489.629 207.892 490.043 208.516C492.451 212.347 490.158 220.528 488.082 224.023C487.903 224.313 484.636 228.602 484.597 228.602V228.511C484.239 229.808 483.854 231.197 483.393 232.693C482.547 235.455 481.548 238.584 480.292 241.851C478.954 245.431 477.444 248.917 475.77 252.291C473.904 256.071 471.76 259.646 469.364 262.975L469.274 263.097C470.273 262.349 473.118 260.411 473.361 260.288C476.667 258.61 483.867 257.648 486.506 261.265C486.929 261.879 487.239 262.592 487.417 263.358C487.594 264.123 487.634 264.925 487.535 265.71C487.436 266.496 487.2 267.248 486.842 267.917C486.484 268.587 486.011 269.16 485.456 269.599C483.137 271.553 479.652 271.125 477.102 270.194C474.219 269.111 469.415 263.875 468.966 263.463C466.468 266.784 463.784 269.899 460.933 272.789C459.267 274.498 457.563 276.147 455.808 277.765C456.692 277.17 457.487 276.635 457.602 276.574C460.895 274.895 468.095 273.934 470.734 277.551C471.159 278.164 471.471 278.877 471.649 279.643C471.828 280.409 471.869 281.211 471.769 281.997C471.67 282.783 471.433 283.536 471.074 284.205C470.715 284.875 470.241 285.447 469.684 285.885C467.378 287.838 463.893 287.411 461.343 286.48C458.793 285.549 454.527 281.153 453.425 279.978L451.413 281.825C448.185 284.771 445.007 287.686 441.868 290.662C440.779 291.715 439.741 292.799 438.691 293.867C439.485 293.333 440.139 292.891 440.254 292.845C443.547 291.151 450.747 290.204 453.387 293.806C453.813 294.418 454.127 295.131 454.306 295.897C454.486 296.664 454.527 297.467 454.428 298.253C454.329 299.04 454.091 299.793 453.731 300.463C453.37 301.133 452.895 301.704 452.336 302.14C450.017 304.094 446.545 303.666 443.995 302.751C441.445 301.835 437.589 297.836 436.308 296.447C435.27 297.592 434.219 298.721 433.258 299.896C432.605 300.705 431.977 301.423 431.337 302.293C430.696 303.163 430.055 303.941 429.492 304.765C428.377 306.383 427.211 308.062 426.148 309.68C425.404 310.794 424.713 311.878 424.021 312.962C425.084 311.908 427.237 309.909 427.429 309.741C430.465 307.482 437.461 305.238 440.536 308.322C441.032 308.854 441.429 309.505 441.701 310.232C441.973 310.959 442.114 311.746 442.114 312.542C442.114 313.338 441.973 314.125 441.701 314.852C441.429 315.579 441.032 316.23 440.536 316.762C438.499 319.097 435.014 319.357 432.374 318.868C429.453 318.319 424.174 314.29 423.521 313.71C422.368 315.511 421.266 317.281 420.241 318.975C416.692 324.821 413.925 329.843 412.028 333.399L411.836 333.75L409.376 332.331C409.504 332.102 409.633 331.888 409.761 331.644C411.747 328.103 414.642 323.096 418.332 317.281C419.498 315.45 420.766 313.511 422.086 311.527C420.713 309.747 419.429 307.871 418.242 305.91C415.411 307.223 409.53 307.284 408.774 307.284C408.659 309.543 408.556 311.741 408.479 313.816C408.223 321.036 408.249 327.049 408.313 331.247V331.751L405.609 330.224C405.609 326.057 405.75 320.395 406.109 313.725C406.224 311.42 406.391 308.963 406.583 306.46C405.827 306.231 399.716 304.353 397.41 302.155C395.321 300.171 393.117 296.935 393.194 293.562C393.187 292.767 393.321 291.978 393.588 291.248C393.854 290.519 394.247 289.865 394.741 289.329C395.234 288.792 395.817 288.387 396.452 288.138C397.086 287.889 397.757 287.802 398.422 287.884C402.406 288.495 405.738 296.157 406.404 300.354C406.404 300.598 406.609 303.407 406.686 305.086C406.775 304.048 406.839 303.056 406.929 302.033C407.109 299.942 407.339 297.851 407.583 295.607C407.723 294.539 407.877 293.455 408.018 292.356C408.159 291.257 408.403 290.128 408.595 288.998C409.082 286.404 409.671 283.794 410.324 281.184C408.787 280.985 403.342 280.222 400.997 278.635C398.652 277.047 396.09 274.239 395.744 270.896C395.635 270.111 395.666 269.306 395.837 268.536C396.007 267.766 396.312 267.047 396.732 266.427C397.152 265.808 397.677 265.3 398.273 264.94C398.869 264.579 399.522 264.372 400.19 264.333C404.2 264.211 408.479 271.186 409.658 275.216C409.735 275.475 410.312 278.482 410.593 280.146C411.003 278.619 411.388 277.002 411.875 275.445C413.156 270.866 414.604 266.378 416.013 261.845C416.449 260.456 416.859 259.067 417.294 257.694C416.743 257.694 410.248 256.885 407.634 255.099C405.315 253.573 402.727 250.703 402.368 247.361C402.263 246.575 402.297 245.773 402.469 245.005C402.641 244.236 402.946 243.52 403.366 242.901C403.785 242.282 404.308 241.775 404.902 241.413C405.496 241.051 406.147 240.841 406.814 240.797C410.837 240.675 415.116 247.651 416.295 251.68C416.385 251.985 417.205 256.259 417.371 257.434C418.294 254.382 419.203 251.329 419.934 248.276C421.017 244.155 421.873 239.954 422.496 235.7C422.24 235.7 415.449 234.936 412.784 233.105C410.452 231.578 407.864 228.709 407.518 225.366C407.413 224.581 407.448 223.779 407.62 223.01C407.792 222.242 408.097 221.526 408.516 220.907C408.935 220.288 409.459 219.781 410.053 219.419C410.647 219.056 411.298 218.847 411.964 218.803C415.975 218.696 420.254 225.656 421.433 229.686C421.51 229.961 422.137 233.257 422.406 234.83H422.637C423.166 230.53 423.372 226.183 423.252 221.841C423.252 219.444 423.06 217.17 422.868 214.942C421.586 214.942 415.77 214.942 413.207 213.629C410.645 212.316 407.916 209.905 407.249 206.623C407.072 205.855 407.032 205.05 407.134 204.262C407.235 203.473 407.475 202.72 407.838 202.05C408.201 201.38 408.678 200.809 409.239 200.374C409.8 199.939 410.432 199.65 411.093 199.526C415.078 198.885 419.972 205.25 421.522 209.111C421.599 209.325 422.265 211.568 422.714 213.202C422.624 212.21 422.535 211.172 422.419 210.225C422.022 206.638 421.458 203.372 420.946 200.503C420.638 198.87 420.344 197.45 420.049 196.031C418.768 195.267 413.745 192.123 412.016 189.574C410.286 187.025 408.774 183.377 409.453 180.096C409.6 179.314 409.884 178.577 410.287 177.936C410.689 177.294 411.202 176.761 411.791 176.373C412.379 175.985 413.03 175.75 413.701 175.684C414.371 175.618 415.046 175.722 415.68 175.99Z" fill="white"/>
<path d="M488.302 249.756C485.163 249.603 478.885 245.772 478.885 245.757C478.885 245.742 482.254 241.606 482.498 241.377C485.304 238.706 492.043 235.531 495.387 238.171C495.932 238.631 496.391 239.221 496.732 239.905C497.073 240.589 497.29 241.35 497.369 242.14C497.447 242.93 497.386 243.731 497.188 244.491C496.99 245.251 496.66 245.953 496.22 246.551C494.426 249.115 490.98 249.878 488.302 249.756Z" fill="white"/>
</g>
<path d="M451.645 343.411C451.645 343.411 432.593 288.693 421.933 291.074C411.273 293.455 440.19 378.287 440.19 378.287C440.19 378.287 406.673 302.964 383.816 302.964C360.959 302.964 392.195 386.224 421.138 413.972C421.138 413.972 375.437 355.301 348.774 367.985C322.112 380.668 402.099 440.134 402.099 440.134C402.099 440.134 355.629 422.688 360.959 436.165C366.289 449.642 380.767 452.024 380.767 452.024L328.236 455.198H511.068L469.928 450.436C469.928 450.436 512.593 425.069 501.164 414.766C489.736 404.464 464.598 426.656 464.598 426.656C464.598 426.656 508.019 369.572 499.639 348.158C491.26 326.744 453.925 387.018 453.925 387.018C453.925 387.018 484.406 310.107 478.269 296.629C472.131 283.152 451.645 343.411 451.645 343.411Z" fill="#455CE9"/>
<path d="M451.645 343.411C451.645 343.411 432.593 288.693 421.933 291.074C411.273 293.455 440.19 378.287 440.19 378.287C440.19 378.287 406.673 302.964 383.816 302.964C360.959 302.964 392.195 386.224 421.138 413.972C421.138 413.972 375.437 355.301 348.774 367.985C322.112 380.668 402.099 440.134 402.099 440.134C402.099 440.134 355.629 422.688 360.959 436.165C366.289 449.642 380.767 452.024 380.767 452.024L328.236 455.198H511.068L469.928 450.436C469.928 450.436 512.593 425.069 501.164 414.766C489.736 404.464 464.598 426.656 464.598 426.656C464.598 426.656 508.019 369.572 499.639 348.158C491.26 326.744 453.925 387.018 453.925 387.018C453.925 387.018 484.406 310.107 478.269 296.629C472.131 283.152 451.645 343.411 451.645 343.411Z" fill="black" fill-opacity="0.2"/>
<path opacity="0.4" d="M451.645 343.411C451.645 343.411 432.593 288.693 421.933 291.074C411.273 293.455 440.19 378.287 440.19 378.287C440.19 378.287 406.673 302.964 383.816 302.964C360.959 302.964 392.195 386.224 421.138 413.972C421.138 413.972 375.437 355.301 348.774 367.985C322.112 380.668 402.099 440.134 402.099 440.134C402.099 440.134 355.629 422.688 360.959 436.165C366.289 449.642 380.767 452.024 380.767 452.024L328.236 455.198H511.068L469.928 450.436C469.928 450.436 512.593 425.069 501.164 414.766C489.736 404.464 464.598 426.656 464.598 426.656C464.598 426.656 508.019 369.572 499.639 348.158C491.26 326.744 453.925 387.018 453.925 387.018C453.925 387.018 484.406 310.107 478.269 296.629C472.131 283.152 451.645 343.411 451.645 343.411Z" fill="white"/>
<path d="M457.744 346.28C440.973 405.272 440.973 447.017 440.973 447.017C440.973 447.017 460.781 447.918 481.357 429.77" stroke="#0A0F1C" stroke-linecap="round" stroke-linejoin="round"/>
<path d="M449.365 378.059C445.906 360.419 441.318 343.121 435.643 326.316" stroke="#0A0F1C" stroke-linecap="round" stroke-linejoin="round"/>
<path d="M399.845 343.564L442.497 418.888C442.497 418.888 471.453 389.888 481.357 373.511" stroke="#0A0F1C" stroke-linecap="round" stroke-linejoin="round"/>
<path d="M441.741 437.052C441.741 437.052 396.796 411.638 378.513 397.169" stroke="#0A0F1C" stroke-linecap="round" stroke-linejoin="round"/>
<path d="M401.395 30.8525H264.509C258.904 30.8525 254.361 36.2647 254.361 42.941V443.11C254.361 449.787 258.904 455.199 264.509 455.199H401.395C407 455.199 411.543 449.787 411.543 443.11V42.941C411.543 36.2647 407 30.8525 401.395 30.8525Z" fill="white" stroke="#0A0F1C" stroke-linecap="round" stroke-linejoin="round"/>
<path d="M406.288 105.137C405.734 105.137 405.203 104.875 404.811 104.408C404.419 103.942 404.199 103.309 404.199 102.649V69.2991C404.24 68.6709 404.479 68.0844 404.867 67.6566C405.256 67.2288 405.765 66.9912 406.294 66.9912C406.823 66.9912 407.332 67.2288 407.721 67.6566C408.109 68.0844 408.348 68.6709 408.389 69.2991V102.588C408.394 102.921 408.343 103.251 408.24 103.56C408.137 103.869 407.983 104.15 407.787 104.388C407.592 104.625 407.358 104.813 407.101 104.942C406.843 105.071 406.567 105.137 406.288 105.137Z" fill="#0A0F1C"/>
<path d="M406.288 136.031C405.734 136.031 405.203 135.769 404.811 135.302C404.419 134.835 404.199 134.203 404.199 133.543V114.906C404.24 114.278 404.479 113.692 404.867 113.264C405.256 112.836 405.765 112.599 406.294 112.599C406.823 112.599 407.332 112.836 407.721 113.264C408.109 113.692 408.348 114.278 408.389 114.906V133.543C408.385 134.204 408.163 134.837 407.769 135.303C407.375 135.769 406.843 136.031 406.288 136.031Z" fill="#0A0F1C"/>
<path d="M389.543 30.8525H252.656C247.052 30.8525 242.509 36.2647 242.509 42.941V443.11C242.509 449.787 247.052 455.199 252.656 455.199H389.543C395.147 455.199 399.69 449.787 399.69 443.11V42.941C399.69 36.2647 395.147 30.8525 389.543 30.8525Z" fill="#0A0F1C" stroke="#0A0F1C" stroke-linecap="round" stroke-linejoin="round"/>
<path d="M389.223 59.1035H252.977V423.069H389.223V59.1035Z" fill="#455CE9"/>
<path d="M389.223 59.1035H252.977V423.069H389.223V59.1035Z" fill="black" fill-opacity="0.2"/>
<path d="M300.869 47.4727H337.141" stroke="white" stroke-width="3" stroke-linecap="round" stroke-linejoin="round"/>
<path d="M316.219 435.95C316.219 438.926 314.656 441.338 312.721 441.338C310.787 441.338 309.236 438.926 309.236 435.95C309.236 432.974 310.799 430.547 312.721 430.547C314.643 430.547 316.219 432.958 316.219 435.95Z" fill="white"/>
<path d="M321.099 149.675C334.147 149.675 344.724 134.982 344.724 116.859C344.724 98.7351 334.147 84.043 321.099 84.043C308.05 84.043 297.473 98.7351 297.473 116.859C297.473 134.982 308.05 149.675 321.099 149.675Z" fill="white"/>
<path d="M321.099 116.447C326.053 116.447 330.068 110.864 330.068 103.977C330.068 97.0898 326.053 91.5068 321.099 91.5068C316.146 91.5068 312.131 97.0898 312.131 103.977C312.131 110.864 316.146 116.447 321.099 116.447Z" fill="#0A0F1C" stroke="#0A0F1C" stroke-linecap="round" stroke-linejoin="round"/>
<path d="M321.099 119.759C312.13 119.759 304.789 127.955 304.789 138.075C304.796 139.016 304.869 139.956 305.007 140.883C306.996 143.649 309.465 145.869 312.242 147.392C315.02 148.914 318.042 149.702 321.099 149.702C324.157 149.702 327.178 148.914 329.956 147.392C332.734 145.869 335.202 143.649 337.191 140.883C337.318 139.954 337.387 139.015 337.396 138.075C337.396 127.955 330.093 119.759 321.099 119.759Z" fill="#0A0F1C" stroke="#0A0F1C" stroke-linecap="round" stroke-linejoin="round"/>
<path d="M349.824 259.799H292.374C290.854 259.727 289.419 258.94 288.386 257.609C287.353 256.278 286.806 254.513 286.865 252.702V210.453C286.865 186.108 302.239 166.297 321.099 166.297C339.959 166.297 355.321 186.139 355.321 210.453V252.671C355.354 253.569 355.237 254.466 354.979 255.311C354.72 256.155 354.324 256.931 353.813 257.593C353.303 258.255 352.688 258.791 352.003 259.169C351.319 259.548 350.578 259.762 349.824 259.799ZM297.87 245.604H344.315V210.499C344.315 193.984 333.899 180.537 321.099 180.537C308.3 180.537 297.87 193.984 297.87 210.499V245.604Z" fill="#0A0F1C"/>
<path d="M360.983 230.968H281.214V320.868H360.983V230.968Z" fill="white"/>
<path d="M332.721 292.858L326.801 275.901C328.11 274.722 329.169 273.193 329.892 271.438C330.615 269.684 330.983 267.751 330.965 265.796C330.965 259.035 326.725 253.586 321.484 253.586C316.244 253.586 312.016 259.05 312.016 265.796C311.996 267.75 312.361 269.682 313.082 271.437C313.803 273.192 314.86 274.721 316.167 275.901L310.261 292.858H332.721Z" fill="#0A0F1C" stroke="#0A0F1C" stroke-linecap="round" stroke-linejoin="round"/>
<path d="M296.794 401.655C296.917 401.762 297.065 401.821 297.217 401.823C297.326 401.823 297.433 401.79 297.529 401.729C297.625 401.668 297.707 401.58 297.768 401.472L389.222 253.282V250.474L296.692 400.495C296.634 400.579 296.591 400.676 296.566 400.78C296.54 400.884 296.531 400.993 296.541 401.101C296.55 401.208 296.578 401.313 296.621 401.408C296.665 401.503 296.723 401.587 296.794 401.655Z" fill="white"/>
<path d="M370.826 112.494C370.771 112.582 370.732 112.682 370.71 112.788C370.688 112.894 370.685 113.004 370.699 113.112C370.713 113.22 370.745 113.324 370.794 113.417C370.842 113.51 370.905 113.59 370.98 113.654C371.13 113.781 371.316 113.833 371.498 113.799C371.68 113.765 371.843 113.647 371.953 113.471L389.224 85.4935V82.7461L370.826 112.494Z" fill="white"/>
<path d="M252.977 306.29L365.879 123.392C365.987 123.214 366.032 122.992 366.003 122.774C365.975 122.557 365.874 122.362 365.725 122.232C365.575 122.103 365.389 122.049 365.206 122.083C365.024 122.118 364.86 122.237 364.751 122.415L253.028 303.482L252.977 306.29Z" fill="white"/>
<path d="M286.186 419.697C286.295 419.694 286.402 419.663 286.5 419.605C286.597 419.547 286.683 419.463 286.75 419.361L293.156 409.043C293.21 408.955 293.25 408.855 293.272 408.749C293.293 408.643 293.297 408.532 293.283 408.424C293.269 408.317 293.236 408.213 293.188 408.12C293.14 408.027 293.077 407.946 293.002 407.883C292.852 407.756 292.666 407.704 292.484 407.738C292.302 407.772 292.138 407.89 292.028 408.066L285.622 418.369C285.567 418.456 285.527 418.555 285.504 418.66C285.481 418.766 285.476 418.876 285.49 418.984C285.503 419.092 285.534 419.195 285.581 419.289C285.628 419.382 285.69 419.464 285.763 419.529C285.883 419.642 286.033 419.701 286.186 419.697Z" fill="white"/>
<path d="M389.221 282.954L314.14 404.617C314.064 404.74 314.018 404.886 314.008 405.039C313.998 405.191 314.023 405.344 314.082 405.481C314.14 405.617 314.23 405.731 314.339 405.81C314.449 405.889 314.576 405.931 314.704 405.929C314.814 405.932 314.923 405.903 315.021 405.844C315.119 405.786 315.204 405.7 315.268 405.593L389.221 285.747V282.954Z" fill="white"/>
<path d="M125.532 111.961C126.803 108.608 127.416 104.954 127.326 101.277C127.326 94.4541 120.394 90.501 112.246 89.4173C104.097 88.3336 100.484 92.2868 101.688 94.8052C102.94 96.8822 104.468 98.7021 106.211 100.193C106.211 100.193 98.0626 94.8052 92.6302 99.1247C87.1978 103.444 95.0517 101.643 93.5399 105.947C92.028 110.252 83.5847 108.466 81.4706 119.959C79.3566 131.452 85.3912 142.96 79.9588 147.997C74.5264 153.034 58.1779 146.196 53.4117 158.773C48.6455 171.35 55.4104 176.936 43.9562 184.843C32.502 192.749 24.1484 200.472 27.4668 219.871C30.7852 239.271 41.65 246.063 63.0722 239.21C84.4944 232.357 82.9825 216.926 89.978 201.052C96.9736 185.178 107.787 188.475 111.106 179.485C114.424 170.495 110.196 159.719 110.503 151.447C110.811 143.174 117.742 141.388 120.459 131.605C123.175 121.821 125.532 111.961 125.532 111.961Z" fill="#0A0F1C" stroke="#0A0F1C" stroke-linecap="round" stroke-linejoin="round"/>
<path d="M29.9661 219.505C29.4043 220.856 29.1189 222.347 29.1333 223.855" stroke="white" stroke-width="0.5" stroke-linecap="round" stroke-linejoin="round"/>
<path d="M113.951 104.832C113.951 104.832 110.184 99.6426 117.436 102.054C126.571 105.107 115.847 117.699 111.722 120.233C103.445 125.285 92.5031 123.667 86.097 132.855C80.2802 141.158 88.1341 149.813 84.6492 156.391C81.1642 162.969 67.2116 159.154 62.5736 167.075C57.9355 174.997 70.9913 192 57.628 201.341C47.9675 208.103 37.3846 210.697 32.2725 216.055" stroke="white" stroke-width="0.5" stroke-linecap="round" stroke-linejoin="round"/>
<path d="M92.2847 135.542C91.4928 137.749 91.2526 140.182 91.5928 142.548C92.7459 148.424 99.4339 159.505 93.3353 165.733C87.2366 171.96 76.769 171.609 75.0393 178.905C73.3096 186.2 76.7818 206.241 70.9778 215.536C65.1738 224.831 53.8349 224.19 47.7363 230.418C41.6376 236.645 42.5088 240.11 42.5088 240.11" stroke="white" stroke-width="0.5" stroke-linecap="round" stroke-linejoin="round"/>
<path d="M95.36 128.703C94.832 129.592 94.3444 130.514 93.8994 131.466" stroke="white" stroke-width="0.5" stroke-linecap="round" stroke-linejoin="round"/>
<path d="M129.441 218.954L130.914 232.691C130.914 232.691 138.602 241.849 144.252 247.511C149.902 253.174 164.38 265.155 164.38 265.155L157.038 267.643C157.038 267.643 133.041 250.701 128.3 249.328C123.56 247.954 120.011 239.803 118.537 237.331C117.064 234.858 125.584 216.481 129.441 218.954Z" fill="white" stroke="#0A0F1C" stroke-linecap="round" stroke-linejoin="round"/>
<path d="M144.096 442.453C144.096 442.453 151.348 449.748 154.346 452.191C157.344 454.633 160.842 455.732 160.291 457.059C159.74 458.387 158.241 459.715 151.181 458.586C144.122 457.456 142.085 454.602 140.778 454.159C139.471 453.717 136.319 454.831 133.91 453.061C131.502 451.29 135.32 440.743 135.32 440.743C136.378 442.217 137.839 443.197 139.446 443.509C141.052 443.822 142.699 443.448 144.096 442.453Z" fill="white" stroke="#0A0F1C" stroke-linecap="round" stroke-linejoin="round"/>
<path d="M160.267 457.06C160.272 456.988 160.272 456.917 160.267 456.846C156.191 457.292 152.081 456.831 148.146 455.487C143.585 454.205 142.24 451.321 137.896 451.321C136.192 451.339 134.497 451.009 132.887 450.344C132.84 450.853 132.899 451.368 133.057 451.844C133.216 452.32 133.469 452.743 133.796 453.076C136.205 454.846 139.37 453.732 140.664 454.175C141.958 454.617 144.008 457.502 151.067 458.601C158.127 459.7 159.703 458.387 160.267 457.06Z" fill="white" stroke="#0A0F1C" stroke-linecap="round" stroke-linejoin="round"/>
<path d="M106.134 147.463C106.134 147.463 107.531 158.666 105.737 163.184C103.944 167.702 98.3317 168.19 93.5399 169.152C88.7481 170.113 77.7423 175.104 78.9339 187.971C80.1254 200.838 93.9371 228.709 93.9371 236.569C93.9371 244.43 89.7347 248.474 85.135 263.722C80.5354 278.97 81.1376 307.329 82.5726 325.675C83.6243 337.784 85.6319 349.747 88.5687 361.407C88.5687 361.407 77.0377 383.569 71.9127 393.093C66.7878 402.617 48.8506 444.087 48.8506 444.087C48.8506 444.087 48.8506 445.507 51.6437 446.468C53.6087 447.038 55.6417 447.198 57.6526 446.941C57.6526 446.941 92.0409 397.626 98.447 389.292C104.853 380.959 110.849 366.398 111.644 359.743C112.438 353.088 111.452 312.336 111.452 312.336C111.452 312.336 118.639 332.819 124.264 343.304C127.675 349.721 130.806 356.344 133.642 363.147C132.855 371.77 132.855 380.47 133.642 389.094C135.039 400.999 133.86 439.249 135.257 442.347C136.653 445.445 142.073 444.148 143.277 442.729C144.482 441.309 145.045 432.044 145.045 432.044C145.045 432.044 147.441 403.044 148.889 389.399C150.337 375.754 152.733 364.139 151.9 361.04C151.067 357.942 146.096 324.821 142.291 309.145C138.486 293.47 126.916 264.119 124.354 256.503C121.791 248.887 120.343 241.957 120.753 239.576C121.163 237.195 128.953 222.909 131.003 219.093C132.172 216.506 132.816 213.63 132.885 210.693C132.954 207.757 132.446 204.842 131.4 202.181C129.004 195.984 131.4 187.636 131.003 182.644C130.606 177.653 124.405 175.486 121.202 173.593C117.999 171.701 116.794 167.397 116.794 163.825C116.99 160.816 117.6 157.867 118.601 155.094C118.601 155.094 108.735 147.463 106.134 147.463Z" fill="white" stroke="#0A0F1C" stroke-linecap="round" stroke-linejoin="round"/>
<path d="M130.377 198.424C129.323 195.235 128.446 191.967 127.75 188.641" stroke="#0A0F1C" stroke-linecap="round" stroke-linejoin="round"/>
<path d="M104.405 224.955C104.405 224.955 108.018 225.901 115.257 221.597" stroke="#0A0F1C" stroke-linecap="round" stroke-linejoin="round"/>
<path d="M142.329 308.991C138.703 293.972 127.954 266.544 124.738 257.493C109.363 264.361 94.9877 258.5 88.2356 254.715C87.2619 257.249 86.2113 260.179 85.135 263.72C80.5354 278.983 81.1376 307.327 82.5726 325.673C83.6243 337.782 85.6319 349.745 88.5687 361.404C88.5687 361.404 77.0377 383.566 71.9127 393.091C66.7878 402.615 48.8506 444.085 48.8506 444.085C48.8506 444.085 48.8506 445.504 51.6437 446.466C53.6087 447.035 55.6417 447.195 57.6526 446.939C57.6526 446.939 92.0409 397.624 98.447 389.29C104.853 380.956 110.849 366.395 111.644 359.741C112.438 353.086 111.452 312.333 111.452 312.333C111.452 312.333 118.639 332.816 124.264 343.302C127.675 349.719 130.806 356.342 133.642 363.144C132.855 371.768 132.855 380.468 133.642 389.092C135.039 400.997 133.86 439.246 135.257 442.345C136.653 445.443 142.073 444.146 143.277 442.726C144.482 441.307 145.045 432.042 145.045 432.042C145.045 432.042 147.441 403.042 148.889 389.397C150.337 375.752 152.733 364.136 151.9 361.038C151.067 357.94 146.134 324.712 142.329 308.991Z" fill="#0A0F1C" stroke="#0A0F1C" stroke-linecap="round" stroke-linejoin="round"/>
<path d="M220.665 293.866V290.752H222.856V266.301H220.665H199.038H196.847V290.752H199.038V293.866H196.834V299.544H205.277V297.636H214.425V299.544H222.869V293.866H220.665Z" fill="#455CE9"/>
<path d="M220.665 293.866V290.752H222.856V266.301H220.665H199.038H196.847V290.752H199.038V293.866H196.834V299.544H205.277V297.636H214.425V299.544H222.869V293.866H220.665Z" fill="black" fill-opacity="0.2"/>
<path d="M220.665 293.866V290.752H222.856V266.301H220.665H199.038H196.847V290.752H199.038V293.866H196.834V299.544H205.277V297.636H214.425V299.544H222.869V293.866H220.665Z" stroke="#0A0F1C" stroke-linecap="round" stroke-linejoin="round"/>
<path d="M80.8809 258.991H231.759C232.364 258.991 232.944 259.277 233.371 259.787C233.799 260.296 234.039 260.987 234.039 261.708V267.172C234.039 267.892 233.799 268.584 233.371 269.093C232.944 269.603 232.364 269.889 231.759 269.889H80.8809V258.976V258.991Z" fill="#455CE9"/>
<path d="M80.8809 258.991H231.759C232.364 258.991 232.944 259.277 233.371 259.787C233.799 260.296 234.039 260.987 234.039 261.708V267.172C234.039 267.892 233.799 268.584 233.371 269.093C232.944 269.603 232.364 269.889 231.759 269.889H80.8809V258.976V258.991Z" fill="black" fill-opacity="0.2"/>
<path d="M80.8809 258.991H231.759C232.364 258.991 232.944 259.277 233.371 259.787C233.799 260.296 234.039 260.987 234.039 261.708V267.172C234.039 267.892 233.799 268.584 233.371 269.093C232.944 269.603 232.364 269.889 231.759 269.889H80.8809V258.976V258.991Z" stroke="#0A0F1C" stroke-linecap="round" stroke-linejoin="round"/>
<path d="M189.171 257.356H179.984C179.284 257.356 178.716 258.033 178.716 258.868V270.025C178.716 270.859 179.284 271.536 179.984 271.536H189.171C189.871 271.536 190.439 270.859 190.439 270.025V258.868C190.439 258.033 189.871 257.356 189.171 257.356Z" fill="#455CE9"/>
<path d="M189.171 257.356H179.984C179.284 257.356 178.716 258.033 178.716 258.868V270.025C178.716 270.859 179.284 271.536 179.984 271.536H189.171C189.871 271.536 190.439 270.859 190.439 270.025V258.868C190.439 258.033 189.871 257.356 189.171 257.356Z" fill="black" fill-opacity="0.2"/>
<path d="M189.171 257.356H179.984C179.284 257.356 178.716 258.033 178.716 258.868V270.025C178.716 270.859 179.284 271.536 179.984 271.536H189.171C189.871 271.536 190.439 270.859 190.439 270.025V258.868C190.439 258.033 189.871 257.356 189.171 257.356Z" stroke="#0A0F1C" stroke-linecap="round" stroke-linejoin="round"/>
<path d="M85.6033 269.036C87.7291 253.571 78.9288 238.982 65.9474 236.449C52.9659 233.917 40.719 244.4 38.5932 259.865C36.4674 275.33 45.2677 289.919 58.2492 292.452C71.2306 294.984 83.4775 284.5 85.6033 269.036Z" fill="#455CE9"/>
<path d="M85.6033 269.036C87.7291 253.571 78.9288 238.982 65.9474 236.449C52.9659 233.917 40.719 244.4 38.5932 259.865C36.4674 275.33 45.2677 289.919 58.2492 292.452C71.2306 294.984 83.4775 284.5 85.6033 269.036Z" fill="black" fill-opacity="0.2"/>
<path d="M85.6033 269.036C87.7291 253.571 78.9288 238.982 65.9474 236.449C52.9659 233.917 40.719 244.4 38.5932 259.865C36.4674 275.33 45.2677 289.919 58.2492 292.452C71.2306 294.984 83.4775 284.5 85.6033 269.036Z" stroke="#0A0F1C" stroke-linecap="round" stroke-linejoin="round"/>
<path d="M66.9929 264.379C68.3737 263.592 69.5456 262.366 70.3796 260.836C71.2137 259.307 71.6777 257.533 71.7207 255.71C71.7207 250.139 67.4157 245.621 62.0986 245.621C56.7815 245.621 52.4766 250.2 52.4766 255.71C52.5167 257.534 52.9795 259.309 53.8139 260.839C54.6483 262.369 55.8217 263.595 57.2043 264.379C55.8225 265.17 54.6502 266.398 53.8162 267.931C52.9821 269.463 52.5186 271.239 52.4766 273.064C52.4766 278.635 56.7815 283.153 62.0986 283.153C67.4157 283.153 71.7207 278.574 71.7207 273.064C71.6757 271.24 71.2111 269.465 70.3774 267.933C69.5437 266.402 68.373 265.173 66.9929 264.379Z" fill="white" stroke="#0A0F1C" stroke-linecap="round" stroke-linejoin="round"/>
<path d="M159.678 270.131C159.678 270.131 167.134 273.886 169.441 273.886C171.747 273.886 174.412 271.124 175.732 267.781C177.051 264.438 177.013 262.851 176.231 263.645L174.578 265.171C174.578 265.171 175.86 261.828 174.412 262.225C173.409 262.623 172.577 263.472 172.093 264.591C172.093 264.591 171.926 261.63 170.607 263.065C169.733 264.007 168.955 265.067 168.288 266.224C168.288 266.224 168.121 262.485 167.288 263.461C166.455 264.438 163.329 269.765 163.329 269.765L159.678 270.131Z" fill="white" stroke="#0A0F1C" stroke-linecap="round" stroke-linejoin="round"/>
<path d="M168.289 266.193C168.289 266.193 167.789 270.925 165.316 271.719L168.289 266.193Z" fill="white"/>
<path d="M168.289 266.193C168.289 266.193 167.789 270.925 165.316 271.719" stroke="#0A0F1C" stroke-linecap="round" stroke-linejoin="round"/>
<path d="M172.093 264.62C172.093 264.62 170.811 272.099 168.787 273.29L172.093 264.62Z" fill="white"/>
<path d="M172.093 264.62C172.093 264.62 170.811 272.099 168.787 273.29" stroke="#0A0F1C" stroke-linecap="round" stroke-linejoin="round"/>
<path d="M174.578 265.202C173.917 267.931 173.029 270.575 171.926 273.093L174.578 265.202Z" fill="white"/>
<path d="M174.578 265.202C173.917 267.931 173.029 270.575 171.926 273.093" stroke="#0A0F1C" stroke-linecap="round" stroke-linejoin="round"/>
<path d="M120.729 173.136C119.438 172.098 118.393 170.682 117.693 169.026C116.993 167.369 116.662 165.525 116.731 163.672C116.961 160.711 117.593 157.814 118.602 155.094C118.602 155.094 108.8 147.463 106.199 147.463C106.199 147.463 107.596 158.666 105.802 163.184C105.214 164.589 104.256 165.726 103.073 166.42C105.442 174.017 108.652 181.204 112.618 187.788C116.219 193.176 117.974 181.82 120.729 173.136Z" fill="white" stroke="#0A0F1C" stroke-linecap="round" stroke-linejoin="round"/>
<path d="M90.4789 170.692C88.034 171.19 85.7196 172.357 83.7184 174.103C81.7172 175.848 80.0841 178.124 78.9478 180.751C75.0016 189.817 57.7562 230.967 59.2297 233.424C67.6089 247.466 98.0894 257.57 101.19 261.264C104.29 265.126 107.692 268.627 111.35 271.719C114.451 274.07 120.639 273.062 121.767 272.391C122.894 271.719 123.74 268.697 121.767 268.697C121.013 268.709 120.278 268.412 119.686 267.857C119.094 267.301 118.679 266.52 118.512 265.644C118.23 264.301 121.613 266.988 123.304 265.98C124.995 264.973 119.524 261.294 117.833 259.616C116.142 257.937 114.733 255.601 112.478 255.601C110.223 255.601 105.982 255.601 105.982 255.601C105.982 255.601 95.6038 246.642 89.3258 239.972C84.4408 234.721 79.1123 230.087 73.4257 226.143L92.452 188.856" fill="white"/>
<path d="M90.4789 170.692C88.034 171.19 85.7196 172.357 83.7184 174.103C81.7172 175.848 80.0841 178.124 78.9478 180.751C75.0016 189.817 57.7562 230.967 59.2297 233.424C67.6089 247.466 98.0894 257.57 101.19 261.264C104.29 265.126 107.692 268.627 111.35 271.719C114.451 274.07 120.639 273.062 121.767 272.391C122.894 271.719 123.74 268.697 121.767 268.697C121.013 268.709 120.278 268.412 119.686 267.857C119.094 267.301 118.679 266.52 118.512 265.644C118.23 264.301 121.613 266.988 123.304 265.98C124.995 264.973 119.524 261.294 117.833 259.616C116.142 257.937 114.733 255.601 112.478 255.601C110.223 255.601 105.982 255.601 105.982 255.601C105.982 255.601 95.6038 246.642 89.3258 239.972C84.4408 234.721 79.1123 230.087 73.4257 226.143L92.452 188.856" stroke="#0A0F1C" stroke-linecap="round" stroke-linejoin="round"/>
<path d="M117.82 259.632C116.128 257.953 114.719 255.617 112.464 255.617C110.209 255.617 105.968 255.617 105.968 255.617C105.968 255.617 95.5902 246.658 89.3122 239.988C84.4272 234.737 79.0987 230.103 73.4121 226.159L81.0226 211.232C77.1318 208.427 72.6812 206.914 68.1334 206.852C63.0085 219.581 58.4089 232.158 59.1648 233.486C67.5441 247.528 98.0246 257.632 101.125 261.326C104.225 265.188 107.627 268.689 111.285 271.781C114.386 274.132 120.574 273.124 121.702 272.453C122.829 271.781 123.675 268.759 121.702 268.759C120.948 268.771 120.213 268.474 119.621 267.919C119.029 267.363 118.615 266.582 118.447 265.706C118.166 264.363 121.548 267.049 123.239 266.042C124.93 265.035 119.511 261.326 117.82 259.632Z" fill="white" stroke="#0A0F1C" stroke-linecap="round" stroke-linejoin="round"/>
<path d="M128.133 131.023C127.134 128.642 127.134 126.734 127.531 123.392C127.928 120.049 125.532 111.944 125.532 111.944C123.085 116.981 116.012 119.973 112.886 121.102C109.44 122.354 114.475 125.193 113.937 128.993C113.399 132.794 106.519 134.992 106.519 134.992C106.519 134.992 104.507 130.062 101.714 130.062C98.9209 130.062 96.935 137.693 98.5237 141.738C98.9377 142.858 99.6588 143.778 100.569 144.347C101.479 144.915 102.524 145.099 103.533 144.867C103.533 144.867 103.341 152.025 107.134 154.162C111.18 156.462 115.402 158.297 119.741 159.642C122.137 160.115 124.533 158.695 125.532 154.406C126.314 150.084 126.849 145.704 127.134 141.295C128.811 139.988 130.355 138.451 131.733 136.716C132.694 135.068 129.132 133.404 128.133 131.023Z" fill="white" stroke="#0A0F1C" stroke-linecap="round" stroke-linejoin="round"/>
<path d="M124.238 131.129C124.238 132.442 123.879 133.495 123.444 133.495C123.008 133.495 122.649 132.442 122.649 131.129C122.649 129.817 123.008 128.764 123.444 128.764C123.879 128.764 124.238 129.817 124.238 131.129Z" fill="#0A0F1C"/>
<path d="M120.792 127.195C120.792 127.195 122.919 124.34 124.508 124.982" stroke="#0A0F1C" stroke-linecap="round" stroke-linejoin="round"/>
<path d="M124.509 146.761C123.549 147.106 122.53 147.146 121.552 146.879C120.575 146.611 119.673 146.044 118.936 145.234" stroke="#0A0F1C" stroke-linecap="round" stroke-linejoin="round"/>
<path d="M48.9405 444.087C48.9405 444.087 44.1615 455.504 44.3409 457.061C44.5202 458.617 54.0013 466.799 58.4344 469.668C62.8675 472.537 70.888 472.995 70.3242 469.012C69.7605 465.028 62.15 462.372 60.2922 456.389C59.3028 453.294 58.4476 450.141 57.7297 446.941C54.6327 446.996 51.5857 446.007 48.9405 444.087Z" fill="white" stroke="#0A0F1C" stroke-linecap="round" stroke-linejoin="round"/>
<path d="M70.3509 469.072C66.9397 469.617 63.4686 469.031 60.3189 467.378C53.4387 463.822 46.7763 456.557 44.9441 454.496C44.6187 455.319 44.4108 456.201 44.3291 457.106C44.5213 458.632 53.9896 466.844 58.4226 469.713C62.8557 472.583 70.8121 472.98 70.3509 469.072Z" fill="white" stroke="#0A0F1C" stroke-linecap="round" stroke-linejoin="round"/>
</svg>
