<svg width="464" height="450" viewBox="0 0 464 450" fill="none" xmlns="http://www.w3.org/2000/svg">
<path d="M200.182 450C297.722 450 376.794 445.074 376.794 438.998C376.794 432.921 297.722 427.995 200.182 427.995C102.642 427.995 23.5703 432.921 23.5703 438.998C23.5703 445.074 102.642 450 200.182 450Z" fill="#455CE9"/>
<path d="M200.182 450C297.722 450 376.794 445.074 376.794 438.998C376.794 432.921 297.722 427.995 200.182 427.995C102.642 427.995 23.5703 432.921 23.5703 438.998C23.5703 445.074 102.642 450 200.182 450Z" fill="black" fill-opacity="0.2"/>
<path opacity="0.8" d="M200.182 450C297.722 450 376.794 445.074 376.794 438.998C376.794 432.921 297.722 427.995 200.182 427.995C102.642 427.995 23.5703 432.921 23.5703 438.998C23.5703 445.074 102.642 450 200.182 450Z" fill="white"/>
<path d="M332.897 20.6152H155.315C143.054 20.6152 133.115 30.5542 133.115 42.8145V417.723C133.115 429.983 143.054 439.922 155.315 439.922H332.897C345.158 439.922 355.097 429.983 355.097 417.723V42.8145C355.097 30.5542 345.158 20.6152 332.897 20.6152Z" fill="#0A0F1C"/>
<path d="M345.226 66.6582H142.976V393.878H345.226V66.6582Z" fill="white" stroke="#0A0F1C" stroke-width="1.33739" stroke-miterlimit="10"/>
<path d="M275.104 199.16C292.225 182.04 292.225 154.283 275.104 137.162C257.984 120.042 230.227 120.042 213.107 137.162C195.987 154.283 195.987 182.04 213.107 199.16C230.227 216.28 257.984 216.28 275.104 199.16Z" fill="#455CE9"/>
<path d="M275.104 199.16C292.225 182.04 292.225 154.283 275.104 137.162C257.984 120.042 230.227 120.042 213.107 137.162C195.987 154.283 195.987 182.04 213.107 199.16C230.227 216.28 257.984 216.28 275.104 199.16Z" fill="black" fill-opacity="0.2"/>
<path d="M301.662 373.302H186.564C186.304 373.304 186.048 373.254 185.808 373.156C185.568 373.058 185.35 372.913 185.167 372.731C184.983 372.548 184.837 372.331 184.738 372.092C184.638 371.852 184.587 371.596 184.587 371.337C184.585 371.077 184.636 370.819 184.734 370.579C184.833 370.338 184.979 370.12 185.162 369.936C185.346 369.752 185.565 369.607 185.805 369.508C186.046 369.409 186.304 369.359 186.564 369.36H301.662C301.921 369.36 302.177 369.412 302.416 369.511C302.655 369.611 302.873 369.756 303.055 369.94C303.238 370.124 303.382 370.342 303.48 370.581C303.579 370.821 303.628 371.078 303.627 371.337C303.627 371.858 303.42 372.358 303.051 372.727C302.683 373.095 302.183 373.302 301.662 373.302Z" fill="#455CE9"/>
<path d="M301.662 373.302H186.564C186.304 373.304 186.048 373.254 185.808 373.156C185.568 373.058 185.35 372.913 185.167 372.731C184.983 372.548 184.837 372.331 184.738 372.092C184.638 371.852 184.587 371.596 184.587 371.337C184.585 371.077 184.636 370.819 184.734 370.579C184.833 370.338 184.979 370.12 185.162 369.936C185.346 369.752 185.565 369.607 185.805 369.508C186.046 369.409 186.304 369.359 186.564 369.36H301.662C301.921 369.36 302.177 369.412 302.416 369.511C302.655 369.611 302.873 369.756 303.055 369.94C303.238 370.124 303.382 370.342 303.48 370.581C303.579 370.821 303.628 371.078 303.627 371.337C303.627 371.858 303.42 372.358 303.051 372.727C302.683 373.095 302.183 373.302 301.662 373.302Z" fill="black" fill-opacity="0.2"/>
<path d="M305.409 236.645H182.804C180.274 236.645 178.223 238.696 178.223 241.226V255.679C178.223 258.209 180.274 260.261 182.804 260.261H305.409C307.939 260.261 309.99 258.209 309.99 255.679V241.226C309.99 238.696 307.939 236.645 305.409 236.645Z" fill="#455CE9"/>
<path d="M305.409 236.645H182.804C180.274 236.645 178.223 238.696 178.223 241.226V255.679C178.223 258.209 180.274 260.261 182.804 260.261H305.409C307.939 260.261 309.99 258.209 309.99 255.679V241.226C309.99 238.696 307.939 236.645 305.409 236.645Z" fill="black" fill-opacity="0.2"/>
<path d="M305.409 280.814H182.804C180.274 280.814 178.223 282.866 178.223 285.396V299.849C178.223 302.379 180.274 304.43 182.804 304.43H305.409C307.939 304.43 309.99 302.379 309.99 299.849V285.396C309.99 282.866 307.939 280.814 305.409 280.814Z" fill="#455CE9"/>
<path d="M305.409 280.814H182.804C180.274 280.814 178.223 282.866 178.223 285.396V299.849C178.223 302.379 180.274 304.43 182.804 304.43H305.409C307.939 304.43 309.99 302.379 309.99 299.849V285.396C309.99 282.866 307.939 280.814 305.409 280.814Z" fill="black" fill-opacity="0.2"/>
<path d="M265.934 190.03L253.035 182.603V176.468C254.902 174.208 256.255 171.569 256.999 168.733C257.443 168.891 257.911 168.972 258.382 168.973C259.981 168.973 260.998 164.014 261.17 160.472C263.032 156.531 260.495 154.223 260.495 154.223C260.495 154.223 261.547 153.172 262.243 148.956C262.94 144.74 259.787 146.499 257.331 142.638C254.874 138.776 253.115 134.571 245.048 134.571C242.826 134.498 240.633 135.096 238.754 136.286C236.875 137.475 235.398 139.203 234.514 141.244C232.506 141.251 230.506 141.485 228.55 141.941C226.083 142.638 225.386 150.715 227.488 153.88C228.429 155.61 228.931 157.544 228.95 159.513C228.39 158.827 227.808 158.644 227.488 160.198C226.791 163.706 229.601 168.619 229.601 168.619L231.053 168.207C231.783 171.238 233.194 174.063 235.177 176.468V182.603L222.278 190.03C220.771 190.899 219.52 192.15 218.65 193.656C217.78 195.162 217.321 196.871 217.319 198.61V202.86C224.991 208.787 234.412 212.002 244.106 212.002C253.8 212.002 263.221 208.787 270.892 202.86V198.61C270.893 196.87 270.435 195.161 269.565 193.654C268.694 192.148 267.442 190.898 265.934 190.03Z" fill="#0A0F1C"/>
<path d="M194.915 298.558C194.619 298.554 194.336 298.435 194.126 298.227C194.014 298.127 193.924 298.003 193.863 297.865C193.802 297.727 193.771 297.578 193.772 297.427C193.776 297.221 193.835 297.02 193.944 296.845L196 293.554L191.99 293.68C191.839 293.689 191.687 293.667 191.545 293.614C191.404 293.56 191.275 293.478 191.167 293.371C190.981 293.162 190.878 292.892 190.878 292.612C190.878 292.331 190.981 292.061 191.167 291.852C191.272 291.741 191.401 291.656 191.543 291.6C191.685 291.545 191.838 291.522 191.99 291.532L195.943 291.68L193.909 288.401C193.799 288.223 193.739 288.017 193.738 287.807C193.737 287.656 193.768 287.507 193.829 287.369C193.89 287.231 193.98 287.108 194.092 287.008C194.302 286.799 194.585 286.68 194.88 286.676C195.075 286.677 195.265 286.734 195.429 286.839C195.593 286.944 195.724 287.094 195.806 287.27L197.76 290.801L199.69 287.293C199.782 287.106 199.923 286.947 200.098 286.835C200.273 286.722 200.476 286.659 200.684 286.653C200.829 286.654 200.971 286.685 201.103 286.744C201.235 286.803 201.353 286.889 201.45 286.996C201.66 287.214 201.775 287.505 201.77 287.807C201.769 288.004 201.718 288.196 201.621 288.367L199.553 291.68L203.564 291.532C203.716 291.522 203.868 291.545 204.011 291.6C204.153 291.656 204.281 291.741 204.386 291.852C204.581 292.054 204.688 292.325 204.683 292.606C204.683 292.889 204.577 293.162 204.386 293.371C204.279 293.478 204.15 293.56 204.008 293.614C203.866 293.667 203.715 293.689 203.564 293.68L199.53 293.554L201.541 296.81C201.654 296.992 201.713 297.202 201.713 297.416C201.713 297.719 201.592 298.01 201.378 298.224C201.164 298.438 200.873 298.558 200.57 298.558C200.374 298.556 200.183 298.496 200.021 298.386C199.859 298.277 199.732 298.122 199.656 297.941L197.748 294.514L195.852 297.941C195.767 298.121 195.635 298.273 195.47 298.382C195.305 298.491 195.113 298.552 194.915 298.558Z" fill="#0A0F1C"/>
<path d="M213.447 298.558C213.151 298.554 212.869 298.435 212.659 298.227C212.546 298.127 212.457 298.003 212.396 297.865C212.334 297.727 212.303 297.578 212.305 297.427C212.308 297.221 212.367 297.02 212.476 296.845L214.532 293.554L210.534 293.68C210.381 293.687 210.229 293.663 210.085 293.61C209.942 293.557 209.811 293.476 209.7 293.371C209.548 293.215 209.447 293.016 209.41 292.802C209.372 292.587 209.4 292.366 209.49 292.168C209.58 291.969 209.728 291.803 209.914 291.689C210.1 291.576 210.316 291.521 210.534 291.532L214.475 291.68L212.442 288.401C212.331 288.223 212.272 288.017 212.27 287.807C212.269 287.656 212.3 287.507 212.361 287.369C212.422 287.231 212.512 287.108 212.624 287.008C212.834 286.799 213.117 286.68 213.413 286.676C213.607 286.677 213.798 286.734 213.962 286.839C214.125 286.944 214.256 287.094 214.338 287.27L216.292 290.801L218.223 287.293C218.314 287.106 218.455 286.947 218.631 286.835C218.806 286.722 219.009 286.659 219.217 286.653C219.361 286.653 219.505 286.683 219.637 286.742C219.769 286.801 219.886 286.888 219.982 286.996C220.088 287.103 220.172 287.229 220.229 287.369C220.286 287.508 220.315 287.657 220.314 287.807C220.31 288.005 220.254 288.197 220.154 288.367L218.086 291.68L222.107 291.555C222.258 291.545 222.409 291.568 222.549 291.623C222.689 291.679 222.816 291.765 222.919 291.875C223.113 292.077 223.22 292.348 223.216 292.629C223.215 292.912 223.109 293.185 222.919 293.394C222.813 293.5 222.686 293.583 222.546 293.636C222.406 293.689 222.257 293.712 222.107 293.703L218.063 293.577L220.074 296.833C220.186 297.015 220.246 297.225 220.245 297.439C220.245 297.742 220.125 298.032 219.91 298.247C219.696 298.461 219.406 298.581 219.103 298.581C218.907 298.579 218.716 298.519 218.553 298.409C218.391 298.3 218.264 298.145 218.189 297.964L216.281 294.537L214.384 297.964C214.297 298.139 214.163 298.287 213.998 298.392C213.833 298.496 213.643 298.554 213.447 298.558Z" fill="#0A0F1C"/>
<path d="M231.99 298.558C231.69 298.557 231.403 298.438 231.19 298.227C231.078 298.127 230.988 298.003 230.927 297.865C230.866 297.727 230.835 297.578 230.836 297.427C230.84 297.221 230.899 297.02 231.008 296.845L233.064 293.554L229.065 293.68C228.85 293.688 228.637 293.633 228.453 293.52C228.27 293.407 228.124 293.242 228.034 293.046C227.945 292.85 227.916 292.632 227.951 292.419C227.986 292.206 228.084 292.009 228.231 291.852C228.339 291.742 228.469 291.656 228.613 291.601C228.757 291.546 228.911 291.522 229.065 291.532L233.007 291.68L230.973 288.401C230.863 288.223 230.803 288.017 230.802 287.807C230.805 287.657 230.839 287.509 230.899 287.372C230.96 287.235 231.047 287.111 231.156 287.008C231.369 286.796 231.656 286.677 231.956 286.676C232.149 286.68 232.336 286.737 232.498 286.842C232.66 286.947 232.788 287.096 232.87 287.27L234.824 290.801L236.754 287.293C236.846 287.106 236.987 286.947 237.162 286.835C237.337 286.722 237.54 286.659 237.748 286.653C237.893 286.653 238.036 286.683 238.168 286.742C238.3 286.801 238.418 286.888 238.514 286.996C238.62 287.103 238.704 287.229 238.76 287.369C238.817 287.508 238.846 287.657 238.845 287.807C238.841 288.005 238.786 288.197 238.685 288.367L236.617 291.68L240.639 291.532C240.787 291.517 240.936 291.534 241.077 291.582C241.218 291.63 241.346 291.707 241.455 291.809C241.563 291.911 241.648 292.034 241.705 292.172C241.761 292.309 241.787 292.457 241.782 292.606C241.784 292.888 241.682 293.16 241.496 293.371C241.388 293.478 241.259 293.56 241.118 293.614C240.976 293.667 240.824 293.689 240.673 293.68L236.64 293.554L238.64 296.81C238.752 296.992 238.812 297.202 238.811 297.416C238.807 297.566 238.774 297.714 238.713 297.851C238.653 297.988 238.565 298.112 238.457 298.216C238.357 298.323 238.237 298.408 238.104 298.467C237.97 298.526 237.826 298.557 237.68 298.558C237.486 298.555 237.297 298.495 237.136 298.385C236.976 298.276 236.851 298.121 236.777 297.941L234.858 294.514L232.961 297.941C232.876 298.127 232.739 298.283 232.566 298.393C232.394 298.502 232.194 298.56 231.99 298.558Z" fill="#0A0F1C"/>
<path d="M250.522 298.558C250.222 298.557 249.935 298.438 249.722 298.227C249.507 298.016 249.384 297.729 249.379 297.427C249.376 297.222 249.431 297.02 249.539 296.845L251.596 293.554L247.597 293.68C247.444 293.687 247.292 293.663 247.149 293.61C247.005 293.557 246.874 293.476 246.763 293.371C246.577 293.162 246.474 292.892 246.474 292.612C246.474 292.331 246.577 292.061 246.763 291.852C246.873 291.745 247.004 291.662 247.147 291.607C247.291 291.552 247.444 291.527 247.597 291.532L251.55 291.68L249.528 288.401C249.417 288.223 249.358 288.017 249.356 287.807C249.36 287.657 249.393 287.509 249.454 287.372C249.515 287.235 249.602 287.111 249.711 287.008C249.923 286.796 250.211 286.677 250.51 286.676C250.705 286.677 250.895 286.734 251.059 286.839C251.223 286.944 251.354 287.094 251.436 287.27L253.378 290.801L255.309 287.293C255.401 287.106 255.542 286.947 255.717 286.835C255.892 286.722 256.095 286.659 256.303 286.653C256.448 286.653 256.591 286.683 256.723 286.742C256.855 286.801 256.973 286.888 257.068 286.996C257.174 287.103 257.258 287.229 257.315 287.369C257.372 287.508 257.401 287.657 257.4 287.807C257.396 288.005 257.341 288.197 257.24 288.367L255.172 291.68L259.194 291.532C259.341 291.517 259.491 291.534 259.631 291.582C259.772 291.63 259.901 291.707 260.009 291.809C260.118 291.911 260.203 292.034 260.259 292.172C260.315 292.309 260.342 292.457 260.336 292.606C260.338 292.888 260.237 293.16 260.05 293.371C259.943 293.478 259.814 293.56 259.672 293.614C259.53 293.667 259.379 293.689 259.228 293.68L255.195 293.554L257.194 296.81C257.307 296.992 257.366 297.202 257.366 297.416C257.367 297.567 257.336 297.716 257.275 297.854C257.213 297.992 257.124 298.115 257.011 298.216C256.912 298.323 256.792 298.408 256.658 298.467C256.525 298.526 256.38 298.557 256.234 298.558C256.04 298.555 255.851 298.495 255.691 298.385C255.53 298.276 255.405 298.121 255.332 297.941L253.412 294.514L251.516 297.941C251.429 298.13 251.288 298.289 251.111 298.399C250.935 298.509 250.73 298.564 250.522 298.558Z" fill="#0A0F1C"/>
<path d="M269.053 298.558C268.753 298.557 268.466 298.438 268.253 298.227C268.076 298.048 267.963 297.815 267.933 297.565C267.902 297.315 267.954 297.062 268.082 296.845L270.127 293.554L266.128 293.68C265.976 293.687 265.823 293.663 265.68 293.61C265.537 293.557 265.405 293.476 265.294 293.371C265.108 293.162 265.005 292.892 265.005 292.612C265.005 292.331 265.108 292.061 265.294 291.852C265.405 291.745 265.535 291.662 265.679 291.607C265.822 291.552 265.975 291.527 266.128 291.532L270.081 291.68L268.048 288.401C267.937 288.223 267.878 288.017 267.876 287.807C267.881 287.506 268.004 287.218 268.219 287.008C268.432 286.796 268.719 286.677 269.019 286.676C269.213 286.677 269.404 286.734 269.568 286.839C269.731 286.944 269.862 287.094 269.944 287.27L271.887 290.801L273.817 287.293C273.909 287.106 274.05 286.947 274.225 286.835C274.4 286.722 274.603 286.659 274.811 286.653C274.958 286.653 275.103 286.683 275.236 286.742C275.37 286.801 275.49 286.888 275.588 286.996C275.798 287.214 275.913 287.505 275.908 287.807C275.904 288.005 275.849 288.197 275.748 288.367L273.68 291.68L277.702 291.532C277.85 291.517 277.999 291.534 278.14 291.582C278.281 291.63 278.409 291.707 278.518 291.809C278.626 291.911 278.711 292.034 278.767 292.172C278.824 292.309 278.85 292.457 278.844 292.606C278.847 292.888 278.745 293.16 278.559 293.371C278.451 293.478 278.322 293.56 278.181 293.614C278.039 293.667 277.887 293.689 277.736 293.68L273.703 293.554L275.703 296.81C275.815 296.992 275.875 297.202 275.874 297.416C275.875 297.567 275.844 297.716 275.783 297.854C275.722 297.992 275.632 298.115 275.52 298.216C275.42 298.323 275.3 298.408 275.167 298.467C275.033 298.526 274.889 298.557 274.743 298.558C274.549 298.555 274.359 298.495 274.199 298.385C274.039 298.276 273.914 298.121 273.84 297.941L271.921 294.514L270.024 297.941C269.939 298.127 269.802 298.283 269.629 298.393C269.457 298.502 269.257 298.56 269.053 298.558Z" fill="#0A0F1C"/>
<path d="M287.585 298.558C287.289 298.554 287.007 298.435 286.797 298.227C286.684 298.127 286.595 298.003 286.534 297.865C286.472 297.727 286.441 297.578 286.443 297.427C286.446 297.221 286.505 297.02 286.614 296.845L288.659 293.554L284.66 293.68C284.513 293.691 284.365 293.671 284.226 293.622C284.087 293.573 283.96 293.496 283.852 293.395C283.745 293.294 283.66 293.171 283.602 293.035C283.544 292.9 283.516 292.753 283.518 292.606C283.517 292.466 283.544 292.328 283.597 292.198C283.65 292.069 283.728 291.951 283.826 291.852C283.931 291.741 284.06 291.656 284.202 291.6C284.344 291.545 284.497 291.522 284.649 291.532L288.602 291.68L286.568 288.401C286.458 288.223 286.398 288.017 286.397 287.807C286.401 287.506 286.524 287.218 286.74 287.008C286.952 286.796 287.24 286.677 287.539 286.676C287.734 286.677 287.924 286.734 288.088 286.839C288.252 286.944 288.383 287.094 288.465 287.27L290.407 290.801L292.349 287.293C292.44 287.108 292.579 286.95 292.752 286.838C292.925 286.725 293.126 286.661 293.332 286.653C293.478 286.653 293.623 286.683 293.757 286.742C293.891 286.801 294.011 286.888 294.109 286.996C294.319 287.214 294.434 287.505 294.429 287.807C294.428 288.004 294.377 288.196 294.28 288.367L292.212 291.68L296.223 291.532C296.375 291.522 296.527 291.545 296.67 291.6C296.812 291.656 296.94 291.741 297.045 291.852C297.24 292.054 297.347 292.325 297.342 292.606C297.342 292.889 297.236 293.162 297.045 293.371C296.938 293.478 296.809 293.56 296.667 293.614C296.525 293.667 296.374 293.689 296.223 293.68L292.189 293.554L294.189 296.81C294.302 296.992 294.361 297.202 294.36 297.416C294.356 297.717 294.233 298.005 294.017 298.216C293.809 298.428 293.527 298.551 293.229 298.558C293.035 298.555 292.846 298.495 292.685 298.385C292.525 298.276 292.4 298.121 292.327 297.941L290.407 294.514L288.511 297.941C288.428 298.12 288.298 298.272 288.135 298.381C287.972 298.49 287.781 298.551 287.585 298.558Z" fill="#0A0F1C"/>
<g style="mix-blend-mode:multiply">
<path d="M345.226 67.0938H142.976V79.7644H345.226V67.0938Z" fill="#455CE9"/>
<path d="M345.226 67.0938H142.976V79.7644H345.226V67.0938Z" fill="black" fill-opacity="0.2"/>
</g>
<path d="M266.094 43.7515H222.107C221.313 43.7515 220.551 43.4361 219.99 42.8747C219.429 42.3134 219.113 41.552 219.113 40.7581C219.113 39.9642 219.429 39.2028 219.99 38.6414C220.551 38.08 221.313 37.7646 222.107 37.7646H266.094C266.888 37.7646 267.649 38.08 268.211 38.6414C268.772 39.2028 269.087 39.9642 269.087 40.7581C269.087 41.552 268.772 42.3134 268.211 42.8747C267.649 43.4361 266.888 43.7515 266.094 43.7515Z" fill="#455CE9"/>
<path d="M266.094 43.7515H222.107C221.313 43.7515 220.551 43.4361 219.99 42.8747C219.429 42.3134 219.113 41.552 219.113 40.7581C219.113 39.9642 219.429 39.2028 219.99 38.6414C220.551 38.08 221.313 37.7646 222.107 37.7646H266.094C266.888 37.7646 267.649 38.08 268.211 38.6414C268.772 39.2028 269.087 39.9642 269.087 40.7581C269.087 41.552 268.772 42.3134 268.211 42.8747C267.649 43.4361 266.888 43.7515 266.094 43.7515Z" fill="black" fill-opacity="0.2"/>
<path d="M266.094 43.7515H222.107C221.313 43.7515 220.551 43.4361 219.99 42.8747C219.429 42.3134 219.113 41.552 219.113 40.7581C219.113 39.9642 219.429 39.2028 219.99 38.6414C220.551 38.08 221.313 37.7646 222.107 37.7646H266.094C266.888 37.7646 267.649 38.08 268.211 38.6414C268.772 39.2028 269.087 39.9642 269.087 40.7581C269.087 41.552 268.772 42.3134 268.211 42.8747C267.649 43.4361 266.888 43.7515 266.094 43.7515Z" stroke="#0A0F1C" stroke-width="1.33739" stroke-linecap="round" stroke-linejoin="round"/>
<path d="M256.098 412.365C256.1 409.992 255.398 407.671 254.081 405.696C252.763 403.722 250.89 402.182 248.697 401.273C246.505 400.363 244.092 400.125 241.763 400.587C239.435 401.05 237.297 402.193 235.618 403.871C233.94 405.55 232.797 407.688 232.334 410.016C231.872 412.345 232.11 414.758 233.02 416.95C233.929 419.143 235.469 421.016 237.443 422.333C239.418 423.651 241.739 424.353 244.112 424.35C247.29 424.347 250.337 423.084 252.584 420.837C254.831 418.59 256.095 415.543 256.098 412.365Z" fill="#455CE9"/>
<path d="M256.098 412.365C256.1 409.992 255.398 407.671 254.081 405.696C252.763 403.722 250.89 402.182 248.697 401.273C246.505 400.363 244.092 400.125 241.763 400.587C239.435 401.05 237.297 402.193 235.618 403.871C233.94 405.55 232.797 407.688 232.334 410.016C231.872 412.345 232.11 414.758 233.02 416.95C233.929 419.143 235.469 421.016 237.443 422.333C239.418 423.651 241.739 424.353 244.112 424.35C247.29 424.347 250.337 423.084 252.584 420.837C254.831 418.59 256.095 415.543 256.098 412.365Z" fill="black" fill-opacity="0.2"/>
<path d="M250.191 406.286H238.034V418.443H250.191V406.286Z" fill="#455CE9"/>
<path d="M250.191 406.286H238.034V418.443H250.191V406.286Z" fill="black" fill-opacity="0.2"/>
<path d="M250.191 406.286H238.034V418.443H250.191V406.286Z" stroke="#0A0F1C" stroke-width="1.33739" stroke-linecap="round" stroke-linejoin="round"/>
<path d="M388.916 274.417C388.916 274.417 372.989 233.948 387.168 229.138C401.929 224.123 401.278 250.846 400.707 263.871C399.507 291.703 396.434 296.879 394.137 290.081L388.916 274.417ZM384.129 305.985C388.505 311.697 389.738 305.779 381.844 279.055C378.142 266.487 370.098 241.066 357.759 250.606C345.911 259.746 374.109 292.88 374.109 292.88L384.129 305.985ZM375.674 329.178C379.844 332.88 379.924 328.207 370.018 308.909C365.368 299.872 355.531 281.58 347.476 290.629C339.742 299.358 366.1 320.575 366.1 320.575L375.674 329.178ZM366.534 356.758C370.704 360.472 370.784 355.787 360.878 336.501C356.228 327.464 346.391 309.161 338.336 318.221C330.647 326.973 356.925 348.189 356.925 348.189L366.534 356.758ZM392.926 300.615C386.254 303.22 391.555 306.053 419.421 305.973C432.492 305.973 459.181 305.379 453.491 290.857C448.042 276.907 408.35 294.674 408.35 294.674L392.926 300.615ZM385.328 319.169C378.267 320.392 382.906 324.231 410.235 329.692C423.043 332.263 449.31 337.004 446.625 321.694C444.054 306.933 401.621 316.461 401.621 316.461L385.328 319.169ZM376.828 341.826C370.818 342.694 374.657 346.041 397.633 351.297C408.407 353.765 430.515 358.392 428.596 345.333C426.768 332.765 390.664 339.872 390.664 339.872L376.828 341.826ZM370.373 362.814C364.489 364.31 368.659 367.235 392.081 370.023C403.049 371.326 425.522 373.588 422.243 360.803C419.079 348.532 383.934 359.398 383.934 359.398L370.373 362.814ZM404.808 277.844C401.381 285.522 408.499 284.356 432.697 263.243C444.031 253.337 466.768 232.612 448.761 222.294C431.475 212.377 412.886 260.226 412.886 260.226L404.808 277.844ZM371.264 390.154C367.642 392.268 371.195 393.091 387.808 389.777C395.6 388.235 411.446 384.807 406.088 378.044C400.901 371.531 379.65 385.242 379.65 385.242L371.264 390.154Z" fill="#455CE9"/>
<path d="M388.916 274.417C388.916 274.417 372.989 233.948 387.168 229.138C401.929 224.123 401.278 250.846 400.707 263.871C399.507 291.703 396.434 296.879 394.137 290.081L388.916 274.417ZM384.129 305.985C388.505 311.697 389.738 305.779 381.844 279.055C378.142 266.487 370.098 241.066 357.759 250.606C345.911 259.746 374.109 292.88 374.109 292.88L384.129 305.985ZM375.674 329.178C379.844 332.88 379.924 328.207 370.018 308.909C365.368 299.872 355.531 281.58 347.476 290.629C339.742 299.358 366.1 320.575 366.1 320.575L375.674 329.178ZM366.534 356.758C370.704 360.472 370.784 355.787 360.878 336.501C356.228 327.464 346.391 309.161 338.336 318.221C330.647 326.973 356.925 348.189 356.925 348.189L366.534 356.758ZM392.926 300.615C386.254 303.22 391.555 306.053 419.421 305.973C432.492 305.973 459.181 305.379 453.491 290.857C448.042 276.907 408.35 294.674 408.35 294.674L392.926 300.615ZM385.328 319.169C378.267 320.392 382.906 324.231 410.235 329.692C423.043 332.263 449.31 337.004 446.625 321.694C444.054 306.933 401.621 316.461 401.621 316.461L385.328 319.169ZM376.828 341.826C370.818 342.694 374.657 346.041 397.633 351.297C408.407 353.765 430.515 358.392 428.596 345.333C426.768 332.765 390.664 339.872 390.664 339.872L376.828 341.826ZM370.373 362.814C364.489 364.31 368.659 367.235 392.081 370.023C403.049 371.326 425.522 373.588 422.243 360.803C419.079 348.532 383.934 359.398 383.934 359.398L370.373 362.814ZM404.808 277.844C401.381 285.522 408.499 284.356 432.697 263.243C444.031 253.337 466.768 232.612 448.761 222.294C431.475 212.377 412.886 260.226 412.886 260.226L404.808 277.844ZM371.264 390.154C367.642 392.268 371.195 393.091 387.808 389.777C395.6 388.235 411.446 384.807 406.088 378.044C400.901 371.531 379.65 385.242 379.65 385.242L371.264 390.154Z" fill="black" fill-opacity="0.2"/>
<path opacity="0.3" d="M388.916 274.417C388.916 274.417 372.989 233.948 387.168 229.138C401.929 224.123 401.278 250.846 400.707 263.871C399.507 291.703 396.434 296.879 394.137 290.081L388.916 274.417ZM384.129 305.985C388.505 311.697 389.738 305.779 381.844 279.055C378.142 266.487 370.098 241.066 357.759 250.606C345.911 259.746 374.109 292.88 374.109 292.88L384.129 305.985ZM375.674 329.178C379.844 332.88 379.924 328.207 370.018 308.909C365.368 299.872 355.531 281.58 347.476 290.629C339.742 299.358 366.1 320.575 366.1 320.575L375.674 329.178ZM366.534 356.758C370.704 360.472 370.784 355.787 360.878 336.501C356.228 327.464 346.391 309.161 338.336 318.221C330.647 326.973 356.925 348.189 356.925 348.189L366.534 356.758ZM392.926 300.615C386.254 303.22 391.555 306.053 419.421 305.973C432.492 305.973 459.181 305.379 453.491 290.857C448.042 276.907 408.35 294.674 408.35 294.674L392.926 300.615ZM385.328 319.169C378.267 320.392 382.906 324.231 410.235 329.692C423.043 332.263 449.31 337.004 446.625 321.694C444.054 306.933 401.621 316.461 401.621 316.461L385.328 319.169ZM376.828 341.826C370.818 342.694 374.657 346.041 397.633 351.297C408.407 353.765 430.515 358.392 428.596 345.333C426.768 332.765 390.664 339.872 390.664 339.872L376.828 341.826ZM370.373 362.814C364.489 364.31 368.659 367.235 392.081 370.023C403.049 371.326 425.522 373.588 422.243 360.803C419.079 348.532 383.934 359.398 383.934 359.398L370.373 362.814ZM404.808 277.844C401.381 285.522 408.499 284.356 432.697 263.243C444.031 253.337 466.768 232.612 448.761 222.294C431.475 212.377 412.886 260.226 412.886 260.226L404.808 277.844ZM371.264 390.154C367.642 392.268 371.195 393.091 387.808 389.777C395.6 388.235 411.446 384.807 406.088 378.044C400.901 371.531 379.65 385.242 379.65 385.242L371.264 390.154Z" fill="white"/>
<path d="M395.942 293.257L393.166 247.064L395.942 293.257ZM387.156 308.498L369.607 268.772L387.156 308.498ZM432.446 296.947L390.389 302.979L432.446 296.947ZM378.061 329.909L355.291 300.694L378.061 329.909ZM382.06 320.951L413.434 322.528L382.06 320.951ZM374.634 343.356L398.627 345.733L374.634 343.356ZM368.841 357.592L356.925 339.666L368.841 357.592ZM367.47 363.922L395.679 364.185L367.47 363.922ZM361.758 416.844C361.947 416.829 362.122 416.74 362.246 416.597C362.37 416.454 362.433 416.267 362.42 416.078C360.626 389.137 371.046 345.013 387.761 308.795C398.444 285.647 440.318 240.152 440.763 239.695C440.898 239.56 440.974 239.377 440.974 239.186C440.974 238.996 440.898 238.813 440.763 238.678C440.697 238.612 440.619 238.559 440.533 238.523C440.447 238.487 440.354 238.469 440.261 238.469C440.167 238.469 440.075 238.487 439.988 238.523C439.902 238.559 439.824 238.612 439.758 238.678C439.335 239.135 397.29 284.802 386.516 308.155C369.492 345.253 359.21 388.577 361.038 416.169C361.052 416.351 361.134 416.521 361.267 416.646C361.4 416.771 361.575 416.841 361.758 416.844ZM395.931 293.965C396.119 293.953 396.296 293.867 396.422 293.726C396.548 293.585 396.614 293.4 396.605 293.211L393.874 246.996C393.87 246.902 393.847 246.809 393.806 246.724C393.766 246.639 393.709 246.563 393.638 246.5C393.568 246.438 393.486 246.389 393.397 246.359C393.308 246.328 393.214 246.315 393.12 246.322C392.931 246.333 392.754 246.419 392.628 246.56C392.502 246.701 392.436 246.887 392.446 247.076L395.222 293.268C395.231 293.45 395.309 293.621 395.441 293.747C395.573 293.872 395.748 293.942 395.931 293.942V293.965ZM387.407 309.149C387.578 309.072 387.713 308.93 387.781 308.755C387.849 308.58 387.846 308.385 387.773 308.212L370.212 268.487C370.136 268.314 369.995 268.178 369.82 268.11C369.644 268.041 369.448 268.045 369.275 268.121C369.103 268.197 368.967 268.338 368.899 268.514C368.83 268.689 368.834 268.885 368.91 269.058L386.459 308.783C386.514 308.911 386.605 309.02 386.72 309.097C386.836 309.174 386.971 309.216 387.11 309.218C387.228 309.224 387.346 309.2 387.453 309.149H387.407ZM390.446 303.665L432.48 297.655C432.581 297.653 432.681 297.63 432.773 297.586C432.865 297.543 432.946 297.48 433.012 297.403C433.078 297.326 433.127 297.236 433.156 297.138C433.184 297.041 433.192 296.938 433.178 296.838C433.164 296.737 433.129 296.641 433.076 296.555C433.022 296.468 432.951 296.395 432.866 296.338C432.782 296.281 432.687 296.243 432.587 296.226C432.487 296.209 432.384 296.213 432.286 296.239L390.252 302.248C390.064 302.26 389.889 302.347 389.765 302.488C389.64 302.629 389.577 302.814 389.589 303.002C389.602 303.19 389.688 303.365 389.829 303.49C389.971 303.614 390.156 303.677 390.344 303.665H390.446ZM378.461 330.48C378.611 330.363 378.707 330.191 378.731 330.003C378.755 329.815 378.703 329.625 378.587 329.475L355.805 300.203C355.688 300.052 355.516 299.953 355.327 299.928C355.137 299.903 354.945 299.955 354.794 300.072C354.642 300.188 354.543 300.36 354.519 300.55C354.494 300.74 354.546 300.931 354.662 301.083L377.49 330.4C377.556 330.485 377.641 330.554 377.738 330.602C377.835 330.65 377.942 330.674 378.05 330.674C378.221 330.666 378.383 330.597 378.507 330.48H378.461ZM414.062 322.562C414.069 322.373 414 322.189 413.872 322.05C413.744 321.911 413.566 321.829 413.377 321.82L382.06 320.232C381.884 320.244 381.719 320.32 381.595 320.446C381.472 320.572 381.399 320.739 381.391 320.915C381.382 321.091 381.439 321.265 381.55 321.402C381.66 321.539 381.818 321.631 381.992 321.66L413.365 323.248C413.554 323.254 413.738 323.186 413.877 323.057C414.016 322.929 414.099 322.751 414.108 322.562H414.062ZM399.29 345.801C399.301 345.707 399.293 345.612 399.266 345.521C399.24 345.43 399.196 345.346 399.136 345.272C399.076 345.199 399.003 345.138 398.919 345.093C398.836 345.049 398.744 345.021 398.65 345.013L374.657 342.648C374.564 342.638 374.47 342.648 374.38 342.675C374.29 342.702 374.207 342.746 374.135 342.806C374.063 342.865 374.003 342.939 373.959 343.021C373.915 343.104 373.888 343.195 373.88 343.288C373.864 343.475 373.922 343.661 374.041 343.807C374.161 343.952 374.333 344.044 374.52 344.065L398.513 346.441H398.581C398.765 346.454 398.947 346.394 399.088 346.275C399.229 346.155 399.318 345.985 399.335 345.801H399.29ZM369.184 358.186C369.343 358.081 369.453 357.918 369.492 357.732C369.53 357.545 369.494 357.352 369.39 357.192L357.53 339.266C357.422 339.112 357.258 339.005 357.072 338.969C356.887 338.933 356.695 338.97 356.536 339.072C356.378 339.177 356.267 339.34 356.228 339.526C356.19 339.713 356.227 339.907 356.331 340.066L368.19 357.992C368.258 358.09 368.348 358.17 368.454 358.226C368.559 358.282 368.676 358.311 368.796 358.312C368.95 358.32 369.103 358.276 369.23 358.186H369.184ZM396.399 364.185C396.396 363.996 396.321 363.817 396.189 363.683C396.057 363.549 395.879 363.471 395.691 363.465L367.482 363.202C367.294 363.202 367.114 363.277 366.981 363.409C366.848 363.542 366.773 363.722 366.773 363.91C366.77 364.005 366.786 364.099 366.821 364.187C366.855 364.275 366.907 364.355 366.973 364.422C367.039 364.489 367.119 364.543 367.206 364.578C367.293 364.614 367.387 364.632 367.482 364.63L395.691 364.893C395.787 364.897 395.883 364.883 395.974 364.849C396.064 364.816 396.147 364.765 396.218 364.699C396.288 364.632 396.344 364.553 396.383 364.465C396.422 364.376 396.443 364.281 396.445 364.185H396.399ZM358.547 406.367C358.604 406.241 363.414 392.988 377.879 389.823C378.065 389.782 378.227 389.669 378.33 389.508C378.433 389.347 378.468 389.152 378.427 388.966C378.381 388.783 378.266 388.625 378.106 388.525C377.947 388.425 377.755 388.391 377.57 388.429C362.317 391.765 357.256 405.761 357.199 405.898C357.14 406.079 357.154 406.275 357.237 406.445C357.32 406.616 357.466 406.747 357.644 406.812H357.873C358.025 406.825 358.177 406.789 358.307 406.709C358.436 406.628 358.537 406.508 358.593 406.367H358.547ZM361.758 416.844C361.947 416.829 362.122 416.74 362.246 416.597C362.37 416.454 362.433 416.267 362.42 416.078C360.626 389.137 371.046 345.013 387.761 308.795C398.444 285.647 440.318 240.152 440.763 239.695C440.898 239.56 440.974 239.377 440.974 239.186C440.974 238.996 440.898 238.813 440.763 238.678C440.697 238.612 440.619 238.559 440.533 238.523C440.447 238.487 440.354 238.469 440.261 238.469C440.167 238.469 440.075 238.487 439.988 238.523C439.902 238.559 439.824 238.612 439.758 238.678C439.335 239.135 397.29 284.802 386.516 308.155C369.492 345.253 359.21 388.577 361.038 416.169C361.052 416.351 361.134 416.521 361.267 416.646C361.4 416.771 361.575 416.841 361.758 416.844ZM395.931 293.965C396.119 293.953 396.296 293.867 396.422 293.726C396.548 293.585 396.614 293.4 396.605 293.211L393.874 246.996C393.87 246.902 393.847 246.809 393.806 246.724C393.766 246.639 393.709 246.563 393.638 246.5C393.568 246.438 393.486 246.389 393.397 246.359C393.308 246.328 393.214 246.315 393.12 246.322C392.931 246.333 392.754 246.419 392.628 246.56C392.502 246.701 392.436 246.887 392.446 247.076L395.222 293.268C395.231 293.45 395.309 293.621 395.441 293.747C395.573 293.872 395.748 293.942 395.931 293.942V293.965ZM387.407 309.149C387.578 309.072 387.713 308.93 387.781 308.755C387.849 308.58 387.846 308.385 387.773 308.212L370.212 268.487C370.136 268.314 369.995 268.178 369.82 268.11C369.644 268.041 369.448 268.045 369.275 268.121C369.103 268.197 368.967 268.338 368.899 268.514C368.83 268.689 368.834 268.885 368.91 269.058L386.459 308.783C386.514 308.911 386.605 309.02 386.72 309.097C386.836 309.174 386.971 309.216 387.11 309.218C387.228 309.224 387.346 309.2 387.453 309.149H387.407ZM390.446 303.665L432.48 297.655C432.581 297.653 432.681 297.63 432.773 297.586C432.865 297.543 432.946 297.48 433.012 297.403C433.078 297.326 433.127 297.236 433.156 297.138C433.184 297.041 433.192 296.938 433.178 296.838C433.164 296.737 433.129 296.641 433.076 296.555C433.022 296.468 432.951 296.395 432.866 296.338C432.782 296.281 432.687 296.243 432.587 296.226C432.487 296.209 432.384 296.213 432.286 296.239L390.252 302.248C390.064 302.26 389.889 302.347 389.765 302.488C389.64 302.629 389.577 302.814 389.589 303.002C389.602 303.19 389.688 303.365 389.829 303.49C389.971 303.614 390.156 303.677 390.344 303.665H390.446ZM378.461 330.48C378.611 330.363 378.707 330.191 378.731 330.003C378.755 329.815 378.703 329.625 378.587 329.475L355.805 300.203C355.747 300.128 355.675 300.065 355.593 300.018C355.511 299.971 355.421 299.94 355.327 299.928C355.233 299.916 355.137 299.922 355.046 299.947C354.955 299.972 354.869 300.014 354.794 300.072C354.719 300.129 354.656 300.201 354.609 300.283C354.561 300.366 354.531 300.456 354.519 300.55C354.507 300.644 354.513 300.739 354.538 300.831C354.562 300.922 354.605 301.008 354.662 301.083L377.49 330.4C377.556 330.485 377.641 330.554 377.738 330.602C377.835 330.65 377.942 330.674 378.05 330.674C378.221 330.666 378.383 330.597 378.507 330.48H378.461ZM414.062 322.562C414.069 322.373 414 322.189 413.872 322.05C413.744 321.911 413.566 321.829 413.377 321.82L382.06 320.232C381.884 320.244 381.719 320.32 381.595 320.446C381.472 320.572 381.399 320.739 381.391 320.915C381.382 321.091 381.439 321.265 381.55 321.402C381.66 321.539 381.818 321.631 381.992 321.66L413.365 323.248C413.554 323.254 413.738 323.186 413.877 323.057C414.016 322.929 414.099 322.751 414.108 322.562H414.062ZM399.29 345.801C399.301 345.707 399.293 345.612 399.266 345.521C399.24 345.43 399.196 345.346 399.136 345.272C399.076 345.199 399.003 345.138 398.919 345.093C398.836 345.049 398.744 345.021 398.65 345.013L374.657 342.648C374.564 342.638 374.47 342.648 374.38 342.675C374.29 342.702 374.207 342.746 374.135 342.806C374.063 342.865 374.003 342.939 373.959 343.021C373.915 343.104 373.888 343.195 373.88 343.288C373.864 343.475 373.922 343.661 374.041 343.807C374.161 343.952 374.333 344.044 374.52 344.065L398.513 346.441H398.581C398.765 346.454 398.947 346.394 399.088 346.275C399.229 346.155 399.318 345.985 399.335 345.801H399.29ZM369.184 358.186C369.343 358.081 369.453 357.918 369.492 357.732C369.53 357.545 369.494 357.352 369.39 357.192L357.53 339.266C357.422 339.112 357.258 339.005 357.072 338.969C356.887 338.933 356.695 338.97 356.536 339.072C356.378 339.177 356.267 339.34 356.228 339.526C356.19 339.713 356.227 339.907 356.331 340.066L368.19 357.992C368.258 358.09 368.348 358.17 368.454 358.226C368.559 358.282 368.676 358.311 368.796 358.312C368.95 358.32 369.103 358.276 369.23 358.186H369.184ZM396.399 364.185C396.396 363.996 396.321 363.817 396.189 363.683C396.057 363.549 395.879 363.471 395.691 363.465L367.482 363.202C367.294 363.202 367.114 363.277 366.981 363.409C366.848 363.542 366.773 363.722 366.773 363.91C366.77 364.005 366.786 364.099 366.821 364.187C366.855 364.275 366.907 364.355 366.973 364.422C367.039 364.489 367.119 364.543 367.206 364.578C367.293 364.614 367.387 364.632 367.482 364.63L395.691 364.893C395.787 364.897 395.883 364.883 395.974 364.849C396.064 364.816 396.147 364.765 396.218 364.699C396.288 364.632 396.344 364.553 396.383 364.465C396.422 364.376 396.443 364.281 396.445 364.185H396.399ZM358.547 406.367C358.604 406.241 363.414 392.988 377.879 389.823C378.065 389.782 378.227 389.669 378.33 389.508C378.433 389.347 378.468 389.152 378.427 388.966C378.381 388.783 378.266 388.625 378.106 388.525C377.947 388.425 377.755 388.391 377.57 388.429C362.317 391.765 357.256 405.761 357.199 405.898C357.14 406.079 357.154 406.275 357.237 406.445C357.32 406.616 357.466 406.747 357.644 406.812H357.873C358.025 406.825 358.177 406.789 358.307 406.709C358.436 406.628 358.537 406.508 358.593 406.367H358.547Z" fill="#455CE9"/>
<path d="M395.942 293.257L393.166 247.064L395.942 293.257ZM387.156 308.498L369.607 268.772L387.156 308.498ZM432.446 296.947L390.389 302.979L432.446 296.947ZM378.061 329.909L355.291 300.694L378.061 329.909ZM382.06 320.951L413.434 322.528L382.06 320.951ZM374.634 343.356L398.627 345.733L374.634 343.356ZM368.841 357.592L356.925 339.666L368.841 357.592ZM367.47 363.922L395.679 364.185L367.47 363.922ZM361.758 416.844C361.947 416.829 362.122 416.74 362.246 416.597C362.37 416.454 362.433 416.267 362.42 416.078C360.626 389.137 371.046 345.013 387.761 308.795C398.444 285.647 440.318 240.152 440.763 239.695C440.898 239.56 440.974 239.377 440.974 239.186C440.974 238.996 440.898 238.813 440.763 238.678C440.697 238.612 440.619 238.559 440.533 238.523C440.447 238.487 440.354 238.469 440.261 238.469C440.167 238.469 440.075 238.487 439.988 238.523C439.902 238.559 439.824 238.612 439.758 238.678C439.335 239.135 397.29 284.802 386.516 308.155C369.492 345.253 359.21 388.577 361.038 416.169C361.052 416.351 361.134 416.521 361.267 416.646C361.4 416.771 361.575 416.841 361.758 416.844ZM395.931 293.965C396.119 293.953 396.296 293.867 396.422 293.726C396.548 293.585 396.614 293.4 396.605 293.211L393.874 246.996C393.87 246.902 393.847 246.809 393.806 246.724C393.766 246.639 393.709 246.563 393.638 246.5C393.568 246.438 393.486 246.389 393.397 246.359C393.308 246.328 393.214 246.315 393.12 246.322C392.931 246.333 392.754 246.419 392.628 246.56C392.502 246.701 392.436 246.887 392.446 247.076L395.222 293.268C395.231 293.45 395.309 293.621 395.441 293.747C395.573 293.872 395.748 293.942 395.931 293.942V293.965ZM387.407 309.149C387.578 309.072 387.713 308.93 387.781 308.755C387.849 308.58 387.846 308.385 387.773 308.212L370.212 268.487C370.136 268.314 369.995 268.178 369.82 268.11C369.644 268.041 369.448 268.045 369.275 268.121C369.103 268.197 368.967 268.338 368.899 268.514C368.83 268.689 368.834 268.885 368.91 269.058L386.459 308.783C386.514 308.911 386.605 309.02 386.72 309.097C386.836 309.174 386.971 309.216 387.11 309.218C387.228 309.224 387.346 309.2 387.453 309.149H387.407ZM390.446 303.665L432.48 297.655C432.581 297.653 432.681 297.63 432.773 297.586C432.865 297.543 432.946 297.48 433.012 297.403C433.078 297.326 433.127 297.236 433.156 297.138C433.184 297.041 433.192 296.938 433.178 296.838C433.164 296.737 433.129 296.641 433.076 296.555C433.022 296.468 432.951 296.395 432.866 296.338C432.782 296.281 432.687 296.243 432.587 296.226C432.487 296.209 432.384 296.213 432.286 296.239L390.252 302.248C390.064 302.26 389.889 302.347 389.765 302.488C389.64 302.629 389.577 302.814 389.589 303.002C389.602 303.19 389.688 303.365 389.829 303.49C389.971 303.614 390.156 303.677 390.344 303.665H390.446ZM378.461 330.48C378.611 330.363 378.707 330.191 378.731 330.003C378.755 329.815 378.703 329.625 378.587 329.475L355.805 300.203C355.688 300.052 355.516 299.953 355.327 299.928C355.137 299.903 354.945 299.955 354.794 300.072C354.642 300.188 354.543 300.36 354.519 300.55C354.494 300.74 354.546 300.931 354.662 301.083L377.49 330.4C377.556 330.485 377.641 330.554 377.738 330.602C377.835 330.65 377.942 330.674 378.05 330.674C378.221 330.666 378.383 330.597 378.507 330.48H378.461ZM414.062 322.562C414.069 322.373 414 322.189 413.872 322.05C413.744 321.911 413.566 321.829 413.377 321.82L382.06 320.232C381.884 320.244 381.719 320.32 381.595 320.446C381.472 320.572 381.399 320.739 381.391 320.915C381.382 321.091 381.439 321.265 381.55 321.402C381.66 321.539 381.818 321.631 381.992 321.66L413.365 323.248C413.554 323.254 413.738 323.186 413.877 323.057C414.016 322.929 414.099 322.751 414.108 322.562H414.062ZM399.29 345.801C399.301 345.707 399.293 345.612 399.266 345.521C399.24 345.43 399.196 345.346 399.136 345.272C399.076 345.199 399.003 345.138 398.919 345.093C398.836 345.049 398.744 345.021 398.65 345.013L374.657 342.648C374.564 342.638 374.47 342.648 374.38 342.675C374.29 342.702 374.207 342.746 374.135 342.806C374.063 342.865 374.003 342.939 373.959 343.021C373.915 343.104 373.888 343.195 373.88 343.288C373.864 343.475 373.922 343.661 374.041 343.807C374.161 343.952 374.333 344.044 374.52 344.065L398.513 346.441H398.581C398.765 346.454 398.947 346.394 399.088 346.275C399.229 346.155 399.318 345.985 399.335 345.801H399.29ZM369.184 358.186C369.343 358.081 369.453 357.918 369.492 357.732C369.53 357.545 369.494 357.352 369.39 357.192L357.53 339.266C357.422 339.112 357.258 339.005 357.072 338.969C356.887 338.933 356.695 338.97 356.536 339.072C356.378 339.177 356.267 339.34 356.228 339.526C356.19 339.713 356.227 339.907 356.331 340.066L368.19 357.992C368.258 358.09 368.348 358.17 368.454 358.226C368.559 358.282 368.676 358.311 368.796 358.312C368.95 358.32 369.103 358.276 369.23 358.186H369.184ZM396.399 364.185C396.396 363.996 396.321 363.817 396.189 363.683C396.057 363.549 395.879 363.471 395.691 363.465L367.482 363.202C367.294 363.202 367.114 363.277 366.981 363.409C366.848 363.542 366.773 363.722 366.773 363.91C366.77 364.005 366.786 364.099 366.821 364.187C366.855 364.275 366.907 364.355 366.973 364.422C367.039 364.489 367.119 364.543 367.206 364.578C367.293 364.614 367.387 364.632 367.482 364.63L395.691 364.893C395.787 364.897 395.883 364.883 395.974 364.849C396.064 364.816 396.147 364.765 396.218 364.699C396.288 364.632 396.344 364.553 396.383 364.465C396.422 364.376 396.443 364.281 396.445 364.185H396.399ZM358.547 406.367C358.604 406.241 363.414 392.988 377.879 389.823C378.065 389.782 378.227 389.669 378.33 389.508C378.433 389.347 378.468 389.152 378.427 388.966C378.381 388.783 378.266 388.625 378.106 388.525C377.947 388.425 377.755 388.391 377.57 388.429C362.317 391.765 357.256 405.761 357.199 405.898C357.14 406.079 357.154 406.275 357.237 406.445C357.32 406.616 357.466 406.747 357.644 406.812H357.873C358.025 406.825 358.177 406.789 358.307 406.709C358.436 406.628 358.537 406.508 358.593 406.367H358.547ZM361.758 416.844C361.947 416.829 362.122 416.74 362.246 416.597C362.37 416.454 362.433 416.267 362.42 416.078C360.626 389.137 371.046 345.013 387.761 308.795C398.444 285.647 440.318 240.152 440.763 239.695C440.898 239.56 440.974 239.377 440.974 239.186C440.974 238.996 440.898 238.813 440.763 238.678C440.697 238.612 440.619 238.559 440.533 238.523C440.447 238.487 440.354 238.469 440.261 238.469C440.167 238.469 440.075 238.487 439.988 238.523C439.902 238.559 439.824 238.612 439.758 238.678C439.335 239.135 397.29 284.802 386.516 308.155C369.492 345.253 359.21 388.577 361.038 416.169C361.052 416.351 361.134 416.521 361.267 416.646C361.4 416.771 361.575 416.841 361.758 416.844ZM395.931 293.965C396.119 293.953 396.296 293.867 396.422 293.726C396.548 293.585 396.614 293.4 396.605 293.211L393.874 246.996C393.87 246.902 393.847 246.809 393.806 246.724C393.766 246.639 393.709 246.563 393.638 246.5C393.568 246.438 393.486 246.389 393.397 246.359C393.308 246.328 393.214 246.315 393.12 246.322C392.931 246.333 392.754 246.419 392.628 246.56C392.502 246.701 392.436 246.887 392.446 247.076L395.222 293.268C395.231 293.45 395.309 293.621 395.441 293.747C395.573 293.872 395.748 293.942 395.931 293.942V293.965ZM387.407 309.149C387.578 309.072 387.713 308.93 387.781 308.755C387.849 308.58 387.846 308.385 387.773 308.212L370.212 268.487C370.136 268.314 369.995 268.178 369.82 268.11C369.644 268.041 369.448 268.045 369.275 268.121C369.103 268.197 368.967 268.338 368.899 268.514C368.83 268.689 368.834 268.885 368.91 269.058L386.459 308.783C386.514 308.911 386.605 309.02 386.72 309.097C386.836 309.174 386.971 309.216 387.11 309.218C387.228 309.224 387.346 309.2 387.453 309.149H387.407ZM390.446 303.665L432.48 297.655C432.581 297.653 432.681 297.63 432.773 297.586C432.865 297.543 432.946 297.48 433.012 297.403C433.078 297.326 433.127 297.236 433.156 297.138C433.184 297.041 433.192 296.938 433.178 296.838C433.164 296.737 433.129 296.641 433.076 296.555C433.022 296.468 432.951 296.395 432.866 296.338C432.782 296.281 432.687 296.243 432.587 296.226C432.487 296.209 432.384 296.213 432.286 296.239L390.252 302.248C390.064 302.26 389.889 302.347 389.765 302.488C389.64 302.629 389.577 302.814 389.589 303.002C389.602 303.19 389.688 303.365 389.829 303.49C389.971 303.614 390.156 303.677 390.344 303.665H390.446ZM378.461 330.48C378.611 330.363 378.707 330.191 378.731 330.003C378.755 329.815 378.703 329.625 378.587 329.475L355.805 300.203C355.747 300.128 355.675 300.065 355.593 300.018C355.511 299.971 355.421 299.94 355.327 299.928C355.233 299.916 355.137 299.922 355.046 299.947C354.955 299.972 354.869 300.014 354.794 300.072C354.719 300.129 354.656 300.201 354.609 300.283C354.561 300.366 354.531 300.456 354.519 300.55C354.507 300.644 354.513 300.739 354.538 300.831C354.562 300.922 354.605 301.008 354.662 301.083L377.49 330.4C377.556 330.485 377.641 330.554 377.738 330.602C377.835 330.65 377.942 330.674 378.05 330.674C378.221 330.666 378.383 330.597 378.507 330.48H378.461ZM414.062 322.562C414.069 322.373 414 322.189 413.872 322.05C413.744 321.911 413.566 321.829 413.377 321.82L382.06 320.232C381.884 320.244 381.719 320.32 381.595 320.446C381.472 320.572 381.399 320.739 381.391 320.915C381.382 321.091 381.439 321.265 381.55 321.402C381.66 321.539 381.818 321.631 381.992 321.66L413.365 323.248C413.554 323.254 413.738 323.186 413.877 323.057C414.016 322.929 414.099 322.751 414.108 322.562H414.062ZM399.29 345.801C399.301 345.707 399.293 345.612 399.266 345.521C399.24 345.43 399.196 345.346 399.136 345.272C399.076 345.199 399.003 345.138 398.919 345.093C398.836 345.049 398.744 345.021 398.65 345.013L374.657 342.648C374.564 342.638 374.47 342.648 374.38 342.675C374.29 342.702 374.207 342.746 374.135 342.806C374.063 342.865 374.003 342.939 373.959 343.021C373.915 343.104 373.888 343.195 373.88 343.288C373.864 343.475 373.922 343.661 374.041 343.807C374.161 343.952 374.333 344.044 374.52 344.065L398.513 346.441H398.581C398.765 346.454 398.947 346.394 399.088 346.275C399.229 346.155 399.318 345.985 399.335 345.801H399.29ZM369.184 358.186C369.343 358.081 369.453 357.918 369.492 357.732C369.53 357.545 369.494 357.352 369.39 357.192L357.53 339.266C357.422 339.112 357.258 339.005 357.072 338.969C356.887 338.933 356.695 338.97 356.536 339.072C356.378 339.177 356.267 339.34 356.228 339.526C356.19 339.713 356.227 339.907 356.331 340.066L368.19 357.992C368.258 358.09 368.348 358.17 368.454 358.226C368.559 358.282 368.676 358.311 368.796 358.312C368.95 358.32 369.103 358.276 369.23 358.186H369.184ZM396.399 364.185C396.396 363.996 396.321 363.817 396.189 363.683C396.057 363.549 395.879 363.471 395.691 363.465L367.482 363.202C367.294 363.202 367.114 363.277 366.981 363.409C366.848 363.542 366.773 363.722 366.773 363.91C366.77 364.005 366.786 364.099 366.821 364.187C366.855 364.275 366.907 364.355 366.973 364.422C367.039 364.489 367.119 364.543 367.206 364.578C367.293 364.614 367.387 364.632 367.482 364.63L395.691 364.893C395.787 364.897 395.883 364.883 395.974 364.849C396.064 364.816 396.147 364.765 396.218 364.699C396.288 364.632 396.344 364.553 396.383 364.465C396.422 364.376 396.443 364.281 396.445 364.185H396.399ZM358.547 406.367C358.604 406.241 363.414 392.988 377.879 389.823C378.065 389.782 378.227 389.669 378.33 389.508C378.433 389.347 378.468 389.152 378.427 388.966C378.381 388.783 378.266 388.625 378.106 388.525C377.947 388.425 377.755 388.391 377.57 388.429C362.317 391.765 357.256 405.761 357.199 405.898C357.14 406.079 357.154 406.275 357.237 406.445C357.32 406.616 357.466 406.747 357.644 406.812H357.873C358.025 406.825 358.177 406.789 358.307 406.709C358.436 406.628 358.537 406.508 358.593 406.367H358.547Z" fill="black" fill-opacity="0.2"/>
<path opacity="0.2" d="M395.942 293.257L393.166 247.064L395.942 293.257ZM387.156 308.498L369.607 268.772L387.156 308.498ZM432.446 296.947L390.389 302.979L432.446 296.947ZM378.061 329.909L355.291 300.694L378.061 329.909ZM382.06 320.951L413.434 322.528L382.06 320.951ZM374.634 343.356L398.627 345.733L374.634 343.356ZM368.841 357.592L356.925 339.666L368.841 357.592ZM367.47 363.922L395.679 364.185L367.47 363.922ZM361.758 416.844C361.947 416.829 362.122 416.74 362.246 416.597C362.37 416.454 362.433 416.267 362.42 416.078C360.626 389.137 371.046 345.013 387.761 308.795C398.444 285.647 440.318 240.152 440.763 239.695C440.898 239.56 440.974 239.377 440.974 239.186C440.974 238.996 440.898 238.813 440.763 238.678C440.697 238.612 440.619 238.559 440.533 238.523C440.447 238.487 440.354 238.469 440.261 238.469C440.167 238.469 440.075 238.487 439.988 238.523C439.902 238.559 439.824 238.612 439.758 238.678C439.335 239.135 397.29 284.802 386.516 308.155C369.492 345.253 359.21 388.577 361.038 416.169C361.052 416.351 361.134 416.521 361.267 416.646C361.4 416.771 361.575 416.841 361.758 416.844ZM395.931 293.965C396.119 293.953 396.296 293.867 396.422 293.726C396.548 293.585 396.614 293.4 396.605 293.211L393.874 246.996C393.87 246.902 393.847 246.809 393.806 246.724C393.766 246.639 393.709 246.563 393.638 246.5C393.568 246.438 393.486 246.389 393.397 246.359C393.308 246.328 393.214 246.315 393.12 246.322C392.931 246.333 392.754 246.419 392.628 246.56C392.502 246.701 392.436 246.887 392.446 247.076L395.222 293.268C395.231 293.45 395.309 293.621 395.441 293.747C395.573 293.872 395.748 293.942 395.931 293.942V293.965ZM387.407 309.149C387.578 309.072 387.713 308.93 387.781 308.755C387.849 308.58 387.846 308.385 387.773 308.212L370.212 268.487C370.136 268.314 369.995 268.178 369.82 268.11C369.644 268.041 369.448 268.045 369.275 268.121C369.103 268.197 368.967 268.338 368.899 268.514C368.83 268.689 368.834 268.885 368.91 269.058L386.459 308.783C386.514 308.911 386.605 309.02 386.72 309.097C386.836 309.174 386.971 309.216 387.11 309.218C387.228 309.224 387.346 309.2 387.453 309.149H387.407ZM390.446 303.665L432.48 297.655C432.581 297.653 432.681 297.63 432.773 297.586C432.865 297.543 432.946 297.48 433.012 297.403C433.078 297.326 433.127 297.236 433.156 297.138C433.184 297.041 433.192 296.938 433.178 296.838C433.164 296.737 433.129 296.641 433.076 296.555C433.022 296.468 432.951 296.395 432.866 296.338C432.782 296.281 432.687 296.243 432.587 296.226C432.487 296.209 432.384 296.213 432.286 296.239L390.252 302.248C390.064 302.26 389.889 302.347 389.765 302.488C389.64 302.629 389.577 302.814 389.589 303.002C389.602 303.19 389.688 303.365 389.829 303.49C389.971 303.614 390.156 303.677 390.344 303.665H390.446ZM378.461 330.48C378.611 330.363 378.707 330.191 378.731 330.003C378.755 329.815 378.703 329.625 378.587 329.475L355.805 300.203C355.688 300.052 355.516 299.953 355.327 299.928C355.137 299.903 354.945 299.955 354.794 300.072C354.642 300.188 354.543 300.36 354.519 300.55C354.494 300.74 354.546 300.931 354.662 301.083L377.49 330.4C377.556 330.485 377.641 330.554 377.738 330.602C377.835 330.65 377.942 330.674 378.05 330.674C378.221 330.666 378.383 330.597 378.507 330.48H378.461ZM414.062 322.562C414.069 322.373 414 322.189 413.872 322.05C413.744 321.911 413.566 321.829 413.377 321.82L382.06 320.232C381.884 320.244 381.719 320.32 381.595 320.446C381.472 320.572 381.399 320.739 381.391 320.915C381.382 321.091 381.439 321.265 381.55 321.402C381.66 321.539 381.818 321.631 381.992 321.66L413.365 323.248C413.554 323.254 413.738 323.186 413.877 323.057C414.016 322.929 414.099 322.751 414.108 322.562H414.062ZM399.29 345.801C399.301 345.707 399.293 345.612 399.266 345.521C399.24 345.43 399.196 345.346 399.136 345.272C399.076 345.199 399.003 345.138 398.919 345.093C398.836 345.049 398.744 345.021 398.65 345.013L374.657 342.648C374.564 342.638 374.47 342.648 374.38 342.675C374.29 342.702 374.207 342.746 374.135 342.806C374.063 342.865 374.003 342.939 373.959 343.021C373.915 343.104 373.888 343.195 373.88 343.288C373.864 343.475 373.922 343.661 374.041 343.807C374.161 343.952 374.333 344.044 374.52 344.065L398.513 346.441H398.581C398.765 346.454 398.947 346.394 399.088 346.275C399.229 346.155 399.318 345.985 399.335 345.801H399.29ZM369.184 358.186C369.343 358.081 369.453 357.918 369.492 357.732C369.53 357.545 369.494 357.352 369.39 357.192L357.53 339.266C357.422 339.112 357.258 339.005 357.072 338.969C356.887 338.933 356.695 338.97 356.536 339.072C356.378 339.177 356.267 339.34 356.228 339.526C356.19 339.713 356.227 339.907 356.331 340.066L368.19 357.992C368.258 358.09 368.348 358.17 368.454 358.226C368.559 358.282 368.676 358.311 368.796 358.312C368.95 358.32 369.103 358.276 369.23 358.186H369.184ZM396.399 364.185C396.396 363.996 396.321 363.817 396.189 363.683C396.057 363.549 395.879 363.471 395.691 363.465L367.482 363.202C367.294 363.202 367.114 363.277 366.981 363.409C366.848 363.542 366.773 363.722 366.773 363.91C366.77 364.005 366.786 364.099 366.821 364.187C366.855 364.275 366.907 364.355 366.973 364.422C367.039 364.489 367.119 364.543 367.206 364.578C367.293 364.614 367.387 364.632 367.482 364.63L395.691 364.893C395.787 364.897 395.883 364.883 395.974 364.849C396.064 364.816 396.147 364.765 396.218 364.699C396.288 364.632 396.344 364.553 396.383 364.465C396.422 364.376 396.443 364.281 396.445 364.185H396.399ZM358.547 406.367C358.604 406.241 363.414 392.988 377.879 389.823C378.065 389.782 378.227 389.669 378.33 389.508C378.433 389.347 378.468 389.152 378.427 388.966C378.381 388.783 378.266 388.625 378.106 388.525C377.947 388.425 377.755 388.391 377.57 388.429C362.317 391.765 357.256 405.761 357.199 405.898C357.14 406.079 357.154 406.275 357.237 406.445C357.32 406.616 357.466 406.747 357.644 406.812H357.873C358.025 406.825 358.177 406.789 358.307 406.709C358.436 406.628 358.537 406.508 358.593 406.367H358.547ZM361.758 416.844C361.947 416.829 362.122 416.74 362.246 416.597C362.37 416.454 362.433 416.267 362.42 416.078C360.626 389.137 371.046 345.013 387.761 308.795C398.444 285.647 440.318 240.152 440.763 239.695C440.898 239.56 440.974 239.377 440.974 239.186C440.974 238.996 440.898 238.813 440.763 238.678C440.697 238.612 440.619 238.559 440.533 238.523C440.447 238.487 440.354 238.469 440.261 238.469C440.167 238.469 440.075 238.487 439.988 238.523C439.902 238.559 439.824 238.612 439.758 238.678C439.335 239.135 397.29 284.802 386.516 308.155C369.492 345.253 359.21 388.577 361.038 416.169C361.052 416.351 361.134 416.521 361.267 416.646C361.4 416.771 361.575 416.841 361.758 416.844ZM395.931 293.965C396.119 293.953 396.296 293.867 396.422 293.726C396.548 293.585 396.614 293.4 396.605 293.211L393.874 246.996C393.87 246.902 393.847 246.809 393.806 246.724C393.766 246.639 393.709 246.563 393.638 246.5C393.568 246.438 393.486 246.389 393.397 246.359C393.308 246.328 393.214 246.315 393.12 246.322C392.931 246.333 392.754 246.419 392.628 246.56C392.502 246.701 392.436 246.887 392.446 247.076L395.222 293.268C395.231 293.45 395.309 293.621 395.441 293.747C395.573 293.872 395.748 293.942 395.931 293.942V293.965ZM387.407 309.149C387.578 309.072 387.713 308.93 387.781 308.755C387.849 308.58 387.846 308.385 387.773 308.212L370.212 268.487C370.136 268.314 369.995 268.178 369.82 268.11C369.644 268.041 369.448 268.045 369.275 268.121C369.103 268.197 368.967 268.338 368.899 268.514C368.83 268.689 368.834 268.885 368.91 269.058L386.459 308.783C386.514 308.911 386.605 309.02 386.72 309.097C386.836 309.174 386.971 309.216 387.11 309.218C387.228 309.224 387.346 309.2 387.453 309.149H387.407ZM390.446 303.665L432.48 297.655C432.581 297.653 432.681 297.63 432.773 297.586C432.865 297.543 432.946 297.48 433.012 297.403C433.078 297.326 433.127 297.236 433.156 297.138C433.184 297.041 433.192 296.938 433.178 296.838C433.164 296.737 433.129 296.641 433.076 296.555C433.022 296.468 432.951 296.395 432.866 296.338C432.782 296.281 432.687 296.243 432.587 296.226C432.487 296.209 432.384 296.213 432.286 296.239L390.252 302.248C390.064 302.26 389.889 302.347 389.765 302.488C389.64 302.629 389.577 302.814 389.589 303.002C389.602 303.19 389.688 303.365 389.829 303.49C389.971 303.614 390.156 303.677 390.344 303.665H390.446ZM378.461 330.48C378.611 330.363 378.707 330.191 378.731 330.003C378.755 329.815 378.703 329.625 378.587 329.475L355.805 300.203C355.747 300.128 355.675 300.065 355.593 300.018C355.511 299.971 355.421 299.94 355.327 299.928C355.233 299.916 355.137 299.922 355.046 299.947C354.955 299.972 354.869 300.014 354.794 300.072C354.719 300.129 354.656 300.201 354.609 300.283C354.561 300.366 354.531 300.456 354.519 300.55C354.507 300.644 354.513 300.739 354.538 300.831C354.562 300.922 354.605 301.008 354.662 301.083L377.49 330.4C377.556 330.485 377.641 330.554 377.738 330.602C377.835 330.65 377.942 330.674 378.05 330.674C378.221 330.666 378.383 330.597 378.507 330.48H378.461ZM414.062 322.562C414.069 322.373 414 322.189 413.872 322.05C413.744 321.911 413.566 321.829 413.377 321.82L382.06 320.232C381.884 320.244 381.719 320.32 381.595 320.446C381.472 320.572 381.399 320.739 381.391 320.915C381.382 321.091 381.439 321.265 381.55 321.402C381.66 321.539 381.818 321.631 381.992 321.66L413.365 323.248C413.554 323.254 413.738 323.186 413.877 323.057C414.016 322.929 414.099 322.751 414.108 322.562H414.062ZM399.29 345.801C399.301 345.707 399.293 345.612 399.266 345.521C399.24 345.43 399.196 345.346 399.136 345.272C399.076 345.199 399.003 345.138 398.919 345.093C398.836 345.049 398.744 345.021 398.65 345.013L374.657 342.648C374.564 342.638 374.47 342.648 374.38 342.675C374.29 342.702 374.207 342.746 374.135 342.806C374.063 342.865 374.003 342.939 373.959 343.021C373.915 343.104 373.888 343.195 373.88 343.288C373.864 343.475 373.922 343.661 374.041 343.807C374.161 343.952 374.333 344.044 374.52 344.065L398.513 346.441H398.581C398.765 346.454 398.947 346.394 399.088 346.275C399.229 346.155 399.318 345.985 399.335 345.801H399.29ZM369.184 358.186C369.343 358.081 369.453 357.918 369.492 357.732C369.53 357.545 369.494 357.352 369.39 357.192L357.53 339.266C357.422 339.112 357.258 339.005 357.072 338.969C356.887 338.933 356.695 338.97 356.536 339.072C356.378 339.177 356.267 339.34 356.228 339.526C356.19 339.713 356.227 339.907 356.331 340.066L368.19 357.992C368.258 358.09 368.348 358.17 368.454 358.226C368.559 358.282 368.676 358.311 368.796 358.312C368.95 358.32 369.103 358.276 369.23 358.186H369.184ZM396.399 364.185C396.396 363.996 396.321 363.817 396.189 363.683C396.057 363.549 395.879 363.471 395.691 363.465L367.482 363.202C367.294 363.202 367.114 363.277 366.981 363.409C366.848 363.542 366.773 363.722 366.773 363.91C366.77 364.005 366.786 364.099 366.821 364.187C366.855 364.275 366.907 364.355 366.973 364.422C367.039 364.489 367.119 364.543 367.206 364.578C367.293 364.614 367.387 364.632 367.482 364.63L395.691 364.893C395.787 364.897 395.883 364.883 395.974 364.849C396.064 364.816 396.147 364.765 396.218 364.699C396.288 364.632 396.344 364.553 396.383 364.465C396.422 364.376 396.443 364.281 396.445 364.185H396.399ZM358.547 406.367C358.604 406.241 363.414 392.988 377.879 389.823C378.065 389.782 378.227 389.669 378.33 389.508C378.433 389.347 378.468 389.152 378.427 388.966C378.381 388.783 378.266 388.625 378.106 388.525C377.947 388.425 377.755 388.391 377.57 388.429C362.317 391.765 357.256 405.761 357.199 405.898C357.14 406.079 357.154 406.275 357.237 406.445C357.32 406.616 357.466 406.747 357.644 406.812H357.873C358.025 406.825 358.177 406.789 358.307 406.709C358.436 406.628 358.537 406.508 358.593 406.367H358.547Z" fill="black"/>
<path d="M380.415 396.7H348.07V403.395H350.892L356.731 439.922H371.755L377.593 403.395H380.415V396.7Z" fill="#455CE9"/>
<path d="M380.415 396.7H348.07V403.395H350.892L356.731 439.922H371.755L377.593 403.395H380.415V396.7Z" fill="black" fill-opacity="0.2"/>
<path opacity="0.3" d="M380.415 396.7H348.07V403.395H350.892L356.731 439.922H371.755L377.593 403.395H380.415V396.7Z" fill="white"/>
<path d="M89.2084 194.245L51.585 181.963L48.2374 173.12L40.5939 172.88L26.7236 170.252L28.3917 173.12L45.8495 185.79L50.1569 187.938L89.5055 208.492L89.2084 194.245Z" fill="white" stroke="#0A0F1C" stroke-width="1.00396" stroke-miterlimit="10"/>
<path d="M48.2375 173.12L44.65 170.972L37.4863 173.599L38.6745 175.028L48.2375 173.12Z" fill="white" stroke="#0A0F1C" stroke-width="1.00396" stroke-linejoin="round"/>
<path d="M89.2084 194.245L51.585 181.963L48.2374 173.12L40.5939 172.88L26.7236 170.252L28.3917 173.12L45.8495 185.79L50.1569 187.938L89.5055 208.492L89.2084 194.245Z" fill="white"/>
<mask id="mask0_430_1753" style="mask-type:luminance" maskUnits="userSpaceOnUse" x="26" y="170" width="64" height="39">
<path d="M89.2084 194.245L51.585 181.963L48.2374 173.12L40.5939 172.88L26.7236 170.252L28.3917 173.12L45.8495 185.79L50.1569 187.938L89.5055 208.492L89.2084 194.245Z" fill="white"/>
</mask>
<g mask="url(#mask0_430_1753)">
<g opacity="0.5">
<path d="M89.2084 194.245L51.585 181.963L48.2374 173.12L40.5939 172.88L26.7236 170.252L28.3917 173.12L45.8495 185.79L50.1569 187.938L89.5055 208.492L89.2084 194.245Z" fill="#455CE9"/>
<path d="M89.2084 194.245L51.585 181.963L48.2374 173.12L40.5939 172.88L26.7236 170.252L28.3917 173.12L45.8495 185.79L50.1569 187.938L89.5055 208.492L89.2084 194.245Z" fill="black" fill-opacity="0.2"/>
<path d="M89.2084 194.245L51.585 181.963L48.2374 173.12L40.5939 172.88L26.7236 170.252L28.3917 173.12L45.8495 185.79L50.1569 187.938L89.5055 208.492L89.2084 194.245Z" stroke="#0A0F1C" stroke-width="1.00396" stroke-miterlimit="10"/>
</g>
</g>
<path d="M89.2084 194.245L51.585 181.963L48.2374 173.12L40.5939 172.88L26.7236 170.252L28.3917 173.12L45.8495 185.79L50.1569 187.938L89.5055 208.492L89.2084 194.245Z" stroke="#0A0F1C" stroke-width="1.00396" stroke-miterlimit="10"/>
<path d="M48.2375 173.12L44.65 170.972L37.4863 173.599L38.6745 175.028L48.2375 173.12Z" fill="white"/>
<mask id="mask1_430_1753" style="mask-type:luminance" maskUnits="userSpaceOnUse" x="37" y="170" width="12" height="6">
<path d="M48.2375 173.12L44.65 170.972L37.4863 173.599L38.6745 175.028L48.2375 173.12Z" fill="white"/>
</mask>
<g mask="url(#mask1_430_1753)">
<g opacity="0.5">
<path d="M48.2375 173.12L44.65 170.972L37.4863 173.599L38.6745 175.028L48.2375 173.12Z" fill="#455CE9"/>
<path d="M48.2375 173.12L44.65 170.972L37.4863 173.599L38.6745 175.028L48.2375 173.12Z" fill="black" fill-opacity="0.2"/>
<path d="M48.2375 173.12L44.65 170.972L37.4863 173.599L38.6745 175.028L48.2375 173.12Z" stroke="#0A0F1C" stroke-width="1.00396" stroke-linejoin="round"/>
</g>
</g>
<path d="M48.2375 173.12L44.65 170.972L37.4863 173.599L38.6745 175.028L48.2375 173.12Z" stroke="#0A0F1C" stroke-width="1.00396" stroke-linejoin="round"/>
<path d="M97.194 114.532C97.194 114.532 96.6113 119.673 98.0624 122.975C99.5134 126.277 107.568 137.462 107.568 137.462L92.5325 149.516C92.5325 149.516 86.2943 136.948 85.1061 134.914C83.9179 132.88 82.4897 124.129 86.3629 117.856C90.2361 111.584 95.8116 109.893 97.194 114.532Z" fill="white"/>
<mask id="mask2_430_1753" style="mask-type:luminance" maskUnits="userSpaceOnUse" x="83" y="111" width="25" height="39">
<path d="M97.194 114.532C97.194 114.532 96.6113 119.673 98.0624 122.975C99.5134 126.277 107.568 137.462 107.568 137.462L92.5325 149.516C92.5325 149.516 86.2943 136.948 85.1061 134.914C83.9179 132.88 82.4897 124.129 86.3629 117.856C90.2361 111.584 95.8116 109.893 97.194 114.532Z" fill="white"/>
</mask>
<g mask="url(#mask2_430_1753)">
<g style="mix-blend-mode:multiply" opacity="0.5">
<path d="M89.4705 131.052L95.9943 144.579L92.521 149.526L85.9629 137.816L89.4705 131.052Z" fill="#455CE9"/>
<path d="M89.4705 131.052L95.9943 144.579L92.521 149.526L85.9629 137.816L89.4705 131.052Z" fill="black" fill-opacity="0.2"/>
</g>
</g>
<path d="M97.194 114.532C97.194 114.532 96.6113 119.673 98.0624 122.975C99.5134 126.277 107.568 137.462 107.568 137.462L92.5325 149.516C92.5325 149.516 86.2943 136.948 85.1061 134.914C83.9179 132.88 82.4897 124.129 86.3629 117.856C90.2361 111.584 95.8116 109.893 97.194 114.532Z" stroke="#0A0F1C" stroke-width="1.00396" stroke-miterlimit="10"/>
<path d="M101.856 105.118C100.931 99.4051 94.3839 87.7856 83.9983 88.2312C77.2574 88.5283 74.104 89.8879 71.1792 91.5445C68.795 92.9492 66.5727 94.6121 64.5525 96.5031C59.4797 102.593 57.6973 104.261 58.6799 108.922C58.5993 110.782 58.8906 112.638 59.5368 114.384C61.0906 118.531 62.1532 121.239 63.5014 123.215C63.0901 125.146 62.0161 130.242 61.959 131.407C61.9018 132.573 65.3865 131.761 67.146 131.316C70.4137 138.628 76.4005 143.701 78.2628 144.284C81.5076 145.3 86.6375 139.965 89.3567 135.829C92.076 131.693 90.0194 127.043 90.0308 125.192C90.0423 123.341 96.1433 119.274 98.4056 117.983C100.668 116.692 102.77 110.819 101.856 105.118Z" fill="white"/>
<mask id="mask3_430_1753" style="mask-type:luminance" maskUnits="userSpaceOnUse" x="58" y="88" width="45" height="57">
<path d="M101.856 105.118C100.931 99.4051 94.3839 87.7856 83.9983 88.2312C77.2574 88.5283 74.104 89.8879 71.1792 91.5445C68.795 92.9492 66.5727 94.6121 64.5525 96.5031C59.4797 102.593 57.6973 104.261 58.6799 108.922C58.5993 110.782 58.8906 112.638 59.5368 114.384C61.0906 118.531 62.1532 121.239 63.5014 123.215C63.0901 125.146 62.0161 130.242 61.959 131.407C61.9018 132.573 65.3865 131.761 67.146 131.316C70.4137 138.628 76.4005 143.701 78.2628 144.284C81.5076 145.3 86.6375 139.965 89.3567 135.829C92.076 131.693 90.0194 127.043 90.0308 125.192C90.0423 123.341 96.1433 119.274 98.4056 117.983C100.668 116.692 102.77 110.819 101.856 105.118Z" fill="white"/>
</mask>
<g mask="url(#mask3_430_1753)">
<g style="mix-blend-mode:multiply" opacity="0.5">
<path d="M58.7246 108.921C58.644 110.78 58.9353 112.637 59.5815 114.382C61.1354 118.53 62.1979 121.237 63.5461 123.214C63.1348 125.145 62.0608 130.24 62.0037 131.406C61.9465 132.571 65.4313 131.76 67.1907 131.314C70.4584 138.627 76.4452 143.699 78.3075 144.282C81.5523 145.299 86.6822 139.963 89.4015 135.827C90.0808 134.795 90.5218 133.624 90.6925 132.4C90.544 131.863 90.4412 131.531 90.4412 131.531C90.4412 131.531 88.9102 137.415 85.8711 136.65C82.8319 135.884 78.1819 129.795 75.5883 127.693C72.9948 125.59 74.0573 122.825 73.5432 119.695C73.0291 116.564 65.3513 113.811 64.8371 112.017C64.323 110.223 66.1168 102.797 66.1168 102.797C66.1168 102.797 69.0302 98.9123 68.4018 100.512C67.9577 101.899 67.7966 103.361 67.9281 104.811C68.0596 106.262 68.481 107.671 69.1673 108.955C69.6489 109.969 70.4129 110.822 71.3675 111.411C72.3221 112.001 73.4267 112.303 74.5486 112.28L77.3364 98.4668L71.4524 93.5996L64.5972 96.4559C59.4787 102.591 57.7306 104.259 58.7246 108.921Z" fill="#455CE9"/>
<path d="M58.7246 108.921C58.644 110.78 58.9353 112.637 59.5815 114.382C61.1354 118.53 62.1979 121.237 63.5461 123.214C63.1348 125.145 62.0608 130.24 62.0037 131.406C61.9465 132.571 65.4313 131.76 67.1907 131.314C70.4584 138.627 76.4452 143.699 78.3075 144.282C81.5523 145.299 86.6822 139.963 89.4015 135.827C90.0808 134.795 90.5218 133.624 90.6925 132.4C90.544 131.863 90.4412 131.531 90.4412 131.531C90.4412 131.531 88.9102 137.415 85.8711 136.65C82.8319 135.884 78.1819 129.795 75.5883 127.693C72.9948 125.59 74.0573 122.825 73.5432 119.695C73.0291 116.564 65.3513 113.811 64.8371 112.017C64.323 110.223 66.1168 102.797 66.1168 102.797C66.1168 102.797 69.0302 98.9123 68.4018 100.512C67.9577 101.899 67.7966 103.361 67.9281 104.811C68.0596 106.262 68.481 107.671 69.1673 108.955C69.6489 109.969 70.4129 110.822 71.3675 111.411C72.3221 112.001 73.4267 112.303 74.5486 112.28L77.3364 98.4668L71.4524 93.5996L64.5972 96.4559C59.4787 102.591 57.7306 104.259 58.7246 108.921Z" fill="black" fill-opacity="0.2"/>
</g>
</g>
<path d="M101.856 105.118C100.931 99.4051 94.3839 87.7856 83.9983 88.2312C77.2574 88.5283 74.104 89.8879 71.1792 91.5445C68.795 92.9492 66.5727 94.6121 64.5525 96.5031C59.4797 102.593 57.6973 104.261 58.6799 108.922C58.5993 110.782 58.8906 112.638 59.5368 114.384C61.0906 118.531 62.1532 121.239 63.5014 123.215C63.0901 125.146 62.0161 130.242 61.959 131.407C61.9018 132.573 65.3865 131.761 67.146 131.316C70.4137 138.628 76.4005 143.701 78.2628 144.284C81.5076 145.3 86.6375 139.965 89.3567 135.829C92.076 131.693 90.0194 127.043 90.0308 125.192C90.0423 123.341 96.1433 119.274 98.4056 117.983C100.668 116.692 102.77 110.819 101.856 105.118Z" stroke="#0A0F1C" stroke-miterlimit="10"/>
<path d="M64.9189 119.765L66.0615 123.032C66.0615 123.032 68.5179 123.843 71.5113 120.576" stroke="#0A0F1C" stroke-miterlimit="10" stroke-linecap="round"/>
<path d="M73.3613 135.029C73.3613 135.029 76.0805 134.755 77.1774 130.938" stroke="#0A0F1C" stroke-miterlimit="10" stroke-linecap="round"/>
<path d="M63.0098 117.034C63.0098 117.034 63.821 114.577 68.7224 114.577" stroke="#0A0F1C" stroke-miterlimit="10" stroke-linecap="round"/>
<path d="M88.1335 83.6827C84.572 83.1705 80.9803 82.8957 77.3823 82.8601C77.3823 82.8601 66.6197 76.6561 56.2799 83.2714C45.94 89.8866 50.91 101.472 50.91 104.362C50.91 107.253 47.5967 107.264 49.6646 110.989C51.7326 114.714 58.7249 112.657 58.7249 112.657C58.7988 111.252 59.17 109.879 59.8141 108.629C60.4581 107.378 61.3603 106.278 62.4609 105.402C66.1856 102.512 69.1561 101.883 70.3901 102.717C70.3901 102.717 69.5675 108.921 70.8014 111.4C70.8014 111.4 74.9373 113.468 76.1827 113.468C77.428 113.468 75.3715 115.216 79.496 116.77C80.2474 117.04 81.0512 117.132 81.8442 117.039C82.6372 116.946 83.3977 116.67 84.0661 116.233C84.6717 113.72 85.997 109.938 88.4648 110.818C92.0867 112.109 95.3886 121.02 90.4871 124.06C96.3826 125.134 103.523 114.702 103.946 105.196C104.369 95.6906 94.2575 84.7566 88.1335 83.6827Z" fill="#0A0F1C"/>
<path d="M70.5742 98.6382C70.5742 98.6382 73.6133 97.0043 77.338 100.5C81.0626 103.997 88.3062 108.67 97.9034 106.099" stroke="white" stroke-width="0.5" stroke-linecap="round" stroke-linejoin="round"/>
<path d="M70.1504 95.8389C70.1504 95.8389 72.2412 92.5713 75.7373 92.5713C79.2335 92.5713 87.4025 97.4727 93.9264 97.4727" stroke="white" stroke-width="0.5" stroke-linecap="round" stroke-linejoin="round"/>
<path d="M67.7744 102.135C67.7744 102.135 63.8098 97.245 60.0852 101.21C56.3606 105.174 58.7256 108.922 58.7256 108.922" stroke="white" stroke-width="0.5" stroke-linecap="round" stroke-linejoin="round"/>
<path d="M51.9277 105.403C54.1996 103.354 55.612 100.521 55.8809 97.4734C56.3493 92.3435 63.353 87.9105 67.7746 92.115" stroke="white" stroke-width="0.5" stroke-linecap="round" stroke-linejoin="round"/>
<path d="M59.1494 86.7446C59.1494 86.7446 66.1531 79.9808 71.98 88.6069" stroke="white" stroke-width="0.5" stroke-linecap="round" stroke-linejoin="round"/>
<path d="M116.15 419.3C116.15 419.3 120.457 425.995 119.977 430.302L119.509 434.61C119.509 434.61 103.708 438.94 100.36 438.94C97.0126 438.94 79.292 437.26 79.292 437.26L78.5265 434.221C78.4729 433.997 78.4982 433.761 78.598 433.553C78.6979 433.345 78.8663 433.177 79.0749 433.079L94.8761 425.709L99.8575 420.26L116.15 419.3Z" fill="white" stroke="#0A0F1C" stroke-width="1.00396" stroke-miterlimit="10"/>
<path d="M102.759 435.57C107.044 435.902 115.178 433.285 119.897 431.617L119.566 434.611C119.566 434.611 103.707 438.941 100.36 438.941C97.0122 438.941 79.2916 437.261 79.2916 437.261L78.7432 435.09C81.5766 435.102 97.0921 435.136 102.759 435.57Z" fill="#455CE9"/>
<path d="M102.759 435.57C107.044 435.902 115.178 433.285 119.897 431.617L119.566 434.611C119.566 434.611 103.707 438.941 100.36 438.941C97.0122 438.941 79.2916 437.261 79.2916 437.261L78.7432 435.09C81.5766 435.102 97.0921 435.136 102.759 435.57Z" fill="black" fill-opacity="0.2"/>
<path d="M102.759 435.57C107.044 435.902 115.178 433.285 119.897 431.617L119.566 434.611C119.566 434.611 103.707 438.941 100.36 438.941C97.0122 438.941 79.2916 437.261 79.2916 437.261L78.7432 435.09C81.5766 435.102 97.0921 435.136 102.759 435.57Z" stroke="#0A0F1C" stroke-width="1.00396" stroke-miterlimit="10"/>
<path d="M94.8979 425.71L71.8988 435.719C71.8988 435.719 69.9336 440.643 71.8988 441.626C73.8639 442.608 116.709 441.626 116.709 441.626C116.709 441.626 119.668 433.845 114.995 428.624C110.322 423.402 94.8979 425.71 94.8979 425.71Z" fill="white" stroke="#0A0F1C" stroke-width="1.00396" stroke-miterlimit="10"/>
<path d="M116.709 441.624C116.709 441.624 73.8647 442.607 71.8996 441.624C70.9513 441.145 70.917 439.762 71.1341 438.448H117.464C117.312 439.528 117.06 440.592 116.709 441.624Z" fill="#455CE9"/>
<path d="M116.709 441.624C116.709 441.624 73.8647 442.607 71.8996 441.624C70.9513 441.145 70.917 439.762 71.1341 438.448H117.464C117.312 439.528 117.06 440.592 116.709 441.624Z" fill="black" fill-opacity="0.2"/>
<path d="M116.709 441.624C116.709 441.624 73.8647 442.607 71.8996 441.624C70.9513 441.145 70.917 439.762 71.1341 438.448H117.464C117.312 439.528 117.06 440.592 116.709 441.624Z" stroke="#0A0F1C" stroke-width="1.00396" stroke-miterlimit="10"/>
<path d="M84.0208 251.805C84.0208 251.805 78.0111 278.437 75.7375 295.095C73.4639 311.754 72.1271 345.127 72.607 348.954C73.0868 352.782 97.0113 416.912 97.0113 416.912L99.3992 422.624L116.149 419.277C116.149 419.277 108.494 394.872 105.626 381.47C102.758 368.069 96.4858 346.052 96.4858 342.225C96.4858 338.397 111.339 265.298 112.401 260.5C113.464 255.701 118.285 248.332 118.285 248.332L86.2145 247.681L84.0208 251.805Z" fill="#455CE9"/>
<path d="M84.0208 251.805C84.0208 251.805 78.0111 278.437 75.7375 295.095C73.4639 311.754 72.1271 345.127 72.607 348.954C73.0868 352.782 97.0113 416.912 97.0113 416.912L99.3992 422.624L116.149 419.277C116.149 419.277 108.494 394.872 105.626 381.47C102.758 368.069 96.4858 346.052 96.4858 342.225C96.4858 338.397 111.339 265.298 112.401 260.5C113.464 255.701 118.285 248.332 118.285 248.332L86.2145 247.681L84.0208 251.805Z" fill="black" fill-opacity="0.2"/>
<path d="M84.0208 251.805C84.0208 251.805 78.0111 278.437 75.7375 295.095C73.4639 311.754 72.1271 345.127 72.607 348.954C73.0868 352.782 97.0113 416.912 97.0113 416.912L99.3992 422.624L116.149 419.277C116.149 419.277 108.494 394.872 105.626 381.47C102.758 368.069 96.4858 346.052 96.4858 342.225C96.4858 338.397 111.339 265.298 112.401 260.5C113.464 255.701 118.285 248.332 118.285 248.332L86.2145 247.681L84.0208 251.805Z" stroke="#0A0F1C" stroke-width="1.00396" stroke-miterlimit="10"/>
<path d="M84.0223 251.806C84.0223 251.806 80.5033 276.13 81.9543 293.04C83.4054 309.949 86.5245 345.95 86.5245 351.309C86.5245 356.667 95.1734 388.669 95.6647 398.723C96.4302 413.245 95.3562 420.431 95.3562 420.431L94.842 425.699C94.842 425.699 104.931 427.138 107.136 427.766C109.682 428.423 112.311 428.707 114.939 428.612C114.939 428.612 118.607 412.468 118.607 398.712C118.607 384.956 115.556 356.644 114.036 345.173C112.517 333.702 117.304 289.452 120.023 281.192C122.743 272.931 128.684 255.439 124.685 246.505C120.686 237.57 84.0223 251.806 84.0223 251.806Z" fill="#455CE9"/>
<path d="M84.0223 251.806C84.0223 251.806 80.5033 276.13 81.9543 293.04C83.4054 309.949 86.5245 345.95 86.5245 351.309C86.5245 356.667 95.1734 388.669 95.6647 398.723C96.4302 413.245 95.3562 420.431 95.3562 420.431L94.842 425.699C94.842 425.699 104.931 427.138 107.136 427.766C109.682 428.423 112.311 428.707 114.939 428.612C114.939 428.612 118.607 412.468 118.607 398.712C118.607 384.956 115.556 356.644 114.036 345.173C112.517 333.702 117.304 289.452 120.023 281.192C122.743 272.931 128.684 255.439 124.685 246.505C120.686 237.57 84.0223 251.806 84.0223 251.806Z" fill="black" fill-opacity="0.2"/>
<path d="M84.0223 251.806C84.0223 251.806 80.5033 276.13 81.9543 293.04C83.4054 309.949 86.5245 345.95 86.5245 351.309C86.5245 356.667 95.1734 388.669 95.6647 398.723C96.4302 413.245 95.3562 420.431 95.3562 420.431L94.842 425.699C94.842 425.699 104.931 427.138 107.136 427.766C109.682 428.423 112.311 428.707 114.939 428.612C114.939 428.612 118.607 412.468 118.607 398.712C118.607 384.956 115.556 356.644 114.036 345.173C112.517 333.702 117.304 289.452 120.023 281.192C122.743 272.931 128.684 255.439 124.685 246.505C120.686 237.57 84.0223 251.806 84.0223 251.806Z" stroke="#0A0F1C" stroke-width="1.00396" stroke-miterlimit="10"/>
<path d="M129.127 242.025L128.762 252.902C128.762 252.902 122.249 254.193 113.475 255.713C106.231 256.97 88.042 255.382 81.918 254.787C81.3599 254.738 80.844 254.47 80.4824 254.042C80.1208 253.614 79.9428 253.061 79.9871 252.502L80.5813 242.677L129.127 242.025Z" fill="#0A0F1C"/>
<path d="M103.672 133.6C103.672 133.6 93.3892 144.716 89.5161 151.629C85.6429 158.541 84.1119 169.132 82.6609 177.473C81.2099 185.813 85.1402 205.396 84.0319 214.388L80.5244 242.711C80.5244 242.711 79.7703 244.63 82.2953 246.732C84.8203 248.835 97.1482 249.6 108.288 250.16C112.355 250.366 124.5 247.749 126.488 247.624C128.888 247.475 128.968 244.425 129.07 242.025C129.55 230.749 131.584 200.689 132.921 187.595C135.674 160.895 120.604 135.119 103.672 133.6Z" fill="white" stroke="#0A0F1C" stroke-width="1.00396" stroke-miterlimit="10"/>
<g style="mix-blend-mode:multiply">
<path d="M131.664 202.78C132.121 196.85 132.578 191.469 132.978 187.595C133.092 186.453 133.161 185.31 133.218 184.168L105.9 188.738L82.4326 180.74C82.4352 185.596 82.7098 190.448 83.2552 195.273L106.277 201.717L131.664 202.78Z" fill="#455CE9"/>
<path d="M131.664 202.78C132.121 196.85 132.578 191.469 132.978 187.595C133.092 186.453 133.161 185.31 133.218 184.168L105.9 188.738L82.4326 180.74C82.4352 185.596 82.7098 190.448 83.2552 195.273L106.277 201.717L131.664 202.78Z" fill="black" fill-opacity="0.2"/>
</g>
<g style="mix-blend-mode:multiply">
<path d="M102.656 134.72C101.102 136.445 98.0173 139.953 95.0811 143.677L112.425 161.306L118.137 159.021L102.656 134.72Z" fill="#455CE9"/>
<path d="M102.656 134.72C101.102 136.445 98.0173 139.953 95.0811 143.677L112.425 161.306L118.137 159.021L102.656 134.72Z" fill="black" fill-opacity="0.2"/>
</g>
<path d="M103.673 133.6C103.673 133.6 93.3907 144.716 89.5176 151.629C88.3691 153.729 87.4388 155.942 86.7412 158.232L107.421 134.342C106.199 133.972 104.944 133.723 103.673 133.6Z" fill="#0A0F1C"/>
<g style="mix-blend-mode:multiply">
<path d="M83.4619 172.972L105.901 180.353L133.15 177.222C132.723 170.434 131.215 163.758 128.683 157.445L106.712 166.254L87.0723 157.354C85.4663 162.458 84.2593 167.68 83.4619 172.972Z" fill="#455CE9"/>
<path d="M83.4619 172.972L105.901 180.353L133.15 177.222C132.723 170.434 131.215 163.758 128.683 157.445L106.712 166.254L87.0723 157.354C85.4663 162.458 84.2593 167.68 83.4619 172.972Z" fill="black" fill-opacity="0.2"/>
</g>
<g style="mix-blend-mode:multiply">
<path d="M122.09 230.749C110.709 232.66 99.0315 231.705 88.1116 227.972L82.6389 226.099L80.9365 239.809L87.1747 241.557C99.0338 244.873 111.429 245.828 123.656 244.368L128.694 243.762C128.956 243.207 129.104 242.605 129.128 241.991C129.265 238.941 129.505 234.508 129.814 229.423L122.09 230.749Z" fill="#455CE9"/>
<path d="M122.09 230.749C110.709 232.66 99.0315 231.705 88.1116 227.972L82.6389 226.099L80.9365 239.809L87.1747 241.557C99.0338 244.873 111.429 245.828 123.656 244.368L128.694 243.762C128.956 243.207 129.104 242.605 129.128 241.991C129.265 238.941 129.505 234.508 129.814 229.423L122.09 230.749Z" fill="black" fill-opacity="0.2"/>
</g>
<g style="mix-blend-mode:multiply">
<path d="M125.141 212.08C113.759 213.998 102.078 213.04 91.1618 209.292L84.1923 206.904C84.3652 209.394 84.3308 211.893 84.0895 214.376L83.2783 220.969L90.2249 222.911C102.079 226.23 114.47 227.189 126.694 225.733L130.122 225.322C130.408 220.752 130.739 215.885 131.093 211.075L125.141 212.08Z" fill="#455CE9"/>
<path d="M125.141 212.08C113.759 213.998 102.078 213.04 91.1618 209.292L84.1923 206.904C84.3652 209.394 84.3308 211.893 84.0895 214.376L83.2783 220.969L90.2249 222.911C102.079 226.23 114.47 227.189 126.694 225.733L130.122 225.322C130.408 220.752 130.739 215.885 131.093 211.075L125.141 212.08Z" fill="black" fill-opacity="0.2"/>
</g>
<path d="M17.9508 163.765L40.042 181.526L40.9942 180.342L18.903 162.58L17.9508 163.765Z" fill="#0A0F1C"/>
<path d="M114.309 145.928C114.309 145.928 122.409 151.446 122.592 164.482C122.672 170.195 122.078 175.531 120.764 184.888C119.45 194.245 111.293 224.716 104.94 228.418C98.5876 232.12 88.7276 225.128 88.7276 225.128L41.0386 193.468L29.5105 184.157L23.7979 173.371L25.5916 169.944L39.6561 180.729L32.0812 173.725L33.5665 171.84L36.3085 173.748L44.3062 176.742L46.0543 188.167L48.5221 189.858L94.1432 206.527C94.1432 206.527 93.5719 181.974 93.9947 177.279C94.4174 172.583 95.0001 160.781 100.027 152.223" fill="white"/>
<mask id="mask4_430_1753" style="mask-type:luminance" maskUnits="userSpaceOnUse" x="23" y="145" width="100" height="85">
<path d="M114.309 145.928C114.309 145.928 122.409 151.446 122.592 164.482C122.672 170.195 122.078 175.531 120.764 184.888C119.45 194.245 111.293 224.716 104.94 228.418C98.5876 232.12 88.7276 225.128 88.7276 225.128L41.0386 193.468L29.5105 184.157L23.7979 173.371L25.5916 169.944L39.6561 180.729L32.0812 173.725L33.5665 171.84L36.3085 173.748L44.3062 176.742L46.0543 188.167L48.5221 189.858L94.1432 206.527C94.1432 206.527 93.5719 181.974 93.9947 177.279C94.4174 172.583 95.0001 160.781 100.027 152.223" fill="white"/>
</mask>
<g mask="url(#mask4_430_1753)">
<g style="mix-blend-mode:multiply" opacity="0.5">
<path d="M93.8237 187.973C93.8237 196.451 94.1093 206.528 94.1093 206.528L48.5339 189.927L46.0661 188.236L44.318 176.811L36.3203 173.817L33.5897 171.875L32.1044 173.76L39.6565 180.73L25.592 169.944L23.8896 173.315L29.6023 184.1L41.1304 193.469L44.0324 195.4L107.043 215.702L93.8237 187.973Z" fill="#455CE9"/>
<path d="M93.8237 187.973C93.8237 196.451 94.1093 206.528 94.1093 206.528L48.5339 189.927L46.0661 188.236L44.318 176.811L36.3203 173.817L33.5897 171.875L32.1044 173.76L39.6565 180.73L25.592 169.944L23.8896 173.315L29.6023 184.1L41.1304 193.469L44.0324 195.4L107.043 215.702L93.8237 187.973Z" fill="black" fill-opacity="0.2"/>
</g>
</g>
<path d="M114.309 145.928C114.309 145.928 122.409 151.446 122.592 164.482C122.672 170.195 122.078 175.531 120.764 184.888C119.45 194.245 111.293 224.716 104.94 228.418C98.5876 232.12 88.7276 225.128 88.7276 225.128L41.0386 193.468L29.5105 184.157L23.7979 173.371L25.5916 169.944L39.6561 180.729L32.0812 173.725L33.5665 171.84L36.3085 173.748L44.3062 176.742L46.0543 188.167L48.5221 189.858L94.1432 206.527C94.1432 206.527 93.5719 181.974 93.9947 177.279C94.4174 172.583 95.0001 160.781 100.027 152.223" stroke="#0A0F1C" stroke-width="1.00396" stroke-miterlimit="10"/>
<path d="M94.1445 206.527L111.557 219.095L116.07 211.097C116.07 211.097 119.189 208.641 119.646 206.79C120.103 204.939 119.52 201.934 119.988 200.083C120.457 198.232 122.788 196.496 123.005 192.017C123.222 187.538 123.005 183.802 123.005 183.802C123.005 183.802 126.775 168.298 126.364 161.557C125.952 154.816 119.451 142.9 114.242 142.637C109.032 142.374 102.256 143.162 97.0008 151.114C91.7452 159.066 92.8191 182.283 91.9965 183.734C91.1739 185.185 92.3164 192.348 92.3164 192.348C91.8598 192.689 91.481 193.123 91.2052 193.621C90.9294 194.12 90.7629 194.671 90.7169 195.239C90.6255 197.101 92.6363 201.683 92.6363 201.683L94.1445 206.527Z" fill="white" stroke="#0A0F1C" stroke-width="1.00396" stroke-miterlimit="10"/>
<g style="mix-blend-mode:multiply">
<path d="M92.4529 177.771C92.4887 179.764 92.3396 181.757 92.0073 183.723C91.2761 185.026 92.1101 190.91 92.2929 192.109C102.086 195.151 112.442 195.932 122.581 194.394C122.799 193.6 122.929 192.784 122.97 191.961C123.198 187.493 122.97 183.746 122.97 183.746C122.97 183.746 123.301 182.363 123.758 180.261C113.258 180.929 102.716 180.09 92.4529 177.771Z" fill="#455CE9"/>
<path d="M92.4529 177.771C92.4887 179.764 92.3396 181.757 92.0073 183.723C91.2761 185.026 92.1101 190.91 92.2929 192.109C102.086 195.151 112.442 195.932 122.581 194.394C122.799 193.6 122.929 192.784 122.97 191.961C123.198 187.493 122.97 183.746 122.97 183.746C122.97 183.746 123.301 182.363 123.758 180.261C113.258 180.929 102.716 180.09 92.4529 177.771Z" fill="black" fill-opacity="0.2"/>
</g>
<g style="mix-blend-mode:multiply">
<path d="M96.2921 152.383C94.6583 155.662 93.7443 160.586 93.2188 165.579C103.591 169.537 114.774 170.898 125.792 169.544C126.232 166.901 126.427 164.224 126.375 161.546C126.177 159.429 125.677 157.351 124.89 155.376C115.269 155.601 105.658 154.595 96.2921 152.383Z" fill="#455CE9"/>
<path d="M96.2921 152.383C94.6583 155.662 93.7443 160.586 93.2188 165.579C103.591 169.537 114.774 170.898 125.792 169.544C126.232 166.901 126.427 164.224 126.375 161.546C126.177 159.429 125.677 157.351 124.89 155.376C115.269 155.601 105.658 154.595 96.2921 152.383Z" fill="black" fill-opacity="0.2"/>
</g>
<path d="M92.6357 201.809L94.1096 206.527L111.522 219.095L116.035 211.097C116.035 211.097 119.154 208.641 119.611 206.79C119.692 206.468 119.742 206.139 119.759 205.807C110.584 205.649 101.467 204.305 92.6357 201.809Z" fill="#0A0F1C"/>
<path d="M105.238 427.618C105.238 427.618 105.626 417.724 107.523 403.259C109.42 388.795 104.861 368.252 104.095 364.825C103.33 361.397 104.484 353.788 103.718 351.114C102.953 348.441 99.2511 337.039 101.433 323.808C103.616 310.578 105.386 275.605 105.386 275.605C105.386 275.605 99.8909 271.138 98.2799 265.322C96.669 259.507 97.9029 257.679 97.9029 257.679" stroke="#0A0F1C" stroke-width="1.00396" stroke-miterlimit="10"/>
<path d="M107.787 258.216L105.673 269.915" stroke="#0A0F1C" stroke-width="1.00396" stroke-miterlimit="10"/>
</svg>
