<svg width="32" height="32" viewBox="0 0 32 32" fill="none" xmlns="http://www.w3.org/2000/svg">
<path fill-rule="evenodd" clip-rule="evenodd" d="M14.2425 0C14.2425 1.14379 14.2425 2.28759 14.2425 3.43138C14.2944 4.33995 14.2372 5.22642 14.0709 6.0907C11.3672 7.73561 8.45049 8.82216 5.3209 9.35051C5.30658 11.9813 5.3209 14.6121 5.36379 17.2427C5.75557 20.7288 7.28536 23.6026 9.95326 25.864C11.3034 26.9721 12.7332 27.9586 14.2425 28.8236C14.2425 29.6814 14.2425 30.5393 14.2425 31.3971C11.4692 30.0768 8.99582 28.2753 6.82213 25.9927C5.13672 24.0519 3.99296 21.8215 3.39075 19.3015C2.33681 18.482 1.2359 17.7385 0.0880537 17.0711C0.0199323 16.1005 -0.00866821 15.1283 0.0022693 14.1544C0.0308612 14.1544 0.0594618 14.1544 0.0880537 14.1544C1.03168 14.7835 1.97531 15.4126 2.91894 16.0417C2.92409 16.0883 2.95265 16.1168 3.00472 16.1275C3.09051 13.1828 3.11907 10.2375 3.09051 7.29168C6.09228 6.92486 8.95173 6.08135 11.6689 4.76104C11.783 3.62314 11.783 2.49365 11.6689 1.37255C12.4962 0.872934 13.354 0.41542 14.2425 0Z" fill="#FCFCFE"/>
<path fill-rule="evenodd" clip-rule="evenodd" d="M14.2422 0C15.1811 0.555626 16.1247 1.11322 17.0731 1.6728C20.5654 3.52626 24.2827 4.55568 28.225 4.76104C28.3393 6.98551 28.3393 9.20158 28.225 11.4093C27.2117 12.1023 26.2108 12.8172 25.2226 13.5539C25.1369 12.6693 25.1083 11.7829 25.1368 10.8946C25.2165 9.69613 25.2451 8.49515 25.2226 7.29168C21.2787 6.78735 17.6186 5.50058 14.2422 3.43138C14.2422 2.28759 14.2422 1.14379 14.2422 0Z" fill="#455CE8"/>
<path fill-rule="evenodd" clip-rule="evenodd" d="M11.6688 1.37207C11.7829 2.49317 11.7829 3.62266 11.6688 4.76056C8.95156 6.08086 6.09211 6.92438 3.09034 7.2912C3.03313 10.2079 2.97599 13.1245 2.91878 16.0412C1.97515 15.4122 1.03152 14.783 0.0878906 14.154C0.0878906 11.0371 0.0878906 7.92026 0.0878906 4.80345C0.363524 4.83004 0.620878 4.80148 0.85995 4.71766C4.72865 4.4231 8.3316 3.3079 11.6688 1.37207Z" fill="#455CE8"/>
<path fill-rule="evenodd" clip-rule="evenodd" d="M0.859797 4.71777C0.620725 4.80158 0.363371 4.83015 0.0877375 4.80356C0.0877375 7.92036 0.0877375 11.0373 0.0877375 14.1541C0.0591456 14.1541 0.0305451 14.1541 0.00195312 14.1541C0.00195312 11.0086 0.00195312 7.86323 0.00195312 4.71777C0.287898 4.71777 0.573852 4.71777 0.859797 4.71777Z" fill="#4659D1"/>
<path fill-rule="evenodd" clip-rule="evenodd" d="M14.0698 6.09082C14.1271 6.09082 14.1842 6.09082 14.2414 6.09082C14.2695 9.24246 14.2408 12.3879 14.1556 15.5271C13.4132 15.9844 12.6984 16.4848 12.011 17.0283C11.9297 17.0698 11.8439 17.084 11.7537 17.0712C11.7822 14.7258 11.7537 12.381 11.6679 10.0369C10.4582 10.6248 9.20003 11.0537 7.89336 11.3237C7.77909 12.1079 7.72196 12.9229 7.72179 13.7685C7.72179 14.5983 7.75044 15.4133 7.80757 16.2134C7.92304 19.4182 9.22413 22.0204 11.7108 24.0198C11.7393 22.7044 11.768 21.389 11.7965 20.0737C12.0293 19.8832 12.2723 19.7117 12.5257 19.559C13.0875 19.1786 13.6309 18.7783 14.1556 18.358C14.1842 18.358 14.2128 18.358 14.2414 18.358C14.757 17.9717 15.286 17.6 15.8284 17.2428C15.8713 17.814 15.8855 18.3859 15.8713 18.9585C15.8048 19.4329 15.7333 19.919 15.6568 20.4168C15.2211 20.7419 14.778 21.0564 14.3272 21.3605C14.2414 23.8189 14.2128 26.2781 14.2414 28.7379C14.2414 28.7665 14.2414 28.7951 14.2414 28.8237C12.7321 27.9587 11.3023 26.9722 9.95218 25.8641C7.28429 23.6027 5.7545 20.7289 5.36272 17.2428C5.31983 14.6122 5.3055 11.9815 5.31983 9.35063C8.44941 8.82228 11.3661 7.73574 14.0698 6.09082Z" fill="#465CE8"/>
<path fill-rule="evenodd" clip-rule="evenodd" d="M14.242 6.09082C16.9859 7.72999 19.9312 8.84519 23.0778 9.43641C23.0778 10.7804 23.0778 12.1243 23.0778 13.4683C23.132 15.3724 22.989 17.2597 22.6489 19.1301C21.7402 22.2005 19.9959 24.7024 17.4161 26.6362C16.385 27.3803 15.327 28.0808 14.242 28.7379C14.2135 26.2781 14.242 23.8189 14.3278 21.3605C14.7786 21.0564 15.2218 20.7419 15.6575 20.4168C15.7339 19.919 15.8055 19.4329 15.8719 18.9585C15.8451 19.1941 15.8737 19.4229 15.9577 19.6448C16.1358 19.7981 16.3217 19.9411 16.5153 20.0737C16.5296 21.39 16.5725 22.7054 16.644 24.0198C18.9263 22.1816 20.2273 19.8083 20.5472 16.8997C20.6183 15.0264 20.6041 13.1677 20.5043 11.3237C19.1653 10.9744 17.85 10.5455 16.5582 10.0369C16.5582 12.3531 16.5582 14.6693 16.5582 16.9854C16.4535 17.0682 16.3391 17.0539 16.2151 16.9426C15.5678 16.452 14.9101 15.9801 14.242 15.5271C14.2135 15.5271 14.1848 15.5271 14.1562 15.5271C14.2414 12.3879 14.2701 9.24246 14.242 6.09082Z" fill="#2C3671"/>
<path fill-rule="evenodd" clip-rule="evenodd" d="M14.2419 3.43164C17.6183 5.50085 21.2784 6.78761 25.2223 7.29194C25.2448 8.49541 25.2162 9.69639 25.1365 10.8949C25.0677 11.0194 25.0248 11.1624 25.0078 11.3238C24.4579 11.2399 23.9003 11.2113 23.335 11.238C23.3534 11.097 23.3247 10.9683 23.2492 10.852C23.8497 10.8234 24.4502 10.7948 25.0507 10.7662C24.4223 10.7233 23.7932 10.7091 23.1635 10.7233C23.191 10.2777 23.1623 9.84875 23.0777 9.43655C19.931 8.84533 16.9858 7.73013 14.2419 6.09096C14.1847 6.09096 14.1275 6.09096 14.0703 6.09096C14.2366 5.22668 14.2938 4.34021 14.2419 3.43164Z" fill="#D7D7D8"/>
<path fill-rule="evenodd" clip-rule="evenodd" d="M23.0781 9.43652C23.1628 9.84872 23.1914 10.2776 23.1639 10.7233C23.7937 10.7091 24.4227 10.7233 25.0512 10.7662C24.4507 10.7947 23.8502 10.8234 23.2497 10.852C23.3252 10.9683 23.3538 11.097 23.3355 11.238C23.9008 11.2113 24.4584 11.2399 25.0083 11.3238C25.0253 11.1623 25.0682 11.0194 25.137 10.8949C25.1085 11.7832 25.137 12.6696 25.2227 13.5542C26.211 12.8175 27.2118 12.1025 28.2252 11.4096C28.2252 12.2388 28.2252 13.068 28.2252 13.8973C27.9038 14.162 27.5607 14.3907 27.1958 14.5836C26.9845 14.6077 26.7986 14.6935 26.6382 14.8409C25.4869 14.756 24.3288 14.7275 23.1639 14.7552C23.1914 14.3095 23.1628 13.8806 23.0781 13.4684C23.0781 12.1244 23.0781 10.7805 23.0781 9.43652Z" fill="#D0D0D1"/>
<path fill-rule="evenodd" clip-rule="evenodd" d="M3.08954 7.29199C3.1181 10.2378 3.08954 13.1831 3.00375 16.1278C2.95168 16.1172 2.92312 16.0886 2.91797 16.042C2.97519 13.1253 3.03232 10.2087 3.08954 7.29199Z" fill="#5C70EA"/>
<path fill-rule="evenodd" clip-rule="evenodd" d="M14.157 15.5273C14.1855 15.5273 14.2142 15.5273 14.2427 15.5273C14.2427 16.4709 14.2427 17.4146 14.2427 18.3582C14.2142 18.3582 14.1855 18.3582 14.157 18.3582C13.6013 18.0085 13.058 17.6368 12.5271 17.243C12.4327 18.0147 12.4327 18.7868 12.5271 19.5592C12.2737 19.7119 12.0306 19.8834 11.7979 20.0739C11.7693 21.3892 11.7407 22.7046 11.7121 24.02C9.22547 22.0206 7.92438 19.4184 7.80892 16.2136C7.78147 14.5772 7.81003 12.9473 7.8947 11.3239C9.20137 11.0539 10.4596 10.625 11.6692 10.0371C11.755 12.3812 11.7836 14.726 11.755 17.0714C11.8452 17.0842 11.931 17.07 12.0124 17.0285C12.6997 16.485 13.4146 15.9846 14.157 15.5273Z" fill="#FDFDFE"/>
<path fill-rule="evenodd" clip-rule="evenodd" d="M20.5047 11.3239C20.5047 12.4676 20.5047 13.6115 20.5047 14.7553C19.2179 14.7553 17.9311 14.7553 16.6444 14.7553C16.6723 15.5144 16.6438 16.2579 16.5586 16.9857C16.5586 14.6695 16.5586 12.3533 16.5586 10.0371C17.8503 10.5457 19.1657 10.9746 20.5047 11.3239Z" fill="#D1D1D1"/>
<path fill-rule="evenodd" clip-rule="evenodd" d="M20.5044 11.3232C20.6042 13.1673 20.6185 15.026 20.5473 16.8992C20.2275 19.8078 18.9264 22.1812 16.6442 24.0193C16.5727 22.705 16.5298 21.3895 16.5155 20.0733C16.3219 19.9406 16.136 19.7977 15.9579 19.6443C15.8738 19.4225 15.8452 19.1937 15.8721 18.9581C15.8863 18.3854 15.8721 17.8135 15.8292 17.2424C15.2868 17.5996 14.7578 17.9713 14.2422 18.3576C14.2422 17.4139 14.2422 16.4703 14.2422 15.5267C14.9103 15.9797 15.568 16.4515 16.2152 16.9421C16.3393 17.0535 16.4536 17.0678 16.5584 16.985C16.6436 16.2572 16.6721 15.5137 16.6442 14.7546C17.9309 14.7546 19.2177 14.7546 20.5044 14.7546C20.5044 13.6109 20.5044 12.467 20.5044 11.3232Z" fill="#C8C9C9"/>
<path fill-rule="evenodd" clip-rule="evenodd" d="M7.89423 11.3232C7.80956 12.9466 7.78099 14.5765 7.80844 16.213C7.75131 15.4128 7.72266 14.5979 7.72266 13.7681C7.72283 12.9224 7.77996 12.1075 7.89423 11.3232Z" fill="#CAD0F7"/>
<path fill-rule="evenodd" clip-rule="evenodd" d="M23.0788 13.4678C23.1634 13.88 23.1921 14.3089 23.1646 14.7545C24.3294 14.7268 25.4875 14.7554 26.6388 14.8403C26.7992 14.6929 26.9851 14.6071 27.1964 14.583C26.5387 15.0977 25.8811 15.6124 25.2234 16.1271C25.1106 16.5715 25.1106 17.029 25.2234 17.4996C25.2755 17.489 25.304 17.4604 25.3092 17.4139C26.2576 16.6942 27.2298 16.0079 28.2258 15.355C28.2258 15.8983 28.2258 16.4417 28.2258 16.9849C27.03 17.7532 25.8862 18.5825 24.7945 19.4727C24.6757 19.5682 24.547 19.654 24.4084 19.73C24.3693 19.8368 24.4122 19.9082 24.5371 19.9445C24.4799 19.9731 24.4228 20.0017 24.3655 20.0303C23.823 20.0732 23.2797 20.0874 22.7356 20.0732C22.7211 19.9598 22.7496 19.8597 22.8214 19.7729C22.6831 19.5818 22.6258 19.3673 22.6499 19.1295C22.99 17.2592 23.133 15.3719 23.0788 13.4678Z" fill="#CACACB"/>
<path fill-rule="evenodd" clip-rule="evenodd" d="M28.2255 13.8975C28.3373 14.375 28.3373 14.8612 28.2255 15.3558C27.2294 16.0087 26.2572 16.695 25.3088 17.4146C25.2241 17.0024 25.1955 16.5735 25.223 16.1279C25.8807 15.6131 26.5383 15.0984 27.1961 14.5837C27.561 14.3908 27.9041 14.1621 28.2255 13.8975Z" fill="#475DE7"/>
<path fill-rule="evenodd" clip-rule="evenodd" d="M25.2233 16.127C25.1957 16.5726 25.2244 17.0015 25.3091 17.4137C25.3039 17.4603 25.2753 17.4889 25.2233 17.4995C25.1105 17.0289 25.1105 16.5713 25.2233 16.127Z" fill="#6778E1"/>
<path fill-rule="evenodd" clip-rule="evenodd" d="M28.2252 16.9854C28.0815 20.845 26.809 24.2763 24.4078 27.2795C22.4465 29.6519 20.1445 31.6106 17.5021 33.1557C16.4113 33.8155 15.2961 34.4303 14.1565 35.0001C10.1061 33.1381 6.63187 30.5074 3.73373 27.1079C1.442 24.1653 0.226681 20.8197 0.0878906 17.0711C1.23574 17.7385 2.33664 18.482 3.39059 19.3015C3.9928 21.8215 5.13656 24.0519 6.82197 25.9927C8.99566 28.2754 11.4691 30.0768 14.2423 31.3971C17.3908 29.7861 20.093 27.6129 22.3489 24.8775C23.5822 23.2686 24.3971 21.4672 24.7938 19.4731C25.8856 18.5829 27.0293 17.7536 28.2252 16.9854Z" fill="#455CE8"/>
<path fill-rule="evenodd" clip-rule="evenodd" d="M14.1558 18.3584C13.631 18.7786 13.0877 19.179 12.5259 19.5593C12.4315 18.7869 12.4315 18.0149 12.5259 17.2432C13.0568 17.6369 13.6 18.0087 14.1558 18.3584Z" fill="#303973"/>
<path fill-rule="evenodd" clip-rule="evenodd" d="M22.6491 19.1299C22.625 19.3677 22.6823 19.5821 22.8206 19.7733C22.7488 19.86 22.7203 19.9601 22.7348 20.0735C23.2789 20.0878 23.8222 20.0735 24.3647 20.0306C24.422 20.0021 24.4791 19.9734 24.5363 19.9448C24.4114 19.9085 24.3685 19.8371 24.4076 19.7304C24.5462 19.6544 24.6749 19.5686 24.7937 19.473C24.397 21.4671 23.582 23.2686 22.3488 24.8774C20.0929 27.6129 17.3906 29.786 14.2422 31.3971C14.2422 30.5392 14.2422 29.6814 14.2422 28.8235C14.2422 28.795 14.2422 28.7663 14.2422 28.7377C15.3272 28.0806 16.3852 27.3801 17.4162 26.636C19.9961 24.7023 21.7403 22.2003 22.6491 19.1299Z" fill="#BDBDBE"/>
</svg>
